%TF.GenerationSoftware,KiCad,Pcbnew,(5.1.12-1-10_14)*%
%TF.CreationDate,2022-02-21T12:57:33+08:00*%
%TF.ProjectId,esp32-c3_ddsu666,65737033-322d-4633-935f-646473753636,rev?*%
%TF.SameCoordinates,Original*%
%TF.FileFunction,Copper,L1,Top*%
%TF.FilePolarity,Positive*%
%FSLAX46Y46*%
G04 Gerber Fmt 4.6, Leading zero omitted, Abs format (unit mm)*
G04 Created by KiCad (PCBNEW (5.1.12-1-10_14)) date 2022-02-21 12:57:33*
%MOMM*%
%LPD*%
G01*
G04 APERTURE LIST*
%TA.AperFunction,ComponentPad*%
%ADD10O,1.700000X1.700000*%
%TD*%
%TA.AperFunction,ComponentPad*%
%ADD11R,1.700000X1.700000*%
%TD*%
%TA.AperFunction,ComponentPad*%
%ADD12R,1.350000X1.350000*%
%TD*%
%TA.AperFunction,SMDPad,CuDef*%
%ADD13R,1.500000X2.000000*%
%TD*%
%TA.AperFunction,SMDPad,CuDef*%
%ADD14R,3.800000X2.000000*%
%TD*%
%TA.AperFunction,SMDPad,CuDef*%
%ADD15R,0.399999X0.799998*%
%TD*%
%TA.AperFunction,SMDPad,CuDef*%
%ADD16R,0.799998X0.399999*%
%TD*%
%TA.AperFunction,SMDPad,CuDef*%
%ADD17R,1.450010X1.450010*%
%TD*%
%TA.AperFunction,SMDPad,CuDef*%
%ADD18R,0.799998X0.799998*%
%TD*%
%TA.AperFunction,ViaPad*%
%ADD19C,0.800000*%
%TD*%
%TA.AperFunction,Conductor*%
%ADD20C,0.250000*%
%TD*%
%TA.AperFunction,Conductor*%
%ADD21C,0.381000*%
%TD*%
%TA.AperFunction,Conductor*%
%ADD22C,0.300000*%
%TD*%
%TA.AperFunction,Conductor*%
%ADD23C,0.600000*%
%TD*%
%TA.AperFunction,Conductor*%
%ADD24C,0.203200*%
%TD*%
%TA.AperFunction,Conductor*%
%ADD25C,0.254000*%
%TD*%
%TA.AperFunction,Conductor*%
%ADD26C,0.100000*%
%TD*%
G04 APERTURE END LIST*
D10*
%TO.P,J2,3*%
%TO.N,U0TXD*%
X125550000Y-62980000D03*
%TO.P,J2,2*%
%TO.N,U0RXD*%
X125550000Y-65520000D03*
D11*
%TO.P,J2,1*%
%TO.N,GND*%
X125550000Y-68060000D03*
%TD*%
%TO.P,C3,2*%
%TO.N,GND*%
%TA.AperFunction,SMDPad,CuDef*%
G36*
G01*
X111265000Y-54620000D02*
X110315000Y-54620000D01*
G75*
G02*
X110065000Y-54370000I0J250000D01*
G01*
X110065000Y-53695000D01*
G75*
G02*
X110315000Y-53445000I250000J0D01*
G01*
X111265000Y-53445000D01*
G75*
G02*
X111515000Y-53695000I0J-250000D01*
G01*
X111515000Y-54370000D01*
G75*
G02*
X111265000Y-54620000I-250000J0D01*
G01*
G37*
%TD.AperFunction*%
%TO.P,C3,1*%
%TO.N,/GPIO9*%
%TA.AperFunction,SMDPad,CuDef*%
G36*
G01*
X111265000Y-56695000D02*
X110315000Y-56695000D01*
G75*
G02*
X110065000Y-56445000I0J250000D01*
G01*
X110065000Y-55770000D01*
G75*
G02*
X110315000Y-55520000I250000J0D01*
G01*
X111265000Y-55520000D01*
G75*
G02*
X111515000Y-55770000I0J-250000D01*
G01*
X111515000Y-56445000D01*
G75*
G02*
X111265000Y-56695000I-250000J0D01*
G01*
G37*
%TD.AperFunction*%
%TD*%
D12*
%TO.P,J5,1*%
%TO.N,B*%
X122500000Y-49000000D03*
%TD*%
%TO.P,J4,1*%
%TO.N,A*%
X117500000Y-49000000D03*
%TD*%
%TO.P,J3,1*%
%TO.N,GND*%
X112500000Y-49000000D03*
%TD*%
%TO.P,J1,1*%
%TO.N,+5V*%
X107500000Y-49000000D03*
%TD*%
%TO.P,C12,2*%
%TO.N,+5V*%
%TA.AperFunction,SMDPad,CuDef*%
G36*
G01*
X122735000Y-55230000D02*
X123045000Y-55230000D01*
G75*
G02*
X123200000Y-55385000I0J-155000D01*
G01*
X123200000Y-55810000D01*
G75*
G02*
X123045000Y-55965000I-155000J0D01*
G01*
X122735000Y-55965000D01*
G75*
G02*
X122580000Y-55810000I0J155000D01*
G01*
X122580000Y-55385000D01*
G75*
G02*
X122735000Y-55230000I155000J0D01*
G01*
G37*
%TD.AperFunction*%
%TO.P,C12,1*%
%TO.N,GND*%
%TA.AperFunction,SMDPad,CuDef*%
G36*
G01*
X122735000Y-54095000D02*
X123045000Y-54095000D01*
G75*
G02*
X123200000Y-54250000I0J-155000D01*
G01*
X123200000Y-54675000D01*
G75*
G02*
X123045000Y-54830000I-155000J0D01*
G01*
X122735000Y-54830000D01*
G75*
G02*
X122580000Y-54675000I0J155000D01*
G01*
X122580000Y-54250000D01*
G75*
G02*
X122735000Y-54095000I155000J0D01*
G01*
G37*
%TD.AperFunction*%
%TD*%
%TO.P,U2,8*%
%TO.N,+5V*%
%TA.AperFunction,SMDPad,CuDef*%
G36*
G01*
X125335000Y-52800000D02*
X125035000Y-52800000D01*
G75*
G02*
X124885000Y-52650000I0J150000D01*
G01*
X124885000Y-51000000D01*
G75*
G02*
X125035000Y-50850000I150000J0D01*
G01*
X125335000Y-50850000D01*
G75*
G02*
X125485000Y-51000000I0J-150000D01*
G01*
X125485000Y-52650000D01*
G75*
G02*
X125335000Y-52800000I-150000J0D01*
G01*
G37*
%TD.AperFunction*%
%TO.P,U2,7*%
%TO.N,B*%
%TA.AperFunction,SMDPad,CuDef*%
G36*
G01*
X126605000Y-52800000D02*
X126305000Y-52800000D01*
G75*
G02*
X126155000Y-52650000I0J150000D01*
G01*
X126155000Y-51000000D01*
G75*
G02*
X126305000Y-50850000I150000J0D01*
G01*
X126605000Y-50850000D01*
G75*
G02*
X126755000Y-51000000I0J-150000D01*
G01*
X126755000Y-52650000D01*
G75*
G02*
X126605000Y-52800000I-150000J0D01*
G01*
G37*
%TD.AperFunction*%
%TO.P,U2,6*%
%TO.N,A*%
%TA.AperFunction,SMDPad,CuDef*%
G36*
G01*
X127875000Y-52800000D02*
X127575000Y-52800000D01*
G75*
G02*
X127425000Y-52650000I0J150000D01*
G01*
X127425000Y-51000000D01*
G75*
G02*
X127575000Y-50850000I150000J0D01*
G01*
X127875000Y-50850000D01*
G75*
G02*
X128025000Y-51000000I0J-150000D01*
G01*
X128025000Y-52650000D01*
G75*
G02*
X127875000Y-52800000I-150000J0D01*
G01*
G37*
%TD.AperFunction*%
%TO.P,U2,5*%
%TO.N,GND*%
%TA.AperFunction,SMDPad,CuDef*%
G36*
G01*
X129145000Y-52800000D02*
X128845000Y-52800000D01*
G75*
G02*
X128695000Y-52650000I0J150000D01*
G01*
X128695000Y-51000000D01*
G75*
G02*
X128845000Y-50850000I150000J0D01*
G01*
X129145000Y-50850000D01*
G75*
G02*
X129295000Y-51000000I0J-150000D01*
G01*
X129295000Y-52650000D01*
G75*
G02*
X129145000Y-52800000I-150000J0D01*
G01*
G37*
%TD.AperFunction*%
%TO.P,U2,4*%
%TO.N,U0TXD*%
%TA.AperFunction,SMDPad,CuDef*%
G36*
G01*
X129145000Y-57750000D02*
X128845000Y-57750000D01*
G75*
G02*
X128695000Y-57600000I0J150000D01*
G01*
X128695000Y-55950000D01*
G75*
G02*
X128845000Y-55800000I150000J0D01*
G01*
X129145000Y-55800000D01*
G75*
G02*
X129295000Y-55950000I0J-150000D01*
G01*
X129295000Y-57600000D01*
G75*
G02*
X129145000Y-57750000I-150000J0D01*
G01*
G37*
%TD.AperFunction*%
%TO.P,U2,3*%
%TO.N,+5V*%
%TA.AperFunction,SMDPad,CuDef*%
G36*
G01*
X127875000Y-57750000D02*
X127575000Y-57750000D01*
G75*
G02*
X127425000Y-57600000I0J150000D01*
G01*
X127425000Y-55950000D01*
G75*
G02*
X127575000Y-55800000I150000J0D01*
G01*
X127875000Y-55800000D01*
G75*
G02*
X128025000Y-55950000I0J-150000D01*
G01*
X128025000Y-57600000D01*
G75*
G02*
X127875000Y-57750000I-150000J0D01*
G01*
G37*
%TD.AperFunction*%
%TO.P,U2,2*%
%TA.AperFunction,SMDPad,CuDef*%
G36*
G01*
X126605000Y-57750000D02*
X126305000Y-57750000D01*
G75*
G02*
X126155000Y-57600000I0J150000D01*
G01*
X126155000Y-55950000D01*
G75*
G02*
X126305000Y-55800000I150000J0D01*
G01*
X126605000Y-55800000D01*
G75*
G02*
X126755000Y-55950000I0J-150000D01*
G01*
X126755000Y-57600000D01*
G75*
G02*
X126605000Y-57750000I-150000J0D01*
G01*
G37*
%TD.AperFunction*%
%TO.P,U2,1*%
%TO.N,U0RXD*%
%TA.AperFunction,SMDPad,CuDef*%
G36*
G01*
X125335000Y-57750000D02*
X125035000Y-57750000D01*
G75*
G02*
X124885000Y-57600000I0J150000D01*
G01*
X124885000Y-55950000D01*
G75*
G02*
X125035000Y-55800000I150000J0D01*
G01*
X125335000Y-55800000D01*
G75*
G02*
X125485000Y-55950000I0J-150000D01*
G01*
X125485000Y-57600000D01*
G75*
G02*
X125335000Y-57750000I-150000J0D01*
G01*
G37*
%TD.AperFunction*%
%TD*%
%TO.P,R2,2*%
%TO.N,+5V*%
%TA.AperFunction,SMDPad,CuDef*%
G36*
G01*
X122540000Y-52570000D02*
X122540000Y-52890000D01*
G75*
G02*
X122380000Y-53050000I-160000J0D01*
G01*
X121985000Y-53050000D01*
G75*
G02*
X121825000Y-52890000I0J160000D01*
G01*
X121825000Y-52570000D01*
G75*
G02*
X121985000Y-52410000I160000J0D01*
G01*
X122380000Y-52410000D01*
G75*
G02*
X122540000Y-52570000I0J-160000D01*
G01*
G37*
%TD.AperFunction*%
%TO.P,R2,1*%
%TO.N,A*%
%TA.AperFunction,SMDPad,CuDef*%
G36*
G01*
X123735000Y-52570000D02*
X123735000Y-52890000D01*
G75*
G02*
X123575000Y-53050000I-160000J0D01*
G01*
X123180000Y-53050000D01*
G75*
G02*
X123020000Y-52890000I0J160000D01*
G01*
X123020000Y-52570000D01*
G75*
G02*
X123180000Y-52410000I160000J0D01*
G01*
X123575000Y-52410000D01*
G75*
G02*
X123735000Y-52570000I0J-160000D01*
G01*
G37*
%TD.AperFunction*%
%TD*%
%TO.P,R1,2*%
%TO.N,B*%
%TA.AperFunction,SMDPad,CuDef*%
G36*
G01*
X123040000Y-51870000D02*
X123040000Y-51550000D01*
G75*
G02*
X123200000Y-51390000I160000J0D01*
G01*
X123595000Y-51390000D01*
G75*
G02*
X123755000Y-51550000I0J-160000D01*
G01*
X123755000Y-51870000D01*
G75*
G02*
X123595000Y-52030000I-160000J0D01*
G01*
X123200000Y-52030000D01*
G75*
G02*
X123040000Y-51870000I0J160000D01*
G01*
G37*
%TD.AperFunction*%
%TO.P,R1,1*%
%TO.N,GND*%
%TA.AperFunction,SMDPad,CuDef*%
G36*
G01*
X121845000Y-51870000D02*
X121845000Y-51550000D01*
G75*
G02*
X122005000Y-51390000I160000J0D01*
G01*
X122400000Y-51390000D01*
G75*
G02*
X122560000Y-51550000I0J-160000D01*
G01*
X122560000Y-51870000D01*
G75*
G02*
X122400000Y-52030000I-160000J0D01*
G01*
X122005000Y-52030000D01*
G75*
G02*
X121845000Y-51870000I0J160000D01*
G01*
G37*
%TD.AperFunction*%
%TD*%
%TO.P,R14,2*%
%TO.N,Net-(D2-Pad1)*%
%TA.AperFunction,SMDPad,CuDef*%
G36*
G01*
X116680000Y-52615000D02*
X116680000Y-52245000D01*
G75*
G02*
X116815000Y-52110000I135000J0D01*
G01*
X117085000Y-52110000D01*
G75*
G02*
X117220000Y-52245000I0J-135000D01*
G01*
X117220000Y-52615000D01*
G75*
G02*
X117085000Y-52750000I-135000J0D01*
G01*
X116815000Y-52750000D01*
G75*
G02*
X116680000Y-52615000I0J135000D01*
G01*
G37*
%TD.AperFunction*%
%TO.P,R14,1*%
%TO.N,GND*%
%TA.AperFunction,SMDPad,CuDef*%
G36*
G01*
X115660000Y-52615000D02*
X115660000Y-52245000D01*
G75*
G02*
X115795000Y-52110000I135000J0D01*
G01*
X116065000Y-52110000D01*
G75*
G02*
X116200000Y-52245000I0J-135000D01*
G01*
X116200000Y-52615000D01*
G75*
G02*
X116065000Y-52750000I-135000J0D01*
G01*
X115795000Y-52750000D01*
G75*
G02*
X115660000Y-52615000I0J135000D01*
G01*
G37*
%TD.AperFunction*%
%TD*%
%TO.P,R12,2*%
%TO.N,GND*%
%TA.AperFunction,SMDPad,CuDef*%
G36*
G01*
X108715000Y-66600000D02*
X108345000Y-66600000D01*
G75*
G02*
X108210000Y-66465000I0J135000D01*
G01*
X108210000Y-66195000D01*
G75*
G02*
X108345000Y-66060000I135000J0D01*
G01*
X108715000Y-66060000D01*
G75*
G02*
X108850000Y-66195000I0J-135000D01*
G01*
X108850000Y-66465000D01*
G75*
G02*
X108715000Y-66600000I-135000J0D01*
G01*
G37*
%TD.AperFunction*%
%TO.P,R12,1*%
%TO.N,Net-(D1-Pad1)*%
%TA.AperFunction,SMDPad,CuDef*%
G36*
G01*
X108715000Y-67620000D02*
X108345000Y-67620000D01*
G75*
G02*
X108210000Y-67485000I0J135000D01*
G01*
X108210000Y-67215000D01*
G75*
G02*
X108345000Y-67080000I135000J0D01*
G01*
X108715000Y-67080000D01*
G75*
G02*
X108850000Y-67215000I0J-135000D01*
G01*
X108850000Y-67485000D01*
G75*
G02*
X108715000Y-67620000I-135000J0D01*
G01*
G37*
%TD.AperFunction*%
%TD*%
%TO.P,D2,2*%
%TO.N,GPIO4*%
%TA.AperFunction,SMDPad,CuDef*%
G36*
G01*
X115983750Y-55180000D02*
X116896250Y-55180000D01*
G75*
G02*
X117140000Y-55423750I0J-243750D01*
G01*
X117140000Y-55911250D01*
G75*
G02*
X116896250Y-56155000I-243750J0D01*
G01*
X115983750Y-56155000D01*
G75*
G02*
X115740000Y-55911250I0J243750D01*
G01*
X115740000Y-55423750D01*
G75*
G02*
X115983750Y-55180000I243750J0D01*
G01*
G37*
%TD.AperFunction*%
%TO.P,D2,1*%
%TO.N,Net-(D2-Pad1)*%
%TA.AperFunction,SMDPad,CuDef*%
G36*
G01*
X115983750Y-53305000D02*
X116896250Y-53305000D01*
G75*
G02*
X117140000Y-53548750I0J-243750D01*
G01*
X117140000Y-54036250D01*
G75*
G02*
X116896250Y-54280000I-243750J0D01*
G01*
X115983750Y-54280000D01*
G75*
G02*
X115740000Y-54036250I0J243750D01*
G01*
X115740000Y-53548750D01*
G75*
G02*
X115983750Y-53305000I243750J0D01*
G01*
G37*
%TD.AperFunction*%
%TD*%
%TO.P,D1,2*%
%TO.N,+3V3*%
%TA.AperFunction,SMDPad,CuDef*%
G36*
G01*
X105220000Y-66943750D02*
X105220000Y-67856250D01*
G75*
G02*
X104976250Y-68100000I-243750J0D01*
G01*
X104488750Y-68100000D01*
G75*
G02*
X104245000Y-67856250I0J243750D01*
G01*
X104245000Y-66943750D01*
G75*
G02*
X104488750Y-66700000I243750J0D01*
G01*
X104976250Y-66700000D01*
G75*
G02*
X105220000Y-66943750I0J-243750D01*
G01*
G37*
%TD.AperFunction*%
%TO.P,D1,1*%
%TO.N,Net-(D1-Pad1)*%
%TA.AperFunction,SMDPad,CuDef*%
G36*
G01*
X107095000Y-66943750D02*
X107095000Y-67856250D01*
G75*
G02*
X106851250Y-68100000I-243750J0D01*
G01*
X106363750Y-68100000D01*
G75*
G02*
X106120000Y-67856250I0J243750D01*
G01*
X106120000Y-66943750D01*
G75*
G02*
X106363750Y-66700000I243750J0D01*
G01*
X106851250Y-66700000D01*
G75*
G02*
X107095000Y-66943750I0J-243750D01*
G01*
G37*
%TD.AperFunction*%
%TD*%
%TO.P,C7,2*%
%TO.N,GND*%
%TA.AperFunction,SMDPad,CuDef*%
G36*
G01*
X103949999Y-64540000D02*
X106850001Y-64540000D01*
G75*
G02*
X107100000Y-64789999I0J-249999D01*
G01*
X107100000Y-65690001D01*
G75*
G02*
X106850001Y-65940000I-249999J0D01*
G01*
X103949999Y-65940000D01*
G75*
G02*
X103700000Y-65690001I0J249999D01*
G01*
X103700000Y-64789999D01*
G75*
G02*
X103949999Y-64540000I249999J0D01*
G01*
G37*
%TD.AperFunction*%
%TO.P,C7,1*%
%TO.N,+3V3*%
%TA.AperFunction,SMDPad,CuDef*%
G36*
G01*
X103949999Y-60440000D02*
X106850001Y-60440000D01*
G75*
G02*
X107100000Y-60689999I0J-249999D01*
G01*
X107100000Y-61590001D01*
G75*
G02*
X106850001Y-61840000I-249999J0D01*
G01*
X103949999Y-61840000D01*
G75*
G02*
X103700000Y-61590001I0J249999D01*
G01*
X103700000Y-60689999D01*
G75*
G02*
X103949999Y-60440000I249999J0D01*
G01*
G37*
%TD.AperFunction*%
%TD*%
D13*
%TO.P,U4,1*%
%TO.N,GND*%
X107780000Y-52260000D03*
%TO.P,U4,3*%
%TO.N,+5V*%
X103180000Y-52260000D03*
%TO.P,U4,2*%
%TO.N,+3V3*%
X105480000Y-52260000D03*
D14*
X105480000Y-58560000D03*
%TD*%
D15*
%TO.P,U1,46*%
%TO.N,GND*%
X119639892Y-68229952D03*
%TO.P,U1,45*%
X118839792Y-68229952D03*
%TO.P,U1,44*%
X118039946Y-68229952D03*
%TO.P,U1,43*%
X117239846Y-68229952D03*
%TO.P,U1,42*%
X116439746Y-68229952D03*
%TO.P,U1,41*%
X115639900Y-68229952D03*
%TO.P,U1,40*%
X114839800Y-68229952D03*
%TO.P,U1,39*%
X114039954Y-68229952D03*
%TO.P,U1,38*%
X113239854Y-68229952D03*
%TO.P,U1,37*%
X112440008Y-68229952D03*
%TO.P,U1,36*%
X111639908Y-68229952D03*
D16*
%TO.P,U1,30*%
%TO.N,U0RXD*%
X110490050Y-63280000D03*
%TO.P,U1,29*%
%TO.N,N/C*%
X110490050Y-62479900D03*
%TO.P,U1,28*%
X110490050Y-61680054D03*
%TO.P,U1,27*%
X110490050Y-60879954D03*
%TO.P,U1,26*%
X110490050Y-60079854D03*
%TO.P,U1,25*%
X110490050Y-59280008D03*
D15*
%TO.P,U1,12*%
X121240092Y-58330048D03*
%TO.P,U1,13*%
X120439992Y-58330048D03*
%TO.P,U1,14*%
%TO.N,GND*%
X119640146Y-58330048D03*
%TO.P,U1,15*%
%TO.N,N/C*%
X118840046Y-58330048D03*
D17*
%TO.P,U1,49*%
%TO.N,GND*%
X116440000Y-63280000D03*
D18*
%TO.P,U1,53*%
%TO.N,N/C*%
X122389950Y-68229952D03*
%TO.P,U1,52*%
%TO.N,GND*%
X122389950Y-58330048D03*
%TO.P,U1,51*%
X110490050Y-58330048D03*
%TO.P,U1,50*%
X110490050Y-68229952D03*
D16*
%TO.P,U1,1*%
X122389950Y-67279992D03*
%TO.P,U1,2*%
X122389950Y-66479892D03*
%TO.P,U1,3*%
%TO.N,+3V3*%
X122389950Y-65680046D03*
%TO.P,U1,4*%
%TO.N,N/C*%
X122389950Y-64879946D03*
%TO.P,U1,5*%
X122389950Y-64080100D03*
%TO.P,U1,6*%
X122389950Y-63280000D03*
%TO.P,U1,7*%
X122389950Y-62480154D03*
%TO.P,U1,8*%
%TO.N,/CHIP_PU*%
X122389950Y-61680054D03*
%TO.P,U1,9*%
%TO.N,N/C*%
X122389950Y-60879954D03*
%TO.P,U1,10*%
X122389950Y-60080108D03*
%TO.P,U1,11*%
%TO.N,GND*%
X122389950Y-59280008D03*
D15*
%TO.P,U1,16*%
%TO.N,N/C*%
X118039946Y-58330048D03*
%TO.P,U1,17*%
X117239846Y-58330048D03*
%TO.P,U1,18*%
%TO.N,GPIO4*%
X116440000Y-58330048D03*
%TO.P,U1,19*%
%TO.N,N/C*%
X115639900Y-58330048D03*
%TO.P,U1,20*%
X114840054Y-58330048D03*
%TO.P,U1,21*%
X114039954Y-58330048D03*
%TO.P,U1,22*%
%TO.N,/GPIO8*%
X113240108Y-58330048D03*
%TO.P,U1,23*%
%TO.N,/GPIO9*%
X112440008Y-58330048D03*
%TO.P,U1,24*%
%TO.N,N/C*%
X111639908Y-58330048D03*
D16*
%TO.P,U1,31*%
%TO.N,U0TXD*%
X110490050Y-64079846D03*
%TO.P,U1,32*%
%TO.N,N/C*%
X110490050Y-64879946D03*
%TO.P,U1,33*%
X110490050Y-65679792D03*
%TO.P,U1,34*%
X110490050Y-66480146D03*
%TO.P,U1,35*%
X110490050Y-67279992D03*
D15*
%TO.P,U1,47*%
%TO.N,GND*%
X120439992Y-68229952D03*
%TO.P,U1,48*%
X121239838Y-68229952D03*
D17*
%TO.P,U1,49*%
X114464896Y-63280000D03*
X114464896Y-65255104D03*
X116440000Y-65255104D03*
X118415104Y-63280000D03*
X118415104Y-61304896D03*
X116440000Y-61304896D03*
X114464896Y-61304896D03*
%TD*%
%TO.P,R13,2*%
%TO.N,+3V3*%
%TA.AperFunction,SMDPad,CuDef*%
G36*
G01*
X113575000Y-54870000D02*
X113205000Y-54870000D01*
G75*
G02*
X113070000Y-54735000I0J135000D01*
G01*
X113070000Y-54465000D01*
G75*
G02*
X113205000Y-54330000I135000J0D01*
G01*
X113575000Y-54330000D01*
G75*
G02*
X113710000Y-54465000I0J-135000D01*
G01*
X113710000Y-54735000D01*
G75*
G02*
X113575000Y-54870000I-135000J0D01*
G01*
G37*
%TD.AperFunction*%
%TO.P,R13,1*%
%TO.N,/GPIO8*%
%TA.AperFunction,SMDPad,CuDef*%
G36*
G01*
X113575000Y-55890000D02*
X113205000Y-55890000D01*
G75*
G02*
X113070000Y-55755000I0J135000D01*
G01*
X113070000Y-55485000D01*
G75*
G02*
X113205000Y-55350000I135000J0D01*
G01*
X113575000Y-55350000D01*
G75*
G02*
X113710000Y-55485000I0J-135000D01*
G01*
X113710000Y-55755000D01*
G75*
G02*
X113575000Y-55890000I-135000J0D01*
G01*
G37*
%TD.AperFunction*%
%TD*%
%TO.P,R11,2*%
%TO.N,/CHIP_PU*%
%TA.AperFunction,SMDPad,CuDef*%
G36*
G01*
X125185000Y-59940000D02*
X125555000Y-59940000D01*
G75*
G02*
X125690000Y-60075000I0J-135000D01*
G01*
X125690000Y-60345000D01*
G75*
G02*
X125555000Y-60480000I-135000J0D01*
G01*
X125185000Y-60480000D01*
G75*
G02*
X125050000Y-60345000I0J135000D01*
G01*
X125050000Y-60075000D01*
G75*
G02*
X125185000Y-59940000I135000J0D01*
G01*
G37*
%TD.AperFunction*%
%TO.P,R11,1*%
%TO.N,+3V3*%
%TA.AperFunction,SMDPad,CuDef*%
G36*
G01*
X125185000Y-58920000D02*
X125555000Y-58920000D01*
G75*
G02*
X125690000Y-59055000I0J-135000D01*
G01*
X125690000Y-59325000D01*
G75*
G02*
X125555000Y-59460000I-135000J0D01*
G01*
X125185000Y-59460000D01*
G75*
G02*
X125050000Y-59325000I0J135000D01*
G01*
X125050000Y-59055000D01*
G75*
G02*
X125185000Y-58920000I135000J0D01*
G01*
G37*
%TD.AperFunction*%
%TD*%
%TO.P,C11,2*%
%TO.N,GND*%
%TA.AperFunction,SMDPad,CuDef*%
G36*
G01*
X124520000Y-59500000D02*
X124180000Y-59500000D01*
G75*
G02*
X124040000Y-59360000I0J140000D01*
G01*
X124040000Y-59080000D01*
G75*
G02*
X124180000Y-58940000I140000J0D01*
G01*
X124520000Y-58940000D01*
G75*
G02*
X124660000Y-59080000I0J-140000D01*
G01*
X124660000Y-59360000D01*
G75*
G02*
X124520000Y-59500000I-140000J0D01*
G01*
G37*
%TD.AperFunction*%
%TO.P,C11,1*%
%TO.N,/CHIP_PU*%
%TA.AperFunction,SMDPad,CuDef*%
G36*
G01*
X124520000Y-60460000D02*
X124180000Y-60460000D01*
G75*
G02*
X124040000Y-60320000I0J140000D01*
G01*
X124040000Y-60040000D01*
G75*
G02*
X124180000Y-59900000I140000J0D01*
G01*
X124520000Y-59900000D01*
G75*
G02*
X124660000Y-60040000I0J-140000D01*
G01*
X124660000Y-60320000D01*
G75*
G02*
X124520000Y-60460000I-140000J0D01*
G01*
G37*
%TD.AperFunction*%
%TD*%
%TO.P,C10,2*%
%TO.N,GND*%
%TA.AperFunction,SMDPad,CuDef*%
G36*
G01*
X112650000Y-52360000D02*
X112650000Y-52700000D01*
G75*
G02*
X112510000Y-52840000I-140000J0D01*
G01*
X112230000Y-52840000D01*
G75*
G02*
X112090000Y-52700000I0J140000D01*
G01*
X112090000Y-52360000D01*
G75*
G02*
X112230000Y-52220000I140000J0D01*
G01*
X112510000Y-52220000D01*
G75*
G02*
X112650000Y-52360000I0J-140000D01*
G01*
G37*
%TD.AperFunction*%
%TO.P,C10,1*%
%TO.N,+3V3*%
%TA.AperFunction,SMDPad,CuDef*%
G36*
G01*
X113610000Y-52360000D02*
X113610000Y-52700000D01*
G75*
G02*
X113470000Y-52840000I-140000J0D01*
G01*
X113190000Y-52840000D01*
G75*
G02*
X113050000Y-52700000I0J140000D01*
G01*
X113050000Y-52360000D01*
G75*
G02*
X113190000Y-52220000I140000J0D01*
G01*
X113470000Y-52220000D01*
G75*
G02*
X113610000Y-52360000I0J-140000D01*
G01*
G37*
%TD.AperFunction*%
%TD*%
%TO.P,C8,2*%
%TO.N,GND*%
%TA.AperFunction,SMDPad,CuDef*%
G36*
G01*
X108015000Y-63240000D02*
X108965000Y-63240000D01*
G75*
G02*
X109215000Y-63490000I0J-250000D01*
G01*
X109215000Y-63990000D01*
G75*
G02*
X108965000Y-64240000I-250000J0D01*
G01*
X108015000Y-64240000D01*
G75*
G02*
X107765000Y-63990000I0J250000D01*
G01*
X107765000Y-63490000D01*
G75*
G02*
X108015000Y-63240000I250000J0D01*
G01*
G37*
%TD.AperFunction*%
%TO.P,C8,1*%
%TO.N,+3V3*%
%TA.AperFunction,SMDPad,CuDef*%
G36*
G01*
X108015000Y-61340000D02*
X108965000Y-61340000D01*
G75*
G02*
X109215000Y-61590000I0J-250000D01*
G01*
X109215000Y-62090000D01*
G75*
G02*
X108965000Y-62340000I-250000J0D01*
G01*
X108015000Y-62340000D01*
G75*
G02*
X107765000Y-62090000I0J250000D01*
G01*
X107765000Y-61590000D01*
G75*
G02*
X108015000Y-61340000I250000J0D01*
G01*
G37*
%TD.AperFunction*%
%TD*%
%TO.P,C6,2*%
%TO.N,GND*%
%TA.AperFunction,SMDPad,CuDef*%
G36*
G01*
X109490000Y-51830000D02*
X109830000Y-51830000D01*
G75*
G02*
X109970000Y-51970000I0J-140000D01*
G01*
X109970000Y-52250000D01*
G75*
G02*
X109830000Y-52390000I-140000J0D01*
G01*
X109490000Y-52390000D01*
G75*
G02*
X109350000Y-52250000I0J140000D01*
G01*
X109350000Y-51970000D01*
G75*
G02*
X109490000Y-51830000I140000J0D01*
G01*
G37*
%TD.AperFunction*%
%TO.P,C6,1*%
%TO.N,+5V*%
%TA.AperFunction,SMDPad,CuDef*%
G36*
G01*
X109490000Y-50870000D02*
X109830000Y-50870000D01*
G75*
G02*
X109970000Y-51010000I0J-140000D01*
G01*
X109970000Y-51290000D01*
G75*
G02*
X109830000Y-51430000I-140000J0D01*
G01*
X109490000Y-51430000D01*
G75*
G02*
X109350000Y-51290000I0J140000D01*
G01*
X109350000Y-51010000D01*
G75*
G02*
X109490000Y-50870000I140000J0D01*
G01*
G37*
%TD.AperFunction*%
%TD*%
%TO.P,C2,2*%
%TO.N,GND*%
%TA.AperFunction,SMDPad,CuDef*%
G36*
G01*
X112640000Y-53410000D02*
X112640000Y-53750000D01*
G75*
G02*
X112500000Y-53890000I-140000J0D01*
G01*
X112220000Y-53890000D01*
G75*
G02*
X112080000Y-53750000I0J140000D01*
G01*
X112080000Y-53410000D01*
G75*
G02*
X112220000Y-53270000I140000J0D01*
G01*
X112500000Y-53270000D01*
G75*
G02*
X112640000Y-53410000I0J-140000D01*
G01*
G37*
%TD.AperFunction*%
%TO.P,C2,1*%
%TO.N,+3V3*%
%TA.AperFunction,SMDPad,CuDef*%
G36*
G01*
X113600000Y-53410000D02*
X113600000Y-53750000D01*
G75*
G02*
X113460000Y-53890000I-140000J0D01*
G01*
X113180000Y-53890000D01*
G75*
G02*
X113040000Y-53750000I0J140000D01*
G01*
X113040000Y-53410000D01*
G75*
G02*
X113180000Y-53270000I140000J0D01*
G01*
X113460000Y-53270000D01*
G75*
G02*
X113600000Y-53410000I0J-140000D01*
G01*
G37*
%TD.AperFunction*%
%TD*%
%TO.P,C1,2*%
%TO.N,GND*%
%TA.AperFunction,SMDPad,CuDef*%
G36*
G01*
X119930000Y-55870000D02*
X119930000Y-56210000D01*
G75*
G02*
X119790000Y-56350000I-140000J0D01*
G01*
X119510000Y-56350000D01*
G75*
G02*
X119370000Y-56210000I0J140000D01*
G01*
X119370000Y-55870000D01*
G75*
G02*
X119510000Y-55730000I140000J0D01*
G01*
X119790000Y-55730000D01*
G75*
G02*
X119930000Y-55870000I0J-140000D01*
G01*
G37*
%TD.AperFunction*%
%TO.P,C1,1*%
%TO.N,+3V3*%
%TA.AperFunction,SMDPad,CuDef*%
G36*
G01*
X120890000Y-55870000D02*
X120890000Y-56210000D01*
G75*
G02*
X120750000Y-56350000I-140000J0D01*
G01*
X120470000Y-56350000D01*
G75*
G02*
X120330000Y-56210000I0J140000D01*
G01*
X120330000Y-55870000D01*
G75*
G02*
X120470000Y-55730000I140000J0D01*
G01*
X120750000Y-55730000D01*
G75*
G02*
X120890000Y-55870000I0J-140000D01*
G01*
G37*
%TD.AperFunction*%
%TD*%
D19*
%TO.N,GND*%
X120890000Y-51150000D03*
X128720000Y-54310000D03*
X109460000Y-68920000D03*
X107700000Y-55000000D03*
X105420000Y-63920000D03*
X118340000Y-56060000D03*
%TO.N,+3V3*%
X118520000Y-54410000D03*
X120970000Y-65400000D03*
X105480000Y-55110000D03*
X103940000Y-67420000D03*
%TO.N,+5V*%
X124440000Y-52130000D03*
X119467831Y-50882169D03*
X119537169Y-53072831D03*
%TO.N,U0RXD*%
X112290000Y-62690000D03*
%TO.N,U0TXD*%
X112290000Y-64330000D03*
%TD*%
D20*
%TO.N,GND*%
X128995000Y-51825000D02*
X128995000Y-52800000D01*
X111242500Y-53580000D02*
X110790000Y-54032500D01*
X112360000Y-53580000D02*
X111242500Y-53580000D01*
X124769992Y-67279992D02*
X125550000Y-68060000D01*
X122389950Y-67279992D02*
X124769992Y-67279992D01*
X122389950Y-66479892D02*
X122389950Y-67279992D01*
X109739990Y-57579988D02*
X109739990Y-55082510D01*
X109739990Y-55082510D02*
X110790000Y-54032500D01*
X110490050Y-58330048D02*
X109739990Y-57579988D01*
X110790000Y-53240000D02*
X109660000Y-52110000D01*
X110790000Y-54032500D02*
X110790000Y-53240000D01*
X107380000Y-52110000D02*
X107280000Y-52210000D01*
X122449958Y-59220000D02*
X122389950Y-59280008D01*
X124350000Y-59220000D02*
X122449958Y-59220000D01*
X122389950Y-59280008D02*
X122389950Y-58330048D01*
X116439746Y-65255358D02*
X116440000Y-65255104D01*
X114464896Y-65255104D02*
X114464896Y-61304896D01*
X114464896Y-61304896D02*
X118415104Y-61304896D01*
X118415104Y-65254952D02*
X118415028Y-65255028D01*
X118415104Y-61304896D02*
X118415104Y-65254952D01*
X114464972Y-65255028D02*
X114464896Y-65255104D01*
X118415028Y-65255028D02*
X114464972Y-65255028D01*
X114464896Y-63280000D02*
X118415104Y-63280000D01*
X116440000Y-61304896D02*
X116440000Y-65255104D01*
X119640146Y-60079854D02*
X118415104Y-61304896D01*
X119640146Y-58330048D02*
X119640146Y-60079854D01*
X121450000Y-51710000D02*
X120890000Y-51150000D01*
X122202500Y-51710000D02*
X121450000Y-51710000D01*
X128995000Y-54035000D02*
X128720000Y-54310000D01*
X128995000Y-51825000D02*
X128995000Y-54035000D01*
X128567500Y-54462500D02*
X128720000Y-54310000D01*
X122890000Y-54462500D02*
X128567500Y-54462500D01*
X122389950Y-58330048D02*
X122389950Y-57849950D01*
X122389950Y-57849950D02*
X121870000Y-57330000D01*
X119640146Y-57680049D02*
X119640146Y-58330048D01*
X121870000Y-57330000D02*
X119990195Y-57330000D01*
X112500000Y-49244988D02*
X112500000Y-49000000D01*
X114170010Y-50350010D02*
X113605022Y-50350010D01*
X115930000Y-52110000D02*
X114170010Y-50350010D01*
X113605022Y-50350010D02*
X112500000Y-49244988D01*
X115930000Y-52430000D02*
X115930000Y-52110000D01*
X112370000Y-53570000D02*
X112360000Y-53580000D01*
X112370000Y-52530000D02*
X112370000Y-53570000D01*
X119650000Y-57160000D02*
X119905097Y-57415097D01*
X119905097Y-57415097D02*
X119640146Y-57680049D01*
X119650000Y-56040000D02*
X119650000Y-57160000D01*
X119990195Y-57330000D02*
X119905097Y-57415097D01*
X110150048Y-68229952D02*
X109460000Y-68920000D01*
X110490050Y-68229952D02*
X110150048Y-68229952D01*
D21*
X107780000Y-54920000D02*
X107700000Y-55000000D01*
X107780000Y-52260000D02*
X107780000Y-54920000D01*
D22*
X108490000Y-63740000D02*
X107250000Y-64980000D01*
X105660000Y-64980000D02*
X105400000Y-65240000D01*
X107250000Y-64980000D02*
X105660000Y-64980000D01*
X108530000Y-66330000D02*
X108530000Y-65920000D01*
X107850000Y-65240000D02*
X105400000Y-65240000D01*
X108530000Y-65920000D02*
X107850000Y-65240000D01*
D23*
X105400000Y-63940000D02*
X105420000Y-63920000D01*
X105400000Y-65240000D02*
X105400000Y-63940000D01*
D20*
X107930000Y-52110000D02*
X107780000Y-52260000D01*
X109660000Y-52110000D02*
X107930000Y-52110000D01*
X109175010Y-66975010D02*
X108530000Y-66330000D01*
X109175010Y-67564911D02*
X109175010Y-66975010D01*
X109840051Y-68229952D02*
X109175010Y-67564911D01*
X110490050Y-68229952D02*
X109840051Y-68229952D01*
X118360000Y-56040000D02*
X118340000Y-56060000D01*
X119650000Y-56040000D02*
X118360000Y-56040000D01*
X110490050Y-68229952D02*
X121239838Y-68229952D01*
%TO.N,+3V3*%
X104550000Y-58940000D02*
X104980000Y-58510000D01*
X122220000Y-56040000D02*
X120610000Y-56040000D01*
X125370000Y-59190000D02*
X122220000Y-56040000D01*
X113330000Y-53570000D02*
X113320000Y-53580000D01*
X113330000Y-52530000D02*
X113330000Y-53570000D01*
X113320000Y-54530000D02*
X113390000Y-54600000D01*
X113320000Y-53580000D02*
X113320000Y-54530000D01*
X119734990Y-54854990D02*
X120610000Y-55730000D01*
X120610000Y-55730000D02*
X120610000Y-56040000D01*
X113390000Y-54600000D02*
X113644990Y-54854990D01*
X118475010Y-54854990D02*
X118475010Y-54454990D01*
X118475010Y-54454990D02*
X118520000Y-54410000D01*
X113644990Y-54854990D02*
X118475010Y-54854990D01*
X118475010Y-54854990D02*
X119734990Y-54854990D01*
X121250046Y-65680046D02*
X120970000Y-65400000D01*
X122389950Y-65680046D02*
X121250046Y-65680046D01*
D21*
X105480000Y-54620000D02*
X105480000Y-55110000D01*
X105480000Y-52260000D02*
X105480000Y-54620000D01*
X105480000Y-54620000D02*
X105480000Y-58560000D01*
X105400000Y-58640000D02*
X105480000Y-58560000D01*
X105400000Y-61140000D02*
X105400000Y-58640000D01*
D22*
X106100000Y-61840000D02*
X105400000Y-61140000D01*
X108490000Y-61840000D02*
X106100000Y-61840000D01*
X103960000Y-67400000D02*
X103940000Y-67420000D01*
X104732500Y-67400000D02*
X103960000Y-67400000D01*
D20*
%TO.N,+5V*%
X123012510Y-55474990D02*
X126424990Y-55474990D01*
X126424990Y-55474990D02*
X127725000Y-56775000D01*
X122890000Y-55597500D02*
X123012510Y-55474990D01*
X124745000Y-51825000D02*
X124440000Y-52130000D01*
X125185000Y-51825000D02*
X124745000Y-51825000D01*
X126455000Y-56775000D02*
X126615000Y-56775000D01*
X126615000Y-56775000D02*
X127725000Y-56775000D01*
X121315662Y-52730000D02*
X119467831Y-50882169D01*
X122182500Y-52730000D02*
X121315662Y-52730000D01*
X122054329Y-55589991D02*
X119537169Y-53072831D01*
X122882491Y-55589991D02*
X122054329Y-55589991D01*
X122890000Y-55597500D02*
X122882491Y-55589991D01*
D21*
X107500000Y-49760000D02*
X107500000Y-49000000D01*
X106844490Y-50415510D02*
X107500000Y-49760000D01*
D24*
X108614714Y-50326610D02*
X107500000Y-49211896D01*
X109116610Y-50326610D02*
X108614714Y-50326610D01*
X107500000Y-49211896D02*
X107500000Y-49000000D01*
X109660000Y-50870000D02*
X109116610Y-50326610D01*
X109660000Y-51150000D02*
X109660000Y-50870000D01*
D21*
X103643490Y-50415510D02*
X103180000Y-50879000D01*
X103180000Y-50879000D02*
X103180000Y-52260000D01*
X106844490Y-50415510D02*
X103643490Y-50415510D01*
D20*
%TO.N,GPIO4*%
X116440000Y-58330048D02*
X116440000Y-55667500D01*
D22*
%TO.N,Net-(D1-Pad1)*%
X108480000Y-67400000D02*
X108530000Y-67350000D01*
X106607500Y-67400000D02*
X108480000Y-67400000D01*
D20*
%TO.N,Net-(D2-Pad1)*%
X116950000Y-53282500D02*
X116440000Y-53792500D01*
X116950000Y-52430000D02*
X116950000Y-53282500D01*
%TO.N,/GPIO9*%
X111987500Y-56107500D02*
X110790000Y-56107500D01*
X112440008Y-56560008D02*
X111987500Y-56107500D01*
X112440008Y-58330048D02*
X112440008Y-56560008D01*
%TO.N,/CHIP_PU*%
X122389950Y-61680054D02*
X123319946Y-61680054D01*
X124350000Y-60650000D02*
X124350000Y-60180000D01*
X123319946Y-61680054D02*
X124350000Y-60650000D01*
X125340000Y-60180000D02*
X125370000Y-60210000D01*
X124350000Y-60180000D02*
X125340000Y-60180000D01*
%TO.N,/GPIO8*%
X113240108Y-55769892D02*
X113390000Y-55620000D01*
X113240108Y-58330048D02*
X113240108Y-55769892D01*
%TO.N,B*%
X126129990Y-50524990D02*
X124582510Y-50524990D01*
X124582510Y-50524990D02*
X123397500Y-51710000D01*
X126455000Y-50850000D02*
X126129990Y-50524990D01*
X126455000Y-51825000D02*
X126455000Y-50850000D01*
D22*
X123397500Y-50177844D02*
X123374990Y-50155334D01*
X123397500Y-51710000D02*
X123397500Y-50177844D01*
X123374990Y-49874990D02*
X122500000Y-49000000D01*
X123374990Y-50155334D02*
X123374990Y-49874990D01*
D20*
%TO.N,A*%
X127399990Y-53125010D02*
X123772510Y-53125010D01*
X123772510Y-53125010D02*
X123377500Y-52730000D01*
X127725000Y-52800000D02*
X127399990Y-53125010D01*
X127725000Y-51825000D02*
X127725000Y-52800000D01*
D22*
X117500000Y-49975000D02*
X117500000Y-49000000D01*
X122707490Y-53400010D02*
X120925010Y-53400010D01*
X120925010Y-53400010D02*
X117500000Y-49975000D01*
X123377500Y-52730000D02*
X122707490Y-53400010D01*
D20*
%TO.N,U0RXD*%
X124374999Y-64344999D02*
X125550000Y-65520000D01*
X126015010Y-58864456D02*
X126015010Y-60775988D01*
X124374999Y-62415999D02*
X124374999Y-64344999D01*
X126015010Y-60775988D02*
X124374999Y-62415999D01*
X125185000Y-58034446D02*
X126015010Y-58864456D01*
X125185000Y-56775000D02*
X125185000Y-58034446D01*
X111700000Y-63280000D02*
X112290000Y-62690000D01*
X110490050Y-63280000D02*
X111700000Y-63280000D01*
%TO.N,U0TXD*%
X112039846Y-64079846D02*
X112290000Y-64330000D01*
X110490050Y-64079846D02*
X112039846Y-64079846D01*
D22*
X126490020Y-62039980D02*
X125550000Y-62980000D01*
X126490020Y-58479636D02*
X126490020Y-62039980D01*
X126844666Y-58124990D02*
X126490020Y-58479636D01*
X128620010Y-58124990D02*
X126844666Y-58124990D01*
X128995000Y-57750000D02*
X128620010Y-58124990D01*
X128995000Y-56775000D02*
X128995000Y-57750000D01*
%TD*%
D25*
%TO.N,+5V*%
X108498000Y-49877502D02*
X106502000Y-49857997D01*
X106502000Y-42752000D01*
X108498001Y-42752000D01*
X108498000Y-49877502D01*
%TA.AperFunction,Conductor*%
D26*
G36*
X108498000Y-49877502D02*
G01*
X106502000Y-49857997D01*
X106502000Y-42752000D01*
X108498001Y-42752000D01*
X108498000Y-49877502D01*
G37*
%TD.AperFunction*%
%TD*%
D25*
%TO.N,GND*%
X113498000Y-49793919D02*
X111502000Y-49761726D01*
X111502000Y-42752000D01*
X113498001Y-42752000D01*
X113498000Y-49793919D01*
%TA.AperFunction,Conductor*%
D26*
G36*
X113498000Y-49793919D02*
G01*
X111502000Y-49761726D01*
X111502000Y-42752000D01*
X113498001Y-42752000D01*
X113498000Y-49793919D01*
G37*
%TD.AperFunction*%
%TD*%
D25*
%TO.N,A*%
X118498001Y-49844469D02*
X116502000Y-49809936D01*
X116502000Y-42752000D01*
X118498000Y-42752000D01*
X118498001Y-49844469D01*
%TA.AperFunction,Conductor*%
D26*
G36*
X118498001Y-49844469D02*
G01*
X116502000Y-49809936D01*
X116502000Y-42752000D01*
X118498000Y-42752000D01*
X118498001Y-49844469D01*
G37*
%TD.AperFunction*%
%TD*%
D25*
%TO.N,B*%
X123498001Y-49854349D02*
X121502000Y-49819332D01*
X121502000Y-42752000D01*
X123498000Y-42752000D01*
X123498001Y-49854349D01*
%TA.AperFunction,Conductor*%
D26*
G36*
X123498001Y-49854349D02*
G01*
X121502000Y-49819332D01*
X121502000Y-42752000D01*
X123498000Y-42752000D01*
X123498001Y-49854349D01*
G37*
%TD.AperFunction*%
%TD*%
M02*
