%TF.GenerationSoftware,KiCad,Pcbnew,(5.1.12-1-10_14)*%
%TF.CreationDate,2022-02-21T12:57:33+08:00*%
%TF.ProjectId,esp32-c3_ddsu666,65737033-322d-4633-935f-646473753636,rev?*%
%TF.SameCoordinates,Original*%
%TF.FileFunction,Copper,L3,Inr*%
%TF.FilePolarity,Positive*%
%FSLAX46Y46*%
G04 Gerber Fmt 4.6, Leading zero omitted, Abs format (unit mm)*
G04 Created by KiCad (PCBNEW (5.1.12-1-10_14)) date 2022-02-21 12:57:33*
%MOMM*%
%LPD*%
G01*
G04 APERTURE LIST*
%TA.AperFunction,ComponentPad*%
%ADD10O,1.700000X1.700000*%
%TD*%
%TA.AperFunction,ComponentPad*%
%ADD11R,1.700000X1.700000*%
%TD*%
%TA.AperFunction,ComponentPad*%
%ADD12R,1.350000X1.350000*%
%TD*%
%TA.AperFunction,ViaPad*%
%ADD13C,0.800000*%
%TD*%
%TA.AperFunction,Conductor*%
%ADD14C,0.254000*%
%TD*%
%TA.AperFunction,Conductor*%
%ADD15C,0.100000*%
%TD*%
G04 APERTURE END LIST*
D10*
%TO.N,U0TXD*%
%TO.C,J2*%
X125550000Y-62980000D03*
%TO.N,U0RXD*%
X125550000Y-65520000D03*
D11*
%TO.N,GND*%
X125550000Y-68060000D03*
%TD*%
D12*
%TO.N,B*%
%TO.C,J5*%
X122500000Y-49000000D03*
%TD*%
%TO.N,A*%
%TO.C,J4*%
X117500000Y-49000000D03*
%TD*%
%TO.N,GND*%
%TO.C,J3*%
X112500000Y-49000000D03*
%TD*%
%TO.N,+5V*%
%TO.C,J1*%
X107500000Y-49000000D03*
%TD*%
D13*
%TO.N,GND*%
X120890000Y-51150000D03*
X128720000Y-54310000D03*
X109460000Y-68920000D03*
X107700000Y-55000000D03*
X105420000Y-63920000D03*
X118340000Y-56060000D03*
%TO.N,+3V3*%
X118520000Y-54410000D03*
X120970000Y-65400000D03*
X105480000Y-55110000D03*
X103940000Y-67420000D03*
%TO.N,+5V*%
X124440000Y-52130000D03*
X119467831Y-50882169D03*
X119537169Y-53072831D03*
%TO.N,U0RXD*%
X112290000Y-62690000D03*
%TO.N,U0TXD*%
X112290000Y-64330000D03*
%TD*%
D14*
%TO.N,GND*%
X113498000Y-49987624D02*
X113496781Y-50000000D01*
X113501647Y-50049401D01*
X113516056Y-50096903D01*
X113539456Y-50140681D01*
X113570947Y-50179053D01*
X113609319Y-50210544D01*
X113653097Y-50233944D01*
X113700599Y-50248353D01*
X113750000Y-50253219D01*
X113762375Y-50252000D01*
X116237624Y-50252000D01*
X116250000Y-50253219D01*
X116262375Y-50252000D01*
X116262376Y-50252000D01*
X116299401Y-50248353D01*
X116346903Y-50233944D01*
X116390681Y-50210544D01*
X116429053Y-50179053D01*
X116460544Y-50140681D01*
X116483944Y-50096903D01*
X116498353Y-50049401D01*
X116503219Y-50000000D01*
X116502000Y-49987624D01*
X116502000Y-49731671D01*
X116502732Y-49739103D01*
X116521430Y-49800743D01*
X116551794Y-49857550D01*
X116592657Y-49907343D01*
X116642450Y-49948206D01*
X116699257Y-49978570D01*
X116760897Y-49997268D01*
X116825000Y-50003582D01*
X118175000Y-50003582D01*
X118239103Y-49997268D01*
X118300743Y-49978570D01*
X118357550Y-49948206D01*
X118407343Y-49907343D01*
X118448206Y-49857550D01*
X118478570Y-49800743D01*
X118497268Y-49739103D01*
X118498001Y-49731662D01*
X118498001Y-49987614D01*
X118496781Y-50000000D01*
X118501647Y-50049401D01*
X118516056Y-50096903D01*
X118539456Y-50140681D01*
X118570947Y-50179053D01*
X118609319Y-50210544D01*
X118653097Y-50233944D01*
X118700599Y-50248353D01*
X118737624Y-50252000D01*
X118737625Y-50252000D01*
X118750000Y-50253219D01*
X118762376Y-50252000D01*
X119102380Y-50252000D01*
X119004395Y-50317471D01*
X118903133Y-50418733D01*
X118823572Y-50537805D01*
X118768769Y-50670111D01*
X118740831Y-50810566D01*
X118740831Y-50953772D01*
X118768769Y-51094227D01*
X118823572Y-51226533D01*
X118903133Y-51345605D01*
X119004395Y-51446867D01*
X119123467Y-51526428D01*
X119255773Y-51581231D01*
X119396228Y-51609169D01*
X119539434Y-51609169D01*
X119679889Y-51581231D01*
X119812195Y-51526428D01*
X119931267Y-51446867D01*
X120032529Y-51345605D01*
X120112090Y-51226533D01*
X120166893Y-51094227D01*
X120194831Y-50953772D01*
X120194831Y-50810566D01*
X120166893Y-50670111D01*
X120112090Y-50537805D01*
X120032529Y-50418733D01*
X119931267Y-50317471D01*
X119833282Y-50252000D01*
X121237624Y-50252000D01*
X121250000Y-50253219D01*
X121262375Y-50252000D01*
X121262376Y-50252000D01*
X121299401Y-50248353D01*
X121346903Y-50233944D01*
X121390681Y-50210544D01*
X121429053Y-50179053D01*
X121460544Y-50140681D01*
X121483944Y-50096903D01*
X121498353Y-50049401D01*
X121503219Y-50000000D01*
X121502000Y-49987624D01*
X121502000Y-49731671D01*
X121502732Y-49739103D01*
X121521430Y-49800743D01*
X121551794Y-49857550D01*
X121592657Y-49907343D01*
X121642450Y-49948206D01*
X121699257Y-49978570D01*
X121760897Y-49997268D01*
X121825000Y-50003582D01*
X123175000Y-50003582D01*
X123239103Y-49997268D01*
X123300743Y-49978570D01*
X123357550Y-49948206D01*
X123407343Y-49907343D01*
X123448206Y-49857550D01*
X123478570Y-49800743D01*
X123497268Y-49739103D01*
X123498001Y-49731662D01*
X123498001Y-49987614D01*
X123496781Y-50000000D01*
X123501647Y-50049401D01*
X123516056Y-50096903D01*
X123539456Y-50140681D01*
X123570947Y-50179053D01*
X123609319Y-50210544D01*
X123653097Y-50233944D01*
X123700599Y-50248353D01*
X123737624Y-50252000D01*
X123737625Y-50252000D01*
X123750000Y-50253219D01*
X123762376Y-50252000D01*
X129748000Y-50252000D01*
X129748001Y-58248000D01*
X127012375Y-58248000D01*
X127000000Y-58246781D01*
X126987624Y-58248000D01*
X126950599Y-58251647D01*
X126903097Y-58266056D01*
X126859319Y-58289456D01*
X126820947Y-58320947D01*
X126789456Y-58359319D01*
X126766056Y-58403097D01*
X126751647Y-58450599D01*
X126746781Y-58500000D01*
X126748000Y-58512375D01*
X126748001Y-68311573D01*
X103252000Y-68352710D01*
X103252000Y-67658764D01*
X103295741Y-67764364D01*
X103375302Y-67883436D01*
X103476564Y-67984698D01*
X103595636Y-68064259D01*
X103727942Y-68119062D01*
X103868397Y-68147000D01*
X104011603Y-68147000D01*
X104152058Y-68119062D01*
X104284364Y-68064259D01*
X104403436Y-67984698D01*
X104504698Y-67883436D01*
X104584259Y-67764364D01*
X104639062Y-67632058D01*
X104667000Y-67491603D01*
X104667000Y-67348397D01*
X104639062Y-67207942D01*
X104584259Y-67075636D01*
X104504698Y-66956564D01*
X104403436Y-66855302D01*
X104284364Y-66775741D01*
X104152058Y-66720938D01*
X104011603Y-66693000D01*
X103868397Y-66693000D01*
X103727942Y-66720938D01*
X103595636Y-66775741D01*
X103476564Y-66855302D01*
X103375302Y-66956564D01*
X103295741Y-67075636D01*
X103252000Y-67181236D01*
X103252000Y-65328397D01*
X120243000Y-65328397D01*
X120243000Y-65471603D01*
X120270938Y-65612058D01*
X120325741Y-65744364D01*
X120405302Y-65863436D01*
X120506564Y-65964698D01*
X120625636Y-66044259D01*
X120757942Y-66099062D01*
X120898397Y-66127000D01*
X121041603Y-66127000D01*
X121182058Y-66099062D01*
X121314364Y-66044259D01*
X121433436Y-65964698D01*
X121534698Y-65863436D01*
X121614259Y-65744364D01*
X121669062Y-65612058D01*
X121697000Y-65471603D01*
X121697000Y-65404076D01*
X124373000Y-65404076D01*
X124373000Y-65635924D01*
X124418231Y-65863318D01*
X124506956Y-66077519D01*
X124635764Y-66270294D01*
X124799706Y-66434236D01*
X124992481Y-66563044D01*
X125206682Y-66651769D01*
X125434076Y-66697000D01*
X125665924Y-66697000D01*
X125893318Y-66651769D01*
X126107519Y-66563044D01*
X126300294Y-66434236D01*
X126464236Y-66270294D01*
X126593044Y-66077519D01*
X126681769Y-65863318D01*
X126727000Y-65635924D01*
X126727000Y-65404076D01*
X126681769Y-65176682D01*
X126593044Y-64962481D01*
X126464236Y-64769706D01*
X126300294Y-64605764D01*
X126107519Y-64476956D01*
X125893318Y-64388231D01*
X125665924Y-64343000D01*
X125434076Y-64343000D01*
X125206682Y-64388231D01*
X124992481Y-64476956D01*
X124799706Y-64605764D01*
X124635764Y-64769706D01*
X124506956Y-64962481D01*
X124418231Y-65176682D01*
X124373000Y-65404076D01*
X121697000Y-65404076D01*
X121697000Y-65328397D01*
X121669062Y-65187942D01*
X121614259Y-65055636D01*
X121534698Y-64936564D01*
X121433436Y-64835302D01*
X121314364Y-64755741D01*
X121182058Y-64700938D01*
X121041603Y-64673000D01*
X120898397Y-64673000D01*
X120757942Y-64700938D01*
X120625636Y-64755741D01*
X120506564Y-64835302D01*
X120405302Y-64936564D01*
X120325741Y-65055636D01*
X120270938Y-65187942D01*
X120243000Y-65328397D01*
X103252000Y-65328397D01*
X103252000Y-64258397D01*
X111563000Y-64258397D01*
X111563000Y-64401603D01*
X111590938Y-64542058D01*
X111645741Y-64674364D01*
X111725302Y-64793436D01*
X111826564Y-64894698D01*
X111945636Y-64974259D01*
X112077942Y-65029062D01*
X112218397Y-65057000D01*
X112361603Y-65057000D01*
X112502058Y-65029062D01*
X112634364Y-64974259D01*
X112753436Y-64894698D01*
X112854698Y-64793436D01*
X112934259Y-64674364D01*
X112989062Y-64542058D01*
X113017000Y-64401603D01*
X113017000Y-64258397D01*
X112989062Y-64117942D01*
X112934259Y-63985636D01*
X112854698Y-63866564D01*
X112753436Y-63765302D01*
X112634364Y-63685741D01*
X112502058Y-63630938D01*
X112361603Y-63603000D01*
X112218397Y-63603000D01*
X112077942Y-63630938D01*
X111945636Y-63685741D01*
X111826564Y-63765302D01*
X111725302Y-63866564D01*
X111645741Y-63985636D01*
X111590938Y-64117942D01*
X111563000Y-64258397D01*
X103252000Y-64258397D01*
X103252000Y-62618397D01*
X111563000Y-62618397D01*
X111563000Y-62761603D01*
X111590938Y-62902058D01*
X111645741Y-63034364D01*
X111725302Y-63153436D01*
X111826564Y-63254698D01*
X111945636Y-63334259D01*
X112077942Y-63389062D01*
X112218397Y-63417000D01*
X112361603Y-63417000D01*
X112502058Y-63389062D01*
X112634364Y-63334259D01*
X112753436Y-63254698D01*
X112854698Y-63153436D01*
X112934259Y-63034364D01*
X112989062Y-62902058D01*
X112996617Y-62864076D01*
X124373000Y-62864076D01*
X124373000Y-63095924D01*
X124418231Y-63323318D01*
X124506956Y-63537519D01*
X124635764Y-63730294D01*
X124799706Y-63894236D01*
X124992481Y-64023044D01*
X125206682Y-64111769D01*
X125434076Y-64157000D01*
X125665924Y-64157000D01*
X125893318Y-64111769D01*
X126107519Y-64023044D01*
X126300294Y-63894236D01*
X126464236Y-63730294D01*
X126593044Y-63537519D01*
X126681769Y-63323318D01*
X126727000Y-63095924D01*
X126727000Y-62864076D01*
X126681769Y-62636682D01*
X126593044Y-62422481D01*
X126464236Y-62229706D01*
X126300294Y-62065764D01*
X126107519Y-61936956D01*
X125893318Y-61848231D01*
X125665924Y-61803000D01*
X125434076Y-61803000D01*
X125206682Y-61848231D01*
X124992481Y-61936956D01*
X124799706Y-62065764D01*
X124635764Y-62229706D01*
X124506956Y-62422481D01*
X124418231Y-62636682D01*
X124373000Y-62864076D01*
X112996617Y-62864076D01*
X113017000Y-62761603D01*
X113017000Y-62618397D01*
X112989062Y-62477942D01*
X112934259Y-62345636D01*
X112854698Y-62226564D01*
X112753436Y-62125302D01*
X112634364Y-62045741D01*
X112502058Y-61990938D01*
X112361603Y-61963000D01*
X112218397Y-61963000D01*
X112077942Y-61990938D01*
X111945636Y-62045741D01*
X111826564Y-62125302D01*
X111725302Y-62226564D01*
X111645741Y-62345636D01*
X111590938Y-62477942D01*
X111563000Y-62618397D01*
X103252000Y-62618397D01*
X103252000Y-58512375D01*
X103253219Y-58500000D01*
X103248353Y-58450599D01*
X103233944Y-58403097D01*
X103210544Y-58359319D01*
X103179053Y-58320947D01*
X103140681Y-58289456D01*
X103096903Y-58266056D01*
X103049401Y-58251647D01*
X103012376Y-58248000D01*
X103000000Y-58246781D01*
X102987625Y-58248000D01*
X100252000Y-58248000D01*
X100252000Y-55038397D01*
X104753000Y-55038397D01*
X104753000Y-55181603D01*
X104780938Y-55322058D01*
X104835741Y-55454364D01*
X104915302Y-55573436D01*
X105016564Y-55674698D01*
X105135636Y-55754259D01*
X105267942Y-55809062D01*
X105408397Y-55837000D01*
X105551603Y-55837000D01*
X105692058Y-55809062D01*
X105824364Y-55754259D01*
X105943436Y-55674698D01*
X106044698Y-55573436D01*
X106124259Y-55454364D01*
X106179062Y-55322058D01*
X106207000Y-55181603D01*
X106207000Y-55038397D01*
X106179062Y-54897942D01*
X106124259Y-54765636D01*
X106044698Y-54646564D01*
X105943436Y-54545302D01*
X105824364Y-54465741D01*
X105692058Y-54410938D01*
X105551603Y-54383000D01*
X105408397Y-54383000D01*
X105267942Y-54410938D01*
X105135636Y-54465741D01*
X105016564Y-54545302D01*
X104915302Y-54646564D01*
X104835741Y-54765636D01*
X104780938Y-54897942D01*
X104753000Y-55038397D01*
X100252000Y-55038397D01*
X100252000Y-54338397D01*
X117793000Y-54338397D01*
X117793000Y-54481603D01*
X117820938Y-54622058D01*
X117875741Y-54754364D01*
X117955302Y-54873436D01*
X118056564Y-54974698D01*
X118175636Y-55054259D01*
X118307942Y-55109062D01*
X118448397Y-55137000D01*
X118591603Y-55137000D01*
X118732058Y-55109062D01*
X118864364Y-55054259D01*
X118983436Y-54974698D01*
X119084698Y-54873436D01*
X119164259Y-54754364D01*
X119219062Y-54622058D01*
X119247000Y-54481603D01*
X119247000Y-54338397D01*
X119219062Y-54197942D01*
X119164259Y-54065636D01*
X119084698Y-53946564D01*
X118983436Y-53845302D01*
X118864364Y-53765741D01*
X118732058Y-53710938D01*
X118591603Y-53683000D01*
X118448397Y-53683000D01*
X118307942Y-53710938D01*
X118175636Y-53765741D01*
X118056564Y-53845302D01*
X117955302Y-53946564D01*
X117875741Y-54065636D01*
X117820938Y-54197942D01*
X117793000Y-54338397D01*
X100252000Y-54338397D01*
X100252000Y-53001228D01*
X118810169Y-53001228D01*
X118810169Y-53144434D01*
X118838107Y-53284889D01*
X118892910Y-53417195D01*
X118972471Y-53536267D01*
X119073733Y-53637529D01*
X119192805Y-53717090D01*
X119325111Y-53771893D01*
X119465566Y-53799831D01*
X119608772Y-53799831D01*
X119749227Y-53771893D01*
X119881533Y-53717090D01*
X120000605Y-53637529D01*
X120101867Y-53536267D01*
X120181428Y-53417195D01*
X120236231Y-53284889D01*
X120264169Y-53144434D01*
X120264169Y-53001228D01*
X120236231Y-52860773D01*
X120181428Y-52728467D01*
X120101867Y-52609395D01*
X120000605Y-52508133D01*
X119881533Y-52428572D01*
X119749227Y-52373769D01*
X119608772Y-52345831D01*
X119465566Y-52345831D01*
X119325111Y-52373769D01*
X119192805Y-52428572D01*
X119073733Y-52508133D01*
X118972471Y-52609395D01*
X118892910Y-52728467D01*
X118838107Y-52860773D01*
X118810169Y-53001228D01*
X100252000Y-53001228D01*
X100252000Y-52058397D01*
X123713000Y-52058397D01*
X123713000Y-52201603D01*
X123740938Y-52342058D01*
X123795741Y-52474364D01*
X123875302Y-52593436D01*
X123976564Y-52694698D01*
X124095636Y-52774259D01*
X124227942Y-52829062D01*
X124368397Y-52857000D01*
X124511603Y-52857000D01*
X124652058Y-52829062D01*
X124784364Y-52774259D01*
X124903436Y-52694698D01*
X125004698Y-52593436D01*
X125084259Y-52474364D01*
X125139062Y-52342058D01*
X125167000Y-52201603D01*
X125167000Y-52058397D01*
X125139062Y-51917942D01*
X125084259Y-51785636D01*
X125004698Y-51666564D01*
X124903436Y-51565302D01*
X124784364Y-51485741D01*
X124652058Y-51430938D01*
X124511603Y-51403000D01*
X124368397Y-51403000D01*
X124227942Y-51430938D01*
X124095636Y-51485741D01*
X123976564Y-51565302D01*
X123875302Y-51666564D01*
X123795741Y-51785636D01*
X123740938Y-51917942D01*
X123713000Y-52058397D01*
X100252000Y-52058397D01*
X100252000Y-50252000D01*
X106237625Y-50252000D01*
X106250000Y-50253219D01*
X106299401Y-50248353D01*
X106346903Y-50233944D01*
X106390681Y-50210544D01*
X106429053Y-50179053D01*
X106460544Y-50140681D01*
X106483944Y-50096903D01*
X106498353Y-50049401D01*
X106502000Y-50012376D01*
X106502000Y-50012375D01*
X106503219Y-50000000D01*
X106502000Y-49987624D01*
X106502000Y-49731671D01*
X106502732Y-49739103D01*
X106521430Y-49800743D01*
X106551794Y-49857550D01*
X106592657Y-49907343D01*
X106642450Y-49948206D01*
X106699257Y-49978570D01*
X106760897Y-49997268D01*
X106825000Y-50003582D01*
X108175000Y-50003582D01*
X108239103Y-49997268D01*
X108300743Y-49978570D01*
X108357550Y-49948206D01*
X108407343Y-49907343D01*
X108448206Y-49857550D01*
X108478570Y-49800743D01*
X108497268Y-49739103D01*
X108498000Y-49731671D01*
X108498000Y-49987624D01*
X108496781Y-50000000D01*
X108501647Y-50049401D01*
X108516056Y-50096903D01*
X108539456Y-50140681D01*
X108570947Y-50179053D01*
X108609319Y-50210544D01*
X108653097Y-50233944D01*
X108700599Y-50248353D01*
X108750000Y-50253219D01*
X108762375Y-50252000D01*
X111237625Y-50252000D01*
X111250000Y-50253219D01*
X111299401Y-50248353D01*
X111346903Y-50233944D01*
X111390681Y-50210544D01*
X111429053Y-50179053D01*
X111460544Y-50140681D01*
X111483944Y-50096903D01*
X111498353Y-50049401D01*
X111502000Y-50012376D01*
X111502000Y-50012375D01*
X111503219Y-50000000D01*
X111502000Y-49987624D01*
X111502000Y-42752000D01*
X113498001Y-42752000D01*
X113498000Y-49987624D01*
%TA.AperFunction,Conductor*%
D15*
G36*
X113498000Y-49987624D02*
G01*
X113496781Y-50000000D01*
X113501647Y-50049401D01*
X113516056Y-50096903D01*
X113539456Y-50140681D01*
X113570947Y-50179053D01*
X113609319Y-50210544D01*
X113653097Y-50233944D01*
X113700599Y-50248353D01*
X113750000Y-50253219D01*
X113762375Y-50252000D01*
X116237624Y-50252000D01*
X116250000Y-50253219D01*
X116262375Y-50252000D01*
X116262376Y-50252000D01*
X116299401Y-50248353D01*
X116346903Y-50233944D01*
X116390681Y-50210544D01*
X116429053Y-50179053D01*
X116460544Y-50140681D01*
X116483944Y-50096903D01*
X116498353Y-50049401D01*
X116503219Y-50000000D01*
X116502000Y-49987624D01*
X116502000Y-49731671D01*
X116502732Y-49739103D01*
X116521430Y-49800743D01*
X116551794Y-49857550D01*
X116592657Y-49907343D01*
X116642450Y-49948206D01*
X116699257Y-49978570D01*
X116760897Y-49997268D01*
X116825000Y-50003582D01*
X118175000Y-50003582D01*
X118239103Y-49997268D01*
X118300743Y-49978570D01*
X118357550Y-49948206D01*
X118407343Y-49907343D01*
X118448206Y-49857550D01*
X118478570Y-49800743D01*
X118497268Y-49739103D01*
X118498001Y-49731662D01*
X118498001Y-49987614D01*
X118496781Y-50000000D01*
X118501647Y-50049401D01*
X118516056Y-50096903D01*
X118539456Y-50140681D01*
X118570947Y-50179053D01*
X118609319Y-50210544D01*
X118653097Y-50233944D01*
X118700599Y-50248353D01*
X118737624Y-50252000D01*
X118737625Y-50252000D01*
X118750000Y-50253219D01*
X118762376Y-50252000D01*
X119102380Y-50252000D01*
X119004395Y-50317471D01*
X118903133Y-50418733D01*
X118823572Y-50537805D01*
X118768769Y-50670111D01*
X118740831Y-50810566D01*
X118740831Y-50953772D01*
X118768769Y-51094227D01*
X118823572Y-51226533D01*
X118903133Y-51345605D01*
X119004395Y-51446867D01*
X119123467Y-51526428D01*
X119255773Y-51581231D01*
X119396228Y-51609169D01*
X119539434Y-51609169D01*
X119679889Y-51581231D01*
X119812195Y-51526428D01*
X119931267Y-51446867D01*
X120032529Y-51345605D01*
X120112090Y-51226533D01*
X120166893Y-51094227D01*
X120194831Y-50953772D01*
X120194831Y-50810566D01*
X120166893Y-50670111D01*
X120112090Y-50537805D01*
X120032529Y-50418733D01*
X119931267Y-50317471D01*
X119833282Y-50252000D01*
X121237624Y-50252000D01*
X121250000Y-50253219D01*
X121262375Y-50252000D01*
X121262376Y-50252000D01*
X121299401Y-50248353D01*
X121346903Y-50233944D01*
X121390681Y-50210544D01*
X121429053Y-50179053D01*
X121460544Y-50140681D01*
X121483944Y-50096903D01*
X121498353Y-50049401D01*
X121503219Y-50000000D01*
X121502000Y-49987624D01*
X121502000Y-49731671D01*
X121502732Y-49739103D01*
X121521430Y-49800743D01*
X121551794Y-49857550D01*
X121592657Y-49907343D01*
X121642450Y-49948206D01*
X121699257Y-49978570D01*
X121760897Y-49997268D01*
X121825000Y-50003582D01*
X123175000Y-50003582D01*
X123239103Y-49997268D01*
X123300743Y-49978570D01*
X123357550Y-49948206D01*
X123407343Y-49907343D01*
X123448206Y-49857550D01*
X123478570Y-49800743D01*
X123497268Y-49739103D01*
X123498001Y-49731662D01*
X123498001Y-49987614D01*
X123496781Y-50000000D01*
X123501647Y-50049401D01*
X123516056Y-50096903D01*
X123539456Y-50140681D01*
X123570947Y-50179053D01*
X123609319Y-50210544D01*
X123653097Y-50233944D01*
X123700599Y-50248353D01*
X123737624Y-50252000D01*
X123737625Y-50252000D01*
X123750000Y-50253219D01*
X123762376Y-50252000D01*
X129748000Y-50252000D01*
X129748001Y-58248000D01*
X127012375Y-58248000D01*
X127000000Y-58246781D01*
X126987624Y-58248000D01*
X126950599Y-58251647D01*
X126903097Y-58266056D01*
X126859319Y-58289456D01*
X126820947Y-58320947D01*
X126789456Y-58359319D01*
X126766056Y-58403097D01*
X126751647Y-58450599D01*
X126746781Y-58500000D01*
X126748000Y-58512375D01*
X126748001Y-68311573D01*
X103252000Y-68352710D01*
X103252000Y-67658764D01*
X103295741Y-67764364D01*
X103375302Y-67883436D01*
X103476564Y-67984698D01*
X103595636Y-68064259D01*
X103727942Y-68119062D01*
X103868397Y-68147000D01*
X104011603Y-68147000D01*
X104152058Y-68119062D01*
X104284364Y-68064259D01*
X104403436Y-67984698D01*
X104504698Y-67883436D01*
X104584259Y-67764364D01*
X104639062Y-67632058D01*
X104667000Y-67491603D01*
X104667000Y-67348397D01*
X104639062Y-67207942D01*
X104584259Y-67075636D01*
X104504698Y-66956564D01*
X104403436Y-66855302D01*
X104284364Y-66775741D01*
X104152058Y-66720938D01*
X104011603Y-66693000D01*
X103868397Y-66693000D01*
X103727942Y-66720938D01*
X103595636Y-66775741D01*
X103476564Y-66855302D01*
X103375302Y-66956564D01*
X103295741Y-67075636D01*
X103252000Y-67181236D01*
X103252000Y-65328397D01*
X120243000Y-65328397D01*
X120243000Y-65471603D01*
X120270938Y-65612058D01*
X120325741Y-65744364D01*
X120405302Y-65863436D01*
X120506564Y-65964698D01*
X120625636Y-66044259D01*
X120757942Y-66099062D01*
X120898397Y-66127000D01*
X121041603Y-66127000D01*
X121182058Y-66099062D01*
X121314364Y-66044259D01*
X121433436Y-65964698D01*
X121534698Y-65863436D01*
X121614259Y-65744364D01*
X121669062Y-65612058D01*
X121697000Y-65471603D01*
X121697000Y-65404076D01*
X124373000Y-65404076D01*
X124373000Y-65635924D01*
X124418231Y-65863318D01*
X124506956Y-66077519D01*
X124635764Y-66270294D01*
X124799706Y-66434236D01*
X124992481Y-66563044D01*
X125206682Y-66651769D01*
X125434076Y-66697000D01*
X125665924Y-66697000D01*
X125893318Y-66651769D01*
X126107519Y-66563044D01*
X126300294Y-66434236D01*
X126464236Y-66270294D01*
X126593044Y-66077519D01*
X126681769Y-65863318D01*
X126727000Y-65635924D01*
X126727000Y-65404076D01*
X126681769Y-65176682D01*
X126593044Y-64962481D01*
X126464236Y-64769706D01*
X126300294Y-64605764D01*
X126107519Y-64476956D01*
X125893318Y-64388231D01*
X125665924Y-64343000D01*
X125434076Y-64343000D01*
X125206682Y-64388231D01*
X124992481Y-64476956D01*
X124799706Y-64605764D01*
X124635764Y-64769706D01*
X124506956Y-64962481D01*
X124418231Y-65176682D01*
X124373000Y-65404076D01*
X121697000Y-65404076D01*
X121697000Y-65328397D01*
X121669062Y-65187942D01*
X121614259Y-65055636D01*
X121534698Y-64936564D01*
X121433436Y-64835302D01*
X121314364Y-64755741D01*
X121182058Y-64700938D01*
X121041603Y-64673000D01*
X120898397Y-64673000D01*
X120757942Y-64700938D01*
X120625636Y-64755741D01*
X120506564Y-64835302D01*
X120405302Y-64936564D01*
X120325741Y-65055636D01*
X120270938Y-65187942D01*
X120243000Y-65328397D01*
X103252000Y-65328397D01*
X103252000Y-64258397D01*
X111563000Y-64258397D01*
X111563000Y-64401603D01*
X111590938Y-64542058D01*
X111645741Y-64674364D01*
X111725302Y-64793436D01*
X111826564Y-64894698D01*
X111945636Y-64974259D01*
X112077942Y-65029062D01*
X112218397Y-65057000D01*
X112361603Y-65057000D01*
X112502058Y-65029062D01*
X112634364Y-64974259D01*
X112753436Y-64894698D01*
X112854698Y-64793436D01*
X112934259Y-64674364D01*
X112989062Y-64542058D01*
X113017000Y-64401603D01*
X113017000Y-64258397D01*
X112989062Y-64117942D01*
X112934259Y-63985636D01*
X112854698Y-63866564D01*
X112753436Y-63765302D01*
X112634364Y-63685741D01*
X112502058Y-63630938D01*
X112361603Y-63603000D01*
X112218397Y-63603000D01*
X112077942Y-63630938D01*
X111945636Y-63685741D01*
X111826564Y-63765302D01*
X111725302Y-63866564D01*
X111645741Y-63985636D01*
X111590938Y-64117942D01*
X111563000Y-64258397D01*
X103252000Y-64258397D01*
X103252000Y-62618397D01*
X111563000Y-62618397D01*
X111563000Y-62761603D01*
X111590938Y-62902058D01*
X111645741Y-63034364D01*
X111725302Y-63153436D01*
X111826564Y-63254698D01*
X111945636Y-63334259D01*
X112077942Y-63389062D01*
X112218397Y-63417000D01*
X112361603Y-63417000D01*
X112502058Y-63389062D01*
X112634364Y-63334259D01*
X112753436Y-63254698D01*
X112854698Y-63153436D01*
X112934259Y-63034364D01*
X112989062Y-62902058D01*
X112996617Y-62864076D01*
X124373000Y-62864076D01*
X124373000Y-63095924D01*
X124418231Y-63323318D01*
X124506956Y-63537519D01*
X124635764Y-63730294D01*
X124799706Y-63894236D01*
X124992481Y-64023044D01*
X125206682Y-64111769D01*
X125434076Y-64157000D01*
X125665924Y-64157000D01*
X125893318Y-64111769D01*
X126107519Y-64023044D01*
X126300294Y-63894236D01*
X126464236Y-63730294D01*
X126593044Y-63537519D01*
X126681769Y-63323318D01*
X126727000Y-63095924D01*
X126727000Y-62864076D01*
X126681769Y-62636682D01*
X126593044Y-62422481D01*
X126464236Y-62229706D01*
X126300294Y-62065764D01*
X126107519Y-61936956D01*
X125893318Y-61848231D01*
X125665924Y-61803000D01*
X125434076Y-61803000D01*
X125206682Y-61848231D01*
X124992481Y-61936956D01*
X124799706Y-62065764D01*
X124635764Y-62229706D01*
X124506956Y-62422481D01*
X124418231Y-62636682D01*
X124373000Y-62864076D01*
X112996617Y-62864076D01*
X113017000Y-62761603D01*
X113017000Y-62618397D01*
X112989062Y-62477942D01*
X112934259Y-62345636D01*
X112854698Y-62226564D01*
X112753436Y-62125302D01*
X112634364Y-62045741D01*
X112502058Y-61990938D01*
X112361603Y-61963000D01*
X112218397Y-61963000D01*
X112077942Y-61990938D01*
X111945636Y-62045741D01*
X111826564Y-62125302D01*
X111725302Y-62226564D01*
X111645741Y-62345636D01*
X111590938Y-62477942D01*
X111563000Y-62618397D01*
X103252000Y-62618397D01*
X103252000Y-58512375D01*
X103253219Y-58500000D01*
X103248353Y-58450599D01*
X103233944Y-58403097D01*
X103210544Y-58359319D01*
X103179053Y-58320947D01*
X103140681Y-58289456D01*
X103096903Y-58266056D01*
X103049401Y-58251647D01*
X103012376Y-58248000D01*
X103000000Y-58246781D01*
X102987625Y-58248000D01*
X100252000Y-58248000D01*
X100252000Y-55038397D01*
X104753000Y-55038397D01*
X104753000Y-55181603D01*
X104780938Y-55322058D01*
X104835741Y-55454364D01*
X104915302Y-55573436D01*
X105016564Y-55674698D01*
X105135636Y-55754259D01*
X105267942Y-55809062D01*
X105408397Y-55837000D01*
X105551603Y-55837000D01*
X105692058Y-55809062D01*
X105824364Y-55754259D01*
X105943436Y-55674698D01*
X106044698Y-55573436D01*
X106124259Y-55454364D01*
X106179062Y-55322058D01*
X106207000Y-55181603D01*
X106207000Y-55038397D01*
X106179062Y-54897942D01*
X106124259Y-54765636D01*
X106044698Y-54646564D01*
X105943436Y-54545302D01*
X105824364Y-54465741D01*
X105692058Y-54410938D01*
X105551603Y-54383000D01*
X105408397Y-54383000D01*
X105267942Y-54410938D01*
X105135636Y-54465741D01*
X105016564Y-54545302D01*
X104915302Y-54646564D01*
X104835741Y-54765636D01*
X104780938Y-54897942D01*
X104753000Y-55038397D01*
X100252000Y-55038397D01*
X100252000Y-54338397D01*
X117793000Y-54338397D01*
X117793000Y-54481603D01*
X117820938Y-54622058D01*
X117875741Y-54754364D01*
X117955302Y-54873436D01*
X118056564Y-54974698D01*
X118175636Y-55054259D01*
X118307942Y-55109062D01*
X118448397Y-55137000D01*
X118591603Y-55137000D01*
X118732058Y-55109062D01*
X118864364Y-55054259D01*
X118983436Y-54974698D01*
X119084698Y-54873436D01*
X119164259Y-54754364D01*
X119219062Y-54622058D01*
X119247000Y-54481603D01*
X119247000Y-54338397D01*
X119219062Y-54197942D01*
X119164259Y-54065636D01*
X119084698Y-53946564D01*
X118983436Y-53845302D01*
X118864364Y-53765741D01*
X118732058Y-53710938D01*
X118591603Y-53683000D01*
X118448397Y-53683000D01*
X118307942Y-53710938D01*
X118175636Y-53765741D01*
X118056564Y-53845302D01*
X117955302Y-53946564D01*
X117875741Y-54065636D01*
X117820938Y-54197942D01*
X117793000Y-54338397D01*
X100252000Y-54338397D01*
X100252000Y-53001228D01*
X118810169Y-53001228D01*
X118810169Y-53144434D01*
X118838107Y-53284889D01*
X118892910Y-53417195D01*
X118972471Y-53536267D01*
X119073733Y-53637529D01*
X119192805Y-53717090D01*
X119325111Y-53771893D01*
X119465566Y-53799831D01*
X119608772Y-53799831D01*
X119749227Y-53771893D01*
X119881533Y-53717090D01*
X120000605Y-53637529D01*
X120101867Y-53536267D01*
X120181428Y-53417195D01*
X120236231Y-53284889D01*
X120264169Y-53144434D01*
X120264169Y-53001228D01*
X120236231Y-52860773D01*
X120181428Y-52728467D01*
X120101867Y-52609395D01*
X120000605Y-52508133D01*
X119881533Y-52428572D01*
X119749227Y-52373769D01*
X119608772Y-52345831D01*
X119465566Y-52345831D01*
X119325111Y-52373769D01*
X119192805Y-52428572D01*
X119073733Y-52508133D01*
X118972471Y-52609395D01*
X118892910Y-52728467D01*
X118838107Y-52860773D01*
X118810169Y-53001228D01*
X100252000Y-53001228D01*
X100252000Y-52058397D01*
X123713000Y-52058397D01*
X123713000Y-52201603D01*
X123740938Y-52342058D01*
X123795741Y-52474364D01*
X123875302Y-52593436D01*
X123976564Y-52694698D01*
X124095636Y-52774259D01*
X124227942Y-52829062D01*
X124368397Y-52857000D01*
X124511603Y-52857000D01*
X124652058Y-52829062D01*
X124784364Y-52774259D01*
X124903436Y-52694698D01*
X125004698Y-52593436D01*
X125084259Y-52474364D01*
X125139062Y-52342058D01*
X125167000Y-52201603D01*
X125167000Y-52058397D01*
X125139062Y-51917942D01*
X125084259Y-51785636D01*
X125004698Y-51666564D01*
X124903436Y-51565302D01*
X124784364Y-51485741D01*
X124652058Y-51430938D01*
X124511603Y-51403000D01*
X124368397Y-51403000D01*
X124227942Y-51430938D01*
X124095636Y-51485741D01*
X123976564Y-51565302D01*
X123875302Y-51666564D01*
X123795741Y-51785636D01*
X123740938Y-51917942D01*
X123713000Y-52058397D01*
X100252000Y-52058397D01*
X100252000Y-50252000D01*
X106237625Y-50252000D01*
X106250000Y-50253219D01*
X106299401Y-50248353D01*
X106346903Y-50233944D01*
X106390681Y-50210544D01*
X106429053Y-50179053D01*
X106460544Y-50140681D01*
X106483944Y-50096903D01*
X106498353Y-50049401D01*
X106502000Y-50012376D01*
X106502000Y-50012375D01*
X106503219Y-50000000D01*
X106502000Y-49987624D01*
X106502000Y-49731671D01*
X106502732Y-49739103D01*
X106521430Y-49800743D01*
X106551794Y-49857550D01*
X106592657Y-49907343D01*
X106642450Y-49948206D01*
X106699257Y-49978570D01*
X106760897Y-49997268D01*
X106825000Y-50003582D01*
X108175000Y-50003582D01*
X108239103Y-49997268D01*
X108300743Y-49978570D01*
X108357550Y-49948206D01*
X108407343Y-49907343D01*
X108448206Y-49857550D01*
X108478570Y-49800743D01*
X108497268Y-49739103D01*
X108498000Y-49731671D01*
X108498000Y-49987624D01*
X108496781Y-50000000D01*
X108501647Y-50049401D01*
X108516056Y-50096903D01*
X108539456Y-50140681D01*
X108570947Y-50179053D01*
X108609319Y-50210544D01*
X108653097Y-50233944D01*
X108700599Y-50248353D01*
X108750000Y-50253219D01*
X108762375Y-50252000D01*
X111237625Y-50252000D01*
X111250000Y-50253219D01*
X111299401Y-50248353D01*
X111346903Y-50233944D01*
X111390681Y-50210544D01*
X111429053Y-50179053D01*
X111460544Y-50140681D01*
X111483944Y-50096903D01*
X111498353Y-50049401D01*
X111502000Y-50012376D01*
X111502000Y-50012375D01*
X111503219Y-50000000D01*
X111502000Y-49987624D01*
X111502000Y-42752000D01*
X113498001Y-42752000D01*
X113498000Y-49987624D01*
G37*
%TD.AperFunction*%
%TD*%
M02*
