%TF.GenerationSoftware,KiCad,Pcbnew,(5.1.12-1-10_14)*%
%TF.CreationDate,2022-02-21T12:57:33+08:00*%
%TF.ProjectId,esp32-c3_ddsu666,65737033-322d-4633-935f-646473753636,rev?*%
%TF.SameCoordinates,Original*%
%TF.FileFunction,Profile,NP*%
%FSLAX46Y46*%
G04 Gerber Fmt 4.6, Leading zero omitted, Abs format (unit mm)*
G04 Created by KiCad (PCBNEW (5.1.12-1-10_14)) date 2022-02-21 12:57:33*
%MOMM*%
%LPD*%
G01*
G04 APERTURE LIST*
%TA.AperFunction,Profile*%
%ADD10C,0.050000*%
%TD*%
G04 APERTURE END LIST*
D10*
X123750000Y-50000000D02*
X130000000Y-50000000D01*
X100000000Y-50000000D02*
X106250000Y-50000000D01*
X123750000Y-42500000D02*
X123750000Y-50000000D01*
X121250000Y-42500000D02*
X123750000Y-42500000D01*
X121250000Y-50000000D02*
X121250000Y-42500000D01*
X118750000Y-50000000D02*
X121250000Y-50000000D01*
X118750000Y-42500000D02*
X118750000Y-50000000D01*
X116250000Y-42500000D02*
X118750000Y-42500000D01*
X116250000Y-50000000D02*
X116250000Y-42500000D01*
X113750000Y-50000000D02*
X116250000Y-50000000D01*
X106250000Y-42500000D02*
X106250000Y-50000000D01*
X108750000Y-42500000D02*
X106250000Y-42500000D01*
X108750000Y-50000000D02*
X108750000Y-42500000D01*
X111250000Y-50000000D02*
X108750000Y-50000000D01*
X111250000Y-42500000D02*
X111250000Y-50000000D01*
X113750000Y-42500000D02*
X111250000Y-42500000D01*
X113750000Y-50000000D02*
X113750000Y-42500000D01*
X100000000Y-58500000D02*
X100000000Y-50000000D01*
X103000000Y-58500000D02*
X100000000Y-58500000D01*
X103000000Y-70000000D02*
X103000000Y-58500000D01*
X127000000Y-70000000D02*
X103000000Y-70000000D01*
X127000000Y-58500000D02*
X127000000Y-70000000D01*
X130000000Y-58500000D02*
X127000000Y-58500000D01*
X130000000Y-50000000D02*
X130000000Y-58500000D01*
M02*
