M48
; DRILL file {KiCad (5.1.12-1-10_14)} date 2022 February 21, Monday 12:57:35
; FORMAT={-:-/ absolute / inch / decimal}
; #@! TF.CreationDate,2022-02-21T12:57:35+08:00
; #@! TF.GenerationSoftware,Kicad,Pcbnew,(5.1.12-1-10_14)
; #@! TF.FileFunction,Plated,1,4,PTH
FMAT,2
INCH
T1C0.0157
T2C0.0315
T3C0.0394
%
G90
G05
T1
X4.0921Y-2.6543
X4.1504Y-2.5165
X4.1528Y-2.1697
X4.2402Y-2.1654
X4.3094Y-2.7134
X4.4209Y-2.4681
X4.4209Y-2.5327
X4.6591Y-2.2071
X4.6661Y-2.1421
X4.7035Y-2.0032
X4.7062Y-2.0895
X4.7594Y-2.0138
X4.7626Y-2.5748
X4.8992Y-2.0524
X5.0677Y-2.1382
T2
X4.2323Y-1.9291
X4.4291Y-1.9291
X4.626Y-1.9291
X4.8228Y-1.9291
T3
X4.9429Y-2.4795
X4.9429Y-2.5795
X4.9429Y-2.6795
T0
M30
