%TF.GenerationSoftware,KiCad,Pcbnew,(5.1.12-1-10_14)*%
%TF.CreationDate,2022-02-21T12:57:33+08:00*%
%TF.ProjectId,esp32-c3_ddsu666,65737033-322d-4633-935f-646473753636,rev?*%
%TF.SameCoordinates,Original*%
%TF.FileFunction,Soldermask,Bot*%
%TF.FilePolarity,Negative*%
%FSLAX46Y46*%
G04 Gerber Fmt 4.6, Leading zero omitted, Abs format (unit mm)*
G04 Created by KiCad (PCBNEW (5.1.12-1-10_14)) date 2022-02-21 12:57:33*
%MOMM*%
%LPD*%
G01*
G04 APERTURE LIST*
%ADD10O,1.700000X1.700000*%
%ADD11R,1.700000X1.700000*%
%ADD12R,1.350000X1.350000*%
%ADD13C,0.254000*%
%ADD14C,0.100000*%
G04 APERTURE END LIST*
D10*
%TO.C,J2*%
X125550000Y-62980000D03*
X125550000Y-65520000D03*
D11*
X125550000Y-68060000D03*
%TD*%
D12*
%TO.C,J5*%
X122500000Y-49000000D03*
%TD*%
%TO.C,J4*%
X117500000Y-49000000D03*
%TD*%
%TO.C,J3*%
X112500000Y-49000000D03*
%TD*%
%TO.C,J1*%
X107500000Y-49000000D03*
%TD*%
D13*
X123750000Y-49781860D02*
X121250000Y-49776483D01*
X121250000Y-42500000D01*
X123750000Y-42500000D01*
X123750000Y-49781860D01*
D14*
G36*
X123750000Y-49781860D02*
G01*
X121250000Y-49776483D01*
X121250000Y-42500000D01*
X123750000Y-42500000D01*
X123750000Y-49781860D01*
G37*
D13*
X118750000Y-49771107D02*
X116250000Y-49765731D01*
X116250000Y-42500000D01*
X118750000Y-42500000D01*
X118750000Y-49771107D01*
D14*
G36*
X118750000Y-49771107D02*
G01*
X116250000Y-49765731D01*
X116250000Y-42500000D01*
X118750000Y-42500000D01*
X118750000Y-49771107D01*
G37*
D13*
X113750000Y-49760354D02*
X111250000Y-49754978D01*
X111250000Y-42500000D01*
X113750000Y-42500000D01*
X113750000Y-49760354D01*
D14*
G36*
X113750000Y-49760354D02*
G01*
X111250000Y-49754978D01*
X111250000Y-42500000D01*
X113750000Y-42500000D01*
X113750000Y-49760354D01*
G37*
D13*
X108750000Y-49749602D02*
X106250000Y-49744226D01*
X106250000Y-42500000D01*
X108750000Y-42500000D01*
X108750000Y-49749602D01*
D14*
G36*
X108750000Y-49749602D02*
G01*
X106250000Y-49744226D01*
X106250000Y-42500000D01*
X108750000Y-42500000D01*
X108750000Y-49749602D01*
G37*
M02*
