%TF.GenerationSoftware,KiCad,Pcbnew,(5.1.12-1-10_14)*%
%TF.CreationDate,2022-02-21T12:57:33+08:00*%
%TF.ProjectId,esp32-c3_ddsu666,65737033-322d-4633-935f-646473753636,rev?*%
%TF.SameCoordinates,Original*%
%TF.FileFunction,Legend,Top*%
%TF.FilePolarity,Positive*%
%FSLAX46Y46*%
G04 Gerber Fmt 4.6, Leading zero omitted, Abs format (unit mm)*
G04 Created by KiCad (PCBNEW (5.1.12-1-10_14)) date 2022-02-21 12:57:33*
%MOMM*%
%LPD*%
G01*
G04 APERTURE LIST*
%ADD10C,0.120000*%
%ADD11C,0.200000*%
%ADD12C,0.150000*%
%ADD13C,0.203200*%
G04 APERTURE END LIST*
D10*
%TO.C,J2*%
X126880000Y-69390000D02*
X125550000Y-69390000D01*
X126880000Y-68060000D02*
X126880000Y-69390000D01*
X126880000Y-66790000D02*
X124220000Y-66790000D01*
X124220000Y-66790000D02*
X124220000Y-61650000D01*
X126880000Y-66790000D02*
X126880000Y-61650000D01*
X126880000Y-61650000D02*
X124220000Y-61650000D01*
%TO.C,C3*%
X111525000Y-55331252D02*
X111525000Y-54808748D01*
X110055000Y-55331252D02*
X110055000Y-54808748D01*
%TO.C,J5*%
X121440000Y-47940000D02*
X122500000Y-47940000D01*
X121440000Y-49000000D02*
X121440000Y-47940000D01*
X121440000Y-50000000D02*
X123560000Y-50000000D01*
X123560000Y-50000000D02*
X123560000Y-50060000D01*
X121440000Y-50000000D02*
X121440000Y-50060000D01*
X121440000Y-50060000D02*
X123560000Y-50060000D01*
%TO.C,J4*%
X116440000Y-47940000D02*
X117500000Y-47940000D01*
X116440000Y-49000000D02*
X116440000Y-47940000D01*
X116440000Y-50000000D02*
X118560000Y-50000000D01*
X118560000Y-50000000D02*
X118560000Y-50060000D01*
X116440000Y-50000000D02*
X116440000Y-50060000D01*
X116440000Y-50060000D02*
X118560000Y-50060000D01*
%TO.C,J3*%
X111440000Y-47940000D02*
X112500000Y-47940000D01*
X111440000Y-49000000D02*
X111440000Y-47940000D01*
X111440000Y-50000000D02*
X113560000Y-50000000D01*
X113560000Y-50000000D02*
X113560000Y-50060000D01*
X111440000Y-50000000D02*
X111440000Y-50060000D01*
X111440000Y-50060000D02*
X113560000Y-50060000D01*
%TO.C,J1*%
X106440000Y-47940000D02*
X107500000Y-47940000D01*
X106440000Y-49000000D02*
X106440000Y-47940000D01*
X106440000Y-50000000D02*
X108560000Y-50000000D01*
X108560000Y-50000000D02*
X108560000Y-50060000D01*
X106440000Y-50000000D02*
X106440000Y-50060000D01*
X106440000Y-50060000D02*
X108560000Y-50060000D01*
%TO.C,C12*%
X123250000Y-54914165D02*
X123250000Y-55145835D01*
X122530000Y-54914165D02*
X122530000Y-55145835D01*
%TO.C,U2*%
X129650000Y-54300000D02*
X129650000Y-52350000D01*
X129650000Y-54300000D02*
X129650000Y-56250000D01*
X124530000Y-54300000D02*
X124530000Y-52350000D01*
X124530000Y-54300000D02*
X124530000Y-57750000D01*
%TO.C,R2*%
X122947621Y-53110000D02*
X122612379Y-53110000D01*
X122947621Y-52350000D02*
X122612379Y-52350000D01*
%TO.C,R1*%
X122632379Y-51330000D02*
X122967621Y-51330000D01*
X122632379Y-52090000D02*
X122967621Y-52090000D01*
%TO.C,R14*%
X116286359Y-52810000D02*
X116593641Y-52810000D01*
X116286359Y-52050000D02*
X116593641Y-52050000D01*
%TO.C,R12*%
X108910000Y-66993641D02*
X108910000Y-66686359D01*
X108150000Y-66993641D02*
X108150000Y-66686359D01*
%TO.C,D2*%
X115480000Y-53045000D02*
X115480000Y-55730000D01*
X117400000Y-53045000D02*
X115480000Y-53045000D01*
X117400000Y-55730000D02*
X117400000Y-53045000D01*
%TO.C,D1*%
X107355000Y-66440000D02*
X104670000Y-66440000D01*
X107355000Y-68360000D02*
X107355000Y-66440000D01*
X104670000Y-68360000D02*
X107355000Y-68360000D01*
%TO.C,C7*%
X107110000Y-62028748D02*
X107110000Y-64351252D01*
X103690000Y-62028748D02*
X103690000Y-64351252D01*
%TO.C,U4*%
X102070000Y-57320000D02*
X103330000Y-57320000D01*
X108890000Y-57320000D02*
X107630000Y-57320000D01*
X102070000Y-53560000D02*
X102070000Y-57320000D01*
X108890000Y-51310000D02*
X108890000Y-57320000D01*
D11*
%TO.C,U1*%
X123040012Y-57680011D02*
X109839988Y-57680011D01*
X123040012Y-68879989D02*
X109839988Y-68879989D01*
X109839988Y-74280003D02*
X123040012Y-74280003D01*
X123040012Y-57680011D02*
X123040012Y-74280003D01*
X109839988Y-57680011D02*
X109839988Y-74280003D01*
D10*
%TO.C,R13*%
X113010000Y-55263641D02*
X113010000Y-54956359D01*
X113770000Y-55263641D02*
X113770000Y-54956359D01*
%TO.C,R11*%
X125750000Y-59546359D02*
X125750000Y-59853641D01*
X124990000Y-59546359D02*
X124990000Y-59853641D01*
%TO.C,C11*%
X123990000Y-59807836D02*
X123990000Y-59592164D01*
X124710000Y-59807836D02*
X124710000Y-59592164D01*
%TO.C,C10*%
X112957836Y-52890000D02*
X112742164Y-52890000D01*
X112957836Y-52170000D02*
X112742164Y-52170000D01*
%TO.C,C8*%
X109225000Y-62528748D02*
X109225000Y-63051252D01*
X107755000Y-62528748D02*
X107755000Y-63051252D01*
%TO.C,C6*%
X110020000Y-51522164D02*
X110020000Y-51737836D01*
X109300000Y-51522164D02*
X109300000Y-51737836D01*
%TO.C,C2*%
X112947836Y-53940000D02*
X112732164Y-53940000D01*
X112947836Y-53220000D02*
X112732164Y-53220000D01*
%TO.C,C1*%
X120237836Y-56400000D02*
X120022164Y-56400000D01*
X120237836Y-55680000D02*
X120022164Y-55680000D01*
%TO.C,J2*%
D12*
X125826666Y-70672380D02*
X125826666Y-71386666D01*
X125779047Y-71529523D01*
X125683809Y-71624761D01*
X125540952Y-71672380D01*
X125445714Y-71672380D01*
X126255238Y-70767619D02*
X126302857Y-70720000D01*
X126398095Y-70672380D01*
X126636190Y-70672380D01*
X126731428Y-70720000D01*
X126779047Y-70767619D01*
X126826666Y-70862857D01*
X126826666Y-70958095D01*
X126779047Y-71100952D01*
X126207619Y-71672380D01*
X126826666Y-71672380D01*
%TO.C,C3*%
X107683333Y-56997142D02*
X107635714Y-57044761D01*
X107492857Y-57092380D01*
X107397619Y-57092380D01*
X107254761Y-57044761D01*
X107159523Y-56949523D01*
X107111904Y-56854285D01*
X107064285Y-56663809D01*
X107064285Y-56520952D01*
X107111904Y-56330476D01*
X107159523Y-56235238D01*
X107254761Y-56140000D01*
X107397619Y-56092380D01*
X107492857Y-56092380D01*
X107635714Y-56140000D01*
X107683333Y-56187619D01*
X108016666Y-56092380D02*
X108635714Y-56092380D01*
X108302380Y-56473333D01*
X108445238Y-56473333D01*
X108540476Y-56520952D01*
X108588095Y-56568571D01*
X108635714Y-56663809D01*
X108635714Y-56901904D01*
X108588095Y-56997142D01*
X108540476Y-57044761D01*
X108445238Y-57092380D01*
X108159523Y-57092380D01*
X108064285Y-57044761D01*
X108016666Y-56997142D01*
%TO.C,J5*%
X122066666Y-43012380D02*
X122066666Y-43726666D01*
X122019047Y-43869523D01*
X121923809Y-43964761D01*
X121780952Y-44012380D01*
X121685714Y-44012380D01*
X123019047Y-43012380D02*
X122542857Y-43012380D01*
X122495238Y-43488571D01*
X122542857Y-43440952D01*
X122638095Y-43393333D01*
X122876190Y-43393333D01*
X122971428Y-43440952D01*
X123019047Y-43488571D01*
X123066666Y-43583809D01*
X123066666Y-43821904D01*
X123019047Y-43917142D01*
X122971428Y-43964761D01*
X122876190Y-44012380D01*
X122638095Y-44012380D01*
X122542857Y-43964761D01*
X122495238Y-43917142D01*
%TO.C,J4*%
X117056666Y-43112380D02*
X117056666Y-43826666D01*
X117009047Y-43969523D01*
X116913809Y-44064761D01*
X116770952Y-44112380D01*
X116675714Y-44112380D01*
X117961428Y-43445714D02*
X117961428Y-44112380D01*
X117723333Y-43064761D02*
X117485238Y-43779047D01*
X118104285Y-43779047D01*
%TO.C,J3*%
X111956666Y-43162380D02*
X111956666Y-43876666D01*
X111909047Y-44019523D01*
X111813809Y-44114761D01*
X111670952Y-44162380D01*
X111575714Y-44162380D01*
X112337619Y-43162380D02*
X112956666Y-43162380D01*
X112623333Y-43543333D01*
X112766190Y-43543333D01*
X112861428Y-43590952D01*
X112909047Y-43638571D01*
X112956666Y-43733809D01*
X112956666Y-43971904D01*
X112909047Y-44067142D01*
X112861428Y-44114761D01*
X112766190Y-44162380D01*
X112480476Y-44162380D01*
X112385238Y-44114761D01*
X112337619Y-44067142D01*
%TO.C,J1*%
X107206666Y-43162380D02*
X107206666Y-43876666D01*
X107159047Y-44019523D01*
X107063809Y-44114761D01*
X106920952Y-44162380D01*
X106825714Y-44162380D01*
X108206666Y-44162380D02*
X107635238Y-44162380D01*
X107920952Y-44162380D02*
X107920952Y-43162380D01*
X107825714Y-43305238D01*
X107730476Y-43400476D01*
X107635238Y-43448095D01*
%TO.C,C12*%
X122147142Y-57147142D02*
X122099523Y-57194761D01*
X121956666Y-57242380D01*
X121861428Y-57242380D01*
X121718571Y-57194761D01*
X121623333Y-57099523D01*
X121575714Y-57004285D01*
X121528095Y-56813809D01*
X121528095Y-56670952D01*
X121575714Y-56480476D01*
X121623333Y-56385238D01*
X121718571Y-56290000D01*
X121861428Y-56242380D01*
X121956666Y-56242380D01*
X122099523Y-56290000D01*
X122147142Y-56337619D01*
X123099523Y-57242380D02*
X122528095Y-57242380D01*
X122813809Y-57242380D02*
X122813809Y-56242380D01*
X122718571Y-56385238D01*
X122623333Y-56480476D01*
X122528095Y-56528095D01*
X123480476Y-56337619D02*
X123528095Y-56290000D01*
X123623333Y-56242380D01*
X123861428Y-56242380D01*
X123956666Y-56290000D01*
X124004285Y-56337619D01*
X124051904Y-56432857D01*
X124051904Y-56528095D01*
X124004285Y-56670952D01*
X123432857Y-57242380D01*
X124051904Y-57242380D01*
%TO.C,U2*%
X130358095Y-53622380D02*
X130358095Y-54431904D01*
X130405714Y-54527142D01*
X130453333Y-54574761D01*
X130548571Y-54622380D01*
X130739047Y-54622380D01*
X130834285Y-54574761D01*
X130881904Y-54527142D01*
X130929523Y-54431904D01*
X130929523Y-53622380D01*
X131358095Y-53717619D02*
X131405714Y-53670000D01*
X131500952Y-53622380D01*
X131739047Y-53622380D01*
X131834285Y-53670000D01*
X131881904Y-53717619D01*
X131929523Y-53812857D01*
X131929523Y-53908095D01*
X131881904Y-54050952D01*
X131310476Y-54622380D01*
X131929523Y-54622380D01*
%TO.C,R2*%
X120583333Y-53872380D02*
X120250000Y-53396190D01*
X120011904Y-53872380D02*
X120011904Y-52872380D01*
X120392857Y-52872380D01*
X120488095Y-52920000D01*
X120535714Y-52967619D01*
X120583333Y-53062857D01*
X120583333Y-53205714D01*
X120535714Y-53300952D01*
X120488095Y-53348571D01*
X120392857Y-53396190D01*
X120011904Y-53396190D01*
X120964285Y-52967619D02*
X121011904Y-52920000D01*
X121107142Y-52872380D01*
X121345238Y-52872380D01*
X121440476Y-52920000D01*
X121488095Y-52967619D01*
X121535714Y-53062857D01*
X121535714Y-53158095D01*
X121488095Y-53300952D01*
X120916666Y-53872380D01*
X121535714Y-53872380D01*
%TO.C,R1*%
X120543333Y-51852380D02*
X120210000Y-51376190D01*
X119971904Y-51852380D02*
X119971904Y-50852380D01*
X120352857Y-50852380D01*
X120448095Y-50900000D01*
X120495714Y-50947619D01*
X120543333Y-51042857D01*
X120543333Y-51185714D01*
X120495714Y-51280952D01*
X120448095Y-51328571D01*
X120352857Y-51376190D01*
X119971904Y-51376190D01*
X121495714Y-51852380D02*
X120924285Y-51852380D01*
X121210000Y-51852380D02*
X121210000Y-50852380D01*
X121114761Y-50995238D01*
X121019523Y-51090476D01*
X120924285Y-51138095D01*
%TO.C,R14*%
X115877142Y-51742380D02*
X115543809Y-51266190D01*
X115305714Y-51742380D02*
X115305714Y-50742380D01*
X115686666Y-50742380D01*
X115781904Y-50790000D01*
X115829523Y-50837619D01*
X115877142Y-50932857D01*
X115877142Y-51075714D01*
X115829523Y-51170952D01*
X115781904Y-51218571D01*
X115686666Y-51266190D01*
X115305714Y-51266190D01*
X116829523Y-51742380D02*
X116258095Y-51742380D01*
X116543809Y-51742380D02*
X116543809Y-50742380D01*
X116448571Y-50885238D01*
X116353333Y-50980476D01*
X116258095Y-51028095D01*
X117686666Y-51075714D02*
X117686666Y-51742380D01*
X117448571Y-50694761D02*
X117210476Y-51409047D01*
X117829523Y-51409047D01*
%TO.C,R12*%
X108862380Y-70502857D02*
X108386190Y-70836190D01*
X108862380Y-71074285D02*
X107862380Y-71074285D01*
X107862380Y-70693333D01*
X107910000Y-70598095D01*
X107957619Y-70550476D01*
X108052857Y-70502857D01*
X108195714Y-70502857D01*
X108290952Y-70550476D01*
X108338571Y-70598095D01*
X108386190Y-70693333D01*
X108386190Y-71074285D01*
X108862380Y-69550476D02*
X108862380Y-70121904D01*
X108862380Y-69836190D02*
X107862380Y-69836190D01*
X108005238Y-69931428D01*
X108100476Y-70026666D01*
X108148095Y-70121904D01*
X107957619Y-69169523D02*
X107910000Y-69121904D01*
X107862380Y-69026666D01*
X107862380Y-68788571D01*
X107910000Y-68693333D01*
X107957619Y-68645714D01*
X108052857Y-68598095D01*
X108148095Y-68598095D01*
X108290952Y-68645714D01*
X108862380Y-69217142D01*
X108862380Y-68598095D01*
%TO.C,D2*%
X116921904Y-57442380D02*
X116921904Y-56442380D01*
X117160000Y-56442380D01*
X117302857Y-56490000D01*
X117398095Y-56585238D01*
X117445714Y-56680476D01*
X117493333Y-56870952D01*
X117493333Y-57013809D01*
X117445714Y-57204285D01*
X117398095Y-57299523D01*
X117302857Y-57394761D01*
X117160000Y-57442380D01*
X116921904Y-57442380D01*
X117874285Y-56537619D02*
X117921904Y-56490000D01*
X118017142Y-56442380D01*
X118255238Y-56442380D01*
X118350476Y-56490000D01*
X118398095Y-56537619D01*
X118445714Y-56632857D01*
X118445714Y-56728095D01*
X118398095Y-56870952D01*
X117826666Y-57442380D01*
X118445714Y-57442380D01*
%TO.C,D1*%
X101381904Y-67792380D02*
X101381904Y-66792380D01*
X101620000Y-66792380D01*
X101762857Y-66840000D01*
X101858095Y-66935238D01*
X101905714Y-67030476D01*
X101953333Y-67220952D01*
X101953333Y-67363809D01*
X101905714Y-67554285D01*
X101858095Y-67649523D01*
X101762857Y-67744761D01*
X101620000Y-67792380D01*
X101381904Y-67792380D01*
X102905714Y-67792380D02*
X102334285Y-67792380D01*
X102620000Y-67792380D02*
X102620000Y-66792380D01*
X102524761Y-66935238D01*
X102429523Y-67030476D01*
X102334285Y-67078095D01*
%TO.C,C7*%
X105917142Y-63326666D02*
X105964761Y-63374285D01*
X106012380Y-63517142D01*
X106012380Y-63612380D01*
X105964761Y-63755238D01*
X105869523Y-63850476D01*
X105774285Y-63898095D01*
X105583809Y-63945714D01*
X105440952Y-63945714D01*
X105250476Y-63898095D01*
X105155238Y-63850476D01*
X105060000Y-63755238D01*
X105012380Y-63612380D01*
X105012380Y-63517142D01*
X105060000Y-63374285D01*
X105107619Y-63326666D01*
X105012380Y-62993333D02*
X105012380Y-62326666D01*
X106012380Y-62755238D01*
%TO.C,U4*%
X104658095Y-60732380D02*
X104658095Y-61541904D01*
X104705714Y-61637142D01*
X104753333Y-61684761D01*
X104848571Y-61732380D01*
X105039047Y-61732380D01*
X105134285Y-61684761D01*
X105181904Y-61637142D01*
X105229523Y-61541904D01*
X105229523Y-60732380D01*
X106134285Y-61065714D02*
X106134285Y-61732380D01*
X105896190Y-60684761D02*
X105658095Y-61399047D01*
X106277142Y-61399047D01*
%TO.C,U1*%
X116198095Y-72802380D02*
X116198095Y-73611904D01*
X116245714Y-73707142D01*
X116293333Y-73754761D01*
X116388571Y-73802380D01*
X116579047Y-73802380D01*
X116674285Y-73754761D01*
X116721904Y-73707142D01*
X116769523Y-73611904D01*
X116769523Y-72802380D01*
X117769523Y-73802380D02*
X117198095Y-73802380D01*
X117483809Y-73802380D02*
X117483809Y-72802380D01*
X117388571Y-72945238D01*
X117293333Y-73040476D01*
X117198095Y-73088095D01*
D13*
X109838624Y-71842678D02*
X110806243Y-71842678D01*
X109645100Y-72423250D02*
X110322434Y-70391250D01*
X110999767Y-72423250D01*
X111677100Y-72423250D02*
X111677100Y-70391250D01*
X112838243Y-72423250D01*
X112838243Y-70391250D01*
X113515577Y-70391250D02*
X114676719Y-70391250D01*
X114096148Y-72423250D02*
X114096148Y-70391250D01*
X115354053Y-71358869D02*
X116031386Y-71358869D01*
X116321672Y-72423250D02*
X115354053Y-72423250D01*
X115354053Y-70391250D01*
X116321672Y-70391250D01*
X117192529Y-72423250D02*
X117192529Y-70391250D01*
X118353672Y-72423250D01*
X118353672Y-70391250D01*
X119321291Y-72423250D02*
X119321291Y-70391250D01*
X120482434Y-72423250D01*
X120482434Y-70391250D01*
X121353291Y-71842678D02*
X122320910Y-71842678D01*
X121159767Y-72423250D02*
X121837100Y-70391250D01*
X122514434Y-72423250D01*
%TO.C,R13*%
D12*
X113367142Y-57282380D02*
X113033809Y-56806190D01*
X112795714Y-57282380D02*
X112795714Y-56282380D01*
X113176666Y-56282380D01*
X113271904Y-56330000D01*
X113319523Y-56377619D01*
X113367142Y-56472857D01*
X113367142Y-56615714D01*
X113319523Y-56710952D01*
X113271904Y-56758571D01*
X113176666Y-56806190D01*
X112795714Y-56806190D01*
X114319523Y-57282380D02*
X113748095Y-57282380D01*
X114033809Y-57282380D02*
X114033809Y-56282380D01*
X113938571Y-56425238D01*
X113843333Y-56520476D01*
X113748095Y-56568095D01*
X114652857Y-56282380D02*
X115271904Y-56282380D01*
X114938571Y-56663333D01*
X115081428Y-56663333D01*
X115176666Y-56710952D01*
X115224285Y-56758571D01*
X115271904Y-56853809D01*
X115271904Y-57091904D01*
X115224285Y-57187142D01*
X115176666Y-57234761D01*
X115081428Y-57282380D01*
X114795714Y-57282380D01*
X114700476Y-57234761D01*
X114652857Y-57187142D01*
%TO.C,R11*%
X131197142Y-59622380D02*
X130863809Y-59146190D01*
X130625714Y-59622380D02*
X130625714Y-58622380D01*
X131006666Y-58622380D01*
X131101904Y-58670000D01*
X131149523Y-58717619D01*
X131197142Y-58812857D01*
X131197142Y-58955714D01*
X131149523Y-59050952D01*
X131101904Y-59098571D01*
X131006666Y-59146190D01*
X130625714Y-59146190D01*
X132149523Y-59622380D02*
X131578095Y-59622380D01*
X131863809Y-59622380D02*
X131863809Y-58622380D01*
X131768571Y-58765238D01*
X131673333Y-58860476D01*
X131578095Y-58908095D01*
X133101904Y-59622380D02*
X132530476Y-59622380D01*
X132816190Y-59622380D02*
X132816190Y-58622380D01*
X132720952Y-58765238D01*
X132625714Y-58860476D01*
X132530476Y-58908095D01*
%TO.C,C11*%
X128277142Y-59527142D02*
X128229523Y-59574761D01*
X128086666Y-59622380D01*
X127991428Y-59622380D01*
X127848571Y-59574761D01*
X127753333Y-59479523D01*
X127705714Y-59384285D01*
X127658095Y-59193809D01*
X127658095Y-59050952D01*
X127705714Y-58860476D01*
X127753333Y-58765238D01*
X127848571Y-58670000D01*
X127991428Y-58622380D01*
X128086666Y-58622380D01*
X128229523Y-58670000D01*
X128277142Y-58717619D01*
X129229523Y-59622380D02*
X128658095Y-59622380D01*
X128943809Y-59622380D02*
X128943809Y-58622380D01*
X128848571Y-58765238D01*
X128753333Y-58860476D01*
X128658095Y-58908095D01*
X130181904Y-59622380D02*
X129610476Y-59622380D01*
X129896190Y-59622380D02*
X129896190Y-58622380D01*
X129800952Y-58765238D01*
X129705714Y-58860476D01*
X129610476Y-58908095D01*
%TO.C,C10*%
X111857142Y-51767142D02*
X111809523Y-51814761D01*
X111666666Y-51862380D01*
X111571428Y-51862380D01*
X111428571Y-51814761D01*
X111333333Y-51719523D01*
X111285714Y-51624285D01*
X111238095Y-51433809D01*
X111238095Y-51290952D01*
X111285714Y-51100476D01*
X111333333Y-51005238D01*
X111428571Y-50910000D01*
X111571428Y-50862380D01*
X111666666Y-50862380D01*
X111809523Y-50910000D01*
X111857142Y-50957619D01*
X112809523Y-51862380D02*
X112238095Y-51862380D01*
X112523809Y-51862380D02*
X112523809Y-50862380D01*
X112428571Y-51005238D01*
X112333333Y-51100476D01*
X112238095Y-51148095D01*
X113428571Y-50862380D02*
X113523809Y-50862380D01*
X113619047Y-50910000D01*
X113666666Y-50957619D01*
X113714285Y-51052857D01*
X113761904Y-51243333D01*
X113761904Y-51481428D01*
X113714285Y-51671904D01*
X113666666Y-51767142D01*
X113619047Y-51814761D01*
X113523809Y-51862380D01*
X113428571Y-51862380D01*
X113333333Y-51814761D01*
X113285714Y-51767142D01*
X113238095Y-51671904D01*
X113190476Y-51481428D01*
X113190476Y-51243333D01*
X113238095Y-51052857D01*
X113285714Y-50957619D01*
X113333333Y-50910000D01*
X113428571Y-50862380D01*
%TO.C,C8*%
X108957142Y-65836666D02*
X109004761Y-65884285D01*
X109052380Y-66027142D01*
X109052380Y-66122380D01*
X109004761Y-66265238D01*
X108909523Y-66360476D01*
X108814285Y-66408095D01*
X108623809Y-66455714D01*
X108480952Y-66455714D01*
X108290476Y-66408095D01*
X108195238Y-66360476D01*
X108100000Y-66265238D01*
X108052380Y-66122380D01*
X108052380Y-66027142D01*
X108100000Y-65884285D01*
X108147619Y-65836666D01*
X108480952Y-65265238D02*
X108433333Y-65360476D01*
X108385714Y-65408095D01*
X108290476Y-65455714D01*
X108242857Y-65455714D01*
X108147619Y-65408095D01*
X108100000Y-65360476D01*
X108052380Y-65265238D01*
X108052380Y-65074761D01*
X108100000Y-64979523D01*
X108147619Y-64931904D01*
X108242857Y-64884285D01*
X108290476Y-64884285D01*
X108385714Y-64931904D01*
X108433333Y-64979523D01*
X108480952Y-65074761D01*
X108480952Y-65265238D01*
X108528571Y-65360476D01*
X108576190Y-65408095D01*
X108671428Y-65455714D01*
X108861904Y-65455714D01*
X108957142Y-65408095D01*
X109004761Y-65360476D01*
X109052380Y-65265238D01*
X109052380Y-65074761D01*
X109004761Y-64979523D01*
X108957142Y-64931904D01*
X108861904Y-64884285D01*
X108671428Y-64884285D01*
X108576190Y-64931904D01*
X108528571Y-64979523D01*
X108480952Y-65074761D01*
%TO.C,C6*%
X107543333Y-54727142D02*
X107495714Y-54774761D01*
X107352857Y-54822380D01*
X107257619Y-54822380D01*
X107114761Y-54774761D01*
X107019523Y-54679523D01*
X106971904Y-54584285D01*
X106924285Y-54393809D01*
X106924285Y-54250952D01*
X106971904Y-54060476D01*
X107019523Y-53965238D01*
X107114761Y-53870000D01*
X107257619Y-53822380D01*
X107352857Y-53822380D01*
X107495714Y-53870000D01*
X107543333Y-53917619D01*
X108400476Y-53822380D02*
X108210000Y-53822380D01*
X108114761Y-53870000D01*
X108067142Y-53917619D01*
X107971904Y-54060476D01*
X107924285Y-54250952D01*
X107924285Y-54631904D01*
X107971904Y-54727142D01*
X108019523Y-54774761D01*
X108114761Y-54822380D01*
X108305238Y-54822380D01*
X108400476Y-54774761D01*
X108448095Y-54727142D01*
X108495714Y-54631904D01*
X108495714Y-54393809D01*
X108448095Y-54298571D01*
X108400476Y-54250952D01*
X108305238Y-54203333D01*
X108114761Y-54203333D01*
X108019523Y-54250952D01*
X107971904Y-54298571D01*
X107924285Y-54393809D01*
%TO.C,C2*%
X114353333Y-54027142D02*
X114305714Y-54074761D01*
X114162857Y-54122380D01*
X114067619Y-54122380D01*
X113924761Y-54074761D01*
X113829523Y-53979523D01*
X113781904Y-53884285D01*
X113734285Y-53693809D01*
X113734285Y-53550952D01*
X113781904Y-53360476D01*
X113829523Y-53265238D01*
X113924761Y-53170000D01*
X114067619Y-53122380D01*
X114162857Y-53122380D01*
X114305714Y-53170000D01*
X114353333Y-53217619D01*
X114734285Y-53217619D02*
X114781904Y-53170000D01*
X114877142Y-53122380D01*
X115115238Y-53122380D01*
X115210476Y-53170000D01*
X115258095Y-53217619D01*
X115305714Y-53312857D01*
X115305714Y-53408095D01*
X115258095Y-53550952D01*
X114686666Y-54122380D01*
X115305714Y-54122380D01*
%TO.C,C1*%
X119873333Y-55077142D02*
X119825714Y-55124761D01*
X119682857Y-55172380D01*
X119587619Y-55172380D01*
X119444761Y-55124761D01*
X119349523Y-55029523D01*
X119301904Y-54934285D01*
X119254285Y-54743809D01*
X119254285Y-54600952D01*
X119301904Y-54410476D01*
X119349523Y-54315238D01*
X119444761Y-54220000D01*
X119587619Y-54172380D01*
X119682857Y-54172380D01*
X119825714Y-54220000D01*
X119873333Y-54267619D01*
X120825714Y-55172380D02*
X120254285Y-55172380D01*
X120540000Y-55172380D02*
X120540000Y-54172380D01*
X120444761Y-54315238D01*
X120349523Y-54410476D01*
X120254285Y-54458095D01*
%TD*%
M02*
