%TF.GenerationSoftware,KiCad,Pcbnew,(5.1.12-1-10_14)*%
%TF.CreationDate,2022-02-21T12:57:33+08:00*%
%TF.ProjectId,esp32-c3_ddsu666,65737033-322d-4633-935f-646473753636,rev?*%
%TF.SameCoordinates,Original*%
%TF.FileFunction,Paste,Top*%
%TF.FilePolarity,Positive*%
%FSLAX46Y46*%
G04 Gerber Fmt 4.6, Leading zero omitted, Abs format (unit mm)*
G04 Created by KiCad (PCBNEW (5.1.12-1-10_14)) date 2022-02-21 12:57:33*
%MOMM*%
%LPD*%
G01*
G04 APERTURE LIST*
%ADD10R,1.500000X2.000000*%
%ADD11R,3.800000X2.000000*%
%ADD12R,0.399999X0.799998*%
%ADD13R,0.799998X0.399999*%
%ADD14R,1.450010X1.450010*%
%ADD15R,0.799998X0.799998*%
G04 APERTURE END LIST*
%TO.C,C3*%
G36*
G01*
X111265000Y-54620000D02*
X110315000Y-54620000D01*
G75*
G02*
X110065000Y-54370000I0J250000D01*
G01*
X110065000Y-53695000D01*
G75*
G02*
X110315000Y-53445000I250000J0D01*
G01*
X111265000Y-53445000D01*
G75*
G02*
X111515000Y-53695000I0J-250000D01*
G01*
X111515000Y-54370000D01*
G75*
G02*
X111265000Y-54620000I-250000J0D01*
G01*
G37*
G36*
G01*
X111265000Y-56695000D02*
X110315000Y-56695000D01*
G75*
G02*
X110065000Y-56445000I0J250000D01*
G01*
X110065000Y-55770000D01*
G75*
G02*
X110315000Y-55520000I250000J0D01*
G01*
X111265000Y-55520000D01*
G75*
G02*
X111515000Y-55770000I0J-250000D01*
G01*
X111515000Y-56445000D01*
G75*
G02*
X111265000Y-56695000I-250000J0D01*
G01*
G37*
%TD*%
%TO.C,C12*%
G36*
G01*
X122735000Y-55230000D02*
X123045000Y-55230000D01*
G75*
G02*
X123200000Y-55385000I0J-155000D01*
G01*
X123200000Y-55810000D01*
G75*
G02*
X123045000Y-55965000I-155000J0D01*
G01*
X122735000Y-55965000D01*
G75*
G02*
X122580000Y-55810000I0J155000D01*
G01*
X122580000Y-55385000D01*
G75*
G02*
X122735000Y-55230000I155000J0D01*
G01*
G37*
G36*
G01*
X122735000Y-54095000D02*
X123045000Y-54095000D01*
G75*
G02*
X123200000Y-54250000I0J-155000D01*
G01*
X123200000Y-54675000D01*
G75*
G02*
X123045000Y-54830000I-155000J0D01*
G01*
X122735000Y-54830000D01*
G75*
G02*
X122580000Y-54675000I0J155000D01*
G01*
X122580000Y-54250000D01*
G75*
G02*
X122735000Y-54095000I155000J0D01*
G01*
G37*
%TD*%
%TO.C,U2*%
G36*
G01*
X125335000Y-52800000D02*
X125035000Y-52800000D01*
G75*
G02*
X124885000Y-52650000I0J150000D01*
G01*
X124885000Y-51000000D01*
G75*
G02*
X125035000Y-50850000I150000J0D01*
G01*
X125335000Y-50850000D01*
G75*
G02*
X125485000Y-51000000I0J-150000D01*
G01*
X125485000Y-52650000D01*
G75*
G02*
X125335000Y-52800000I-150000J0D01*
G01*
G37*
G36*
G01*
X126605000Y-52800000D02*
X126305000Y-52800000D01*
G75*
G02*
X126155000Y-52650000I0J150000D01*
G01*
X126155000Y-51000000D01*
G75*
G02*
X126305000Y-50850000I150000J0D01*
G01*
X126605000Y-50850000D01*
G75*
G02*
X126755000Y-51000000I0J-150000D01*
G01*
X126755000Y-52650000D01*
G75*
G02*
X126605000Y-52800000I-150000J0D01*
G01*
G37*
G36*
G01*
X127875000Y-52800000D02*
X127575000Y-52800000D01*
G75*
G02*
X127425000Y-52650000I0J150000D01*
G01*
X127425000Y-51000000D01*
G75*
G02*
X127575000Y-50850000I150000J0D01*
G01*
X127875000Y-50850000D01*
G75*
G02*
X128025000Y-51000000I0J-150000D01*
G01*
X128025000Y-52650000D01*
G75*
G02*
X127875000Y-52800000I-150000J0D01*
G01*
G37*
G36*
G01*
X129145000Y-52800000D02*
X128845000Y-52800000D01*
G75*
G02*
X128695000Y-52650000I0J150000D01*
G01*
X128695000Y-51000000D01*
G75*
G02*
X128845000Y-50850000I150000J0D01*
G01*
X129145000Y-50850000D01*
G75*
G02*
X129295000Y-51000000I0J-150000D01*
G01*
X129295000Y-52650000D01*
G75*
G02*
X129145000Y-52800000I-150000J0D01*
G01*
G37*
G36*
G01*
X129145000Y-57750000D02*
X128845000Y-57750000D01*
G75*
G02*
X128695000Y-57600000I0J150000D01*
G01*
X128695000Y-55950000D01*
G75*
G02*
X128845000Y-55800000I150000J0D01*
G01*
X129145000Y-55800000D01*
G75*
G02*
X129295000Y-55950000I0J-150000D01*
G01*
X129295000Y-57600000D01*
G75*
G02*
X129145000Y-57750000I-150000J0D01*
G01*
G37*
G36*
G01*
X127875000Y-57750000D02*
X127575000Y-57750000D01*
G75*
G02*
X127425000Y-57600000I0J150000D01*
G01*
X127425000Y-55950000D01*
G75*
G02*
X127575000Y-55800000I150000J0D01*
G01*
X127875000Y-55800000D01*
G75*
G02*
X128025000Y-55950000I0J-150000D01*
G01*
X128025000Y-57600000D01*
G75*
G02*
X127875000Y-57750000I-150000J0D01*
G01*
G37*
G36*
G01*
X126605000Y-57750000D02*
X126305000Y-57750000D01*
G75*
G02*
X126155000Y-57600000I0J150000D01*
G01*
X126155000Y-55950000D01*
G75*
G02*
X126305000Y-55800000I150000J0D01*
G01*
X126605000Y-55800000D01*
G75*
G02*
X126755000Y-55950000I0J-150000D01*
G01*
X126755000Y-57600000D01*
G75*
G02*
X126605000Y-57750000I-150000J0D01*
G01*
G37*
G36*
G01*
X125335000Y-57750000D02*
X125035000Y-57750000D01*
G75*
G02*
X124885000Y-57600000I0J150000D01*
G01*
X124885000Y-55950000D01*
G75*
G02*
X125035000Y-55800000I150000J0D01*
G01*
X125335000Y-55800000D01*
G75*
G02*
X125485000Y-55950000I0J-150000D01*
G01*
X125485000Y-57600000D01*
G75*
G02*
X125335000Y-57750000I-150000J0D01*
G01*
G37*
%TD*%
%TO.C,R2*%
G36*
G01*
X122540000Y-52570000D02*
X122540000Y-52890000D01*
G75*
G02*
X122380000Y-53050000I-160000J0D01*
G01*
X121985000Y-53050000D01*
G75*
G02*
X121825000Y-52890000I0J160000D01*
G01*
X121825000Y-52570000D01*
G75*
G02*
X121985000Y-52410000I160000J0D01*
G01*
X122380000Y-52410000D01*
G75*
G02*
X122540000Y-52570000I0J-160000D01*
G01*
G37*
G36*
G01*
X123735000Y-52570000D02*
X123735000Y-52890000D01*
G75*
G02*
X123575000Y-53050000I-160000J0D01*
G01*
X123180000Y-53050000D01*
G75*
G02*
X123020000Y-52890000I0J160000D01*
G01*
X123020000Y-52570000D01*
G75*
G02*
X123180000Y-52410000I160000J0D01*
G01*
X123575000Y-52410000D01*
G75*
G02*
X123735000Y-52570000I0J-160000D01*
G01*
G37*
%TD*%
%TO.C,R1*%
G36*
G01*
X123040000Y-51870000D02*
X123040000Y-51550000D01*
G75*
G02*
X123200000Y-51390000I160000J0D01*
G01*
X123595000Y-51390000D01*
G75*
G02*
X123755000Y-51550000I0J-160000D01*
G01*
X123755000Y-51870000D01*
G75*
G02*
X123595000Y-52030000I-160000J0D01*
G01*
X123200000Y-52030000D01*
G75*
G02*
X123040000Y-51870000I0J160000D01*
G01*
G37*
G36*
G01*
X121845000Y-51870000D02*
X121845000Y-51550000D01*
G75*
G02*
X122005000Y-51390000I160000J0D01*
G01*
X122400000Y-51390000D01*
G75*
G02*
X122560000Y-51550000I0J-160000D01*
G01*
X122560000Y-51870000D01*
G75*
G02*
X122400000Y-52030000I-160000J0D01*
G01*
X122005000Y-52030000D01*
G75*
G02*
X121845000Y-51870000I0J160000D01*
G01*
G37*
%TD*%
%TO.C,R14*%
G36*
G01*
X116680000Y-52615000D02*
X116680000Y-52245000D01*
G75*
G02*
X116815000Y-52110000I135000J0D01*
G01*
X117085000Y-52110000D01*
G75*
G02*
X117220000Y-52245000I0J-135000D01*
G01*
X117220000Y-52615000D01*
G75*
G02*
X117085000Y-52750000I-135000J0D01*
G01*
X116815000Y-52750000D01*
G75*
G02*
X116680000Y-52615000I0J135000D01*
G01*
G37*
G36*
G01*
X115660000Y-52615000D02*
X115660000Y-52245000D01*
G75*
G02*
X115795000Y-52110000I135000J0D01*
G01*
X116065000Y-52110000D01*
G75*
G02*
X116200000Y-52245000I0J-135000D01*
G01*
X116200000Y-52615000D01*
G75*
G02*
X116065000Y-52750000I-135000J0D01*
G01*
X115795000Y-52750000D01*
G75*
G02*
X115660000Y-52615000I0J135000D01*
G01*
G37*
%TD*%
%TO.C,R12*%
G36*
G01*
X108715000Y-66600000D02*
X108345000Y-66600000D01*
G75*
G02*
X108210000Y-66465000I0J135000D01*
G01*
X108210000Y-66195000D01*
G75*
G02*
X108345000Y-66060000I135000J0D01*
G01*
X108715000Y-66060000D01*
G75*
G02*
X108850000Y-66195000I0J-135000D01*
G01*
X108850000Y-66465000D01*
G75*
G02*
X108715000Y-66600000I-135000J0D01*
G01*
G37*
G36*
G01*
X108715000Y-67620000D02*
X108345000Y-67620000D01*
G75*
G02*
X108210000Y-67485000I0J135000D01*
G01*
X108210000Y-67215000D01*
G75*
G02*
X108345000Y-67080000I135000J0D01*
G01*
X108715000Y-67080000D01*
G75*
G02*
X108850000Y-67215000I0J-135000D01*
G01*
X108850000Y-67485000D01*
G75*
G02*
X108715000Y-67620000I-135000J0D01*
G01*
G37*
%TD*%
%TO.C,D2*%
G36*
G01*
X115983750Y-55180000D02*
X116896250Y-55180000D01*
G75*
G02*
X117140000Y-55423750I0J-243750D01*
G01*
X117140000Y-55911250D01*
G75*
G02*
X116896250Y-56155000I-243750J0D01*
G01*
X115983750Y-56155000D01*
G75*
G02*
X115740000Y-55911250I0J243750D01*
G01*
X115740000Y-55423750D01*
G75*
G02*
X115983750Y-55180000I243750J0D01*
G01*
G37*
G36*
G01*
X115983750Y-53305000D02*
X116896250Y-53305000D01*
G75*
G02*
X117140000Y-53548750I0J-243750D01*
G01*
X117140000Y-54036250D01*
G75*
G02*
X116896250Y-54280000I-243750J0D01*
G01*
X115983750Y-54280000D01*
G75*
G02*
X115740000Y-54036250I0J243750D01*
G01*
X115740000Y-53548750D01*
G75*
G02*
X115983750Y-53305000I243750J0D01*
G01*
G37*
%TD*%
%TO.C,D1*%
G36*
G01*
X105220000Y-66943750D02*
X105220000Y-67856250D01*
G75*
G02*
X104976250Y-68100000I-243750J0D01*
G01*
X104488750Y-68100000D01*
G75*
G02*
X104245000Y-67856250I0J243750D01*
G01*
X104245000Y-66943750D01*
G75*
G02*
X104488750Y-66700000I243750J0D01*
G01*
X104976250Y-66700000D01*
G75*
G02*
X105220000Y-66943750I0J-243750D01*
G01*
G37*
G36*
G01*
X107095000Y-66943750D02*
X107095000Y-67856250D01*
G75*
G02*
X106851250Y-68100000I-243750J0D01*
G01*
X106363750Y-68100000D01*
G75*
G02*
X106120000Y-67856250I0J243750D01*
G01*
X106120000Y-66943750D01*
G75*
G02*
X106363750Y-66700000I243750J0D01*
G01*
X106851250Y-66700000D01*
G75*
G02*
X107095000Y-66943750I0J-243750D01*
G01*
G37*
%TD*%
%TO.C,C7*%
G36*
G01*
X103949999Y-64540000D02*
X106850001Y-64540000D01*
G75*
G02*
X107100000Y-64789999I0J-249999D01*
G01*
X107100000Y-65690001D01*
G75*
G02*
X106850001Y-65940000I-249999J0D01*
G01*
X103949999Y-65940000D01*
G75*
G02*
X103700000Y-65690001I0J249999D01*
G01*
X103700000Y-64789999D01*
G75*
G02*
X103949999Y-64540000I249999J0D01*
G01*
G37*
G36*
G01*
X103949999Y-60440000D02*
X106850001Y-60440000D01*
G75*
G02*
X107100000Y-60689999I0J-249999D01*
G01*
X107100000Y-61590001D01*
G75*
G02*
X106850001Y-61840000I-249999J0D01*
G01*
X103949999Y-61840000D01*
G75*
G02*
X103700000Y-61590001I0J249999D01*
G01*
X103700000Y-60689999D01*
G75*
G02*
X103949999Y-60440000I249999J0D01*
G01*
G37*
%TD*%
D10*
%TO.C,U4*%
X107780000Y-52260000D03*
X103180000Y-52260000D03*
X105480000Y-52260000D03*
D11*
X105480000Y-58560000D03*
%TD*%
D12*
%TO.C,U1*%
X119639892Y-68229952D03*
X118839792Y-68229952D03*
X118039946Y-68229952D03*
X117239846Y-68229952D03*
X116439746Y-68229952D03*
X115639900Y-68229952D03*
X114839800Y-68229952D03*
X114039954Y-68229952D03*
X113239854Y-68229952D03*
X112440008Y-68229952D03*
X111639908Y-68229952D03*
D13*
X110490050Y-63280000D03*
X110490050Y-62479900D03*
X110490050Y-61680054D03*
X110490050Y-60879954D03*
X110490050Y-60079854D03*
X110490050Y-59280008D03*
D12*
X121240092Y-58330048D03*
X120439992Y-58330048D03*
X119640146Y-58330048D03*
X118840046Y-58330048D03*
D14*
X116440000Y-63280000D03*
D15*
X122389950Y-68229952D03*
X122389950Y-58330048D03*
X110490050Y-58330048D03*
X110490050Y-68229952D03*
D13*
X122389950Y-67279992D03*
X122389950Y-66479892D03*
X122389950Y-65680046D03*
X122389950Y-64879946D03*
X122389950Y-64080100D03*
X122389950Y-63280000D03*
X122389950Y-62480154D03*
X122389950Y-61680054D03*
X122389950Y-60879954D03*
X122389950Y-60080108D03*
X122389950Y-59280008D03*
D12*
X118039946Y-58330048D03*
X117239846Y-58330048D03*
X116440000Y-58330048D03*
X115639900Y-58330048D03*
X114840054Y-58330048D03*
X114039954Y-58330048D03*
X113240108Y-58330048D03*
X112440008Y-58330048D03*
X111639908Y-58330048D03*
D13*
X110490050Y-64079846D03*
X110490050Y-64879946D03*
X110490050Y-65679792D03*
X110490050Y-66480146D03*
X110490050Y-67279992D03*
D12*
X120439992Y-68229952D03*
X121239838Y-68229952D03*
D14*
X114464896Y-63280000D03*
X114464896Y-65255104D03*
X116440000Y-65255104D03*
X118415104Y-63280000D03*
X118415104Y-61304896D03*
X116440000Y-61304896D03*
X114464896Y-61304896D03*
%TD*%
%TO.C,R13*%
G36*
G01*
X113575000Y-54870000D02*
X113205000Y-54870000D01*
G75*
G02*
X113070000Y-54735000I0J135000D01*
G01*
X113070000Y-54465000D01*
G75*
G02*
X113205000Y-54330000I135000J0D01*
G01*
X113575000Y-54330000D01*
G75*
G02*
X113710000Y-54465000I0J-135000D01*
G01*
X113710000Y-54735000D01*
G75*
G02*
X113575000Y-54870000I-135000J0D01*
G01*
G37*
G36*
G01*
X113575000Y-55890000D02*
X113205000Y-55890000D01*
G75*
G02*
X113070000Y-55755000I0J135000D01*
G01*
X113070000Y-55485000D01*
G75*
G02*
X113205000Y-55350000I135000J0D01*
G01*
X113575000Y-55350000D01*
G75*
G02*
X113710000Y-55485000I0J-135000D01*
G01*
X113710000Y-55755000D01*
G75*
G02*
X113575000Y-55890000I-135000J0D01*
G01*
G37*
%TD*%
%TO.C,R11*%
G36*
G01*
X125185000Y-59940000D02*
X125555000Y-59940000D01*
G75*
G02*
X125690000Y-60075000I0J-135000D01*
G01*
X125690000Y-60345000D01*
G75*
G02*
X125555000Y-60480000I-135000J0D01*
G01*
X125185000Y-60480000D01*
G75*
G02*
X125050000Y-60345000I0J135000D01*
G01*
X125050000Y-60075000D01*
G75*
G02*
X125185000Y-59940000I135000J0D01*
G01*
G37*
G36*
G01*
X125185000Y-58920000D02*
X125555000Y-58920000D01*
G75*
G02*
X125690000Y-59055000I0J-135000D01*
G01*
X125690000Y-59325000D01*
G75*
G02*
X125555000Y-59460000I-135000J0D01*
G01*
X125185000Y-59460000D01*
G75*
G02*
X125050000Y-59325000I0J135000D01*
G01*
X125050000Y-59055000D01*
G75*
G02*
X125185000Y-58920000I135000J0D01*
G01*
G37*
%TD*%
%TO.C,C11*%
G36*
G01*
X124520000Y-59500000D02*
X124180000Y-59500000D01*
G75*
G02*
X124040000Y-59360000I0J140000D01*
G01*
X124040000Y-59080000D01*
G75*
G02*
X124180000Y-58940000I140000J0D01*
G01*
X124520000Y-58940000D01*
G75*
G02*
X124660000Y-59080000I0J-140000D01*
G01*
X124660000Y-59360000D01*
G75*
G02*
X124520000Y-59500000I-140000J0D01*
G01*
G37*
G36*
G01*
X124520000Y-60460000D02*
X124180000Y-60460000D01*
G75*
G02*
X124040000Y-60320000I0J140000D01*
G01*
X124040000Y-60040000D01*
G75*
G02*
X124180000Y-59900000I140000J0D01*
G01*
X124520000Y-59900000D01*
G75*
G02*
X124660000Y-60040000I0J-140000D01*
G01*
X124660000Y-60320000D01*
G75*
G02*
X124520000Y-60460000I-140000J0D01*
G01*
G37*
%TD*%
%TO.C,C10*%
G36*
G01*
X112650000Y-52360000D02*
X112650000Y-52700000D01*
G75*
G02*
X112510000Y-52840000I-140000J0D01*
G01*
X112230000Y-52840000D01*
G75*
G02*
X112090000Y-52700000I0J140000D01*
G01*
X112090000Y-52360000D01*
G75*
G02*
X112230000Y-52220000I140000J0D01*
G01*
X112510000Y-52220000D01*
G75*
G02*
X112650000Y-52360000I0J-140000D01*
G01*
G37*
G36*
G01*
X113610000Y-52360000D02*
X113610000Y-52700000D01*
G75*
G02*
X113470000Y-52840000I-140000J0D01*
G01*
X113190000Y-52840000D01*
G75*
G02*
X113050000Y-52700000I0J140000D01*
G01*
X113050000Y-52360000D01*
G75*
G02*
X113190000Y-52220000I140000J0D01*
G01*
X113470000Y-52220000D01*
G75*
G02*
X113610000Y-52360000I0J-140000D01*
G01*
G37*
%TD*%
%TO.C,C8*%
G36*
G01*
X108015000Y-63240000D02*
X108965000Y-63240000D01*
G75*
G02*
X109215000Y-63490000I0J-250000D01*
G01*
X109215000Y-63990000D01*
G75*
G02*
X108965000Y-64240000I-250000J0D01*
G01*
X108015000Y-64240000D01*
G75*
G02*
X107765000Y-63990000I0J250000D01*
G01*
X107765000Y-63490000D01*
G75*
G02*
X108015000Y-63240000I250000J0D01*
G01*
G37*
G36*
G01*
X108015000Y-61340000D02*
X108965000Y-61340000D01*
G75*
G02*
X109215000Y-61590000I0J-250000D01*
G01*
X109215000Y-62090000D01*
G75*
G02*
X108965000Y-62340000I-250000J0D01*
G01*
X108015000Y-62340000D01*
G75*
G02*
X107765000Y-62090000I0J250000D01*
G01*
X107765000Y-61590000D01*
G75*
G02*
X108015000Y-61340000I250000J0D01*
G01*
G37*
%TD*%
%TO.C,C6*%
G36*
G01*
X109490000Y-51830000D02*
X109830000Y-51830000D01*
G75*
G02*
X109970000Y-51970000I0J-140000D01*
G01*
X109970000Y-52250000D01*
G75*
G02*
X109830000Y-52390000I-140000J0D01*
G01*
X109490000Y-52390000D01*
G75*
G02*
X109350000Y-52250000I0J140000D01*
G01*
X109350000Y-51970000D01*
G75*
G02*
X109490000Y-51830000I140000J0D01*
G01*
G37*
G36*
G01*
X109490000Y-50870000D02*
X109830000Y-50870000D01*
G75*
G02*
X109970000Y-51010000I0J-140000D01*
G01*
X109970000Y-51290000D01*
G75*
G02*
X109830000Y-51430000I-140000J0D01*
G01*
X109490000Y-51430000D01*
G75*
G02*
X109350000Y-51290000I0J140000D01*
G01*
X109350000Y-51010000D01*
G75*
G02*
X109490000Y-50870000I140000J0D01*
G01*
G37*
%TD*%
%TO.C,C2*%
G36*
G01*
X112640000Y-53410000D02*
X112640000Y-53750000D01*
G75*
G02*
X112500000Y-53890000I-140000J0D01*
G01*
X112220000Y-53890000D01*
G75*
G02*
X112080000Y-53750000I0J140000D01*
G01*
X112080000Y-53410000D01*
G75*
G02*
X112220000Y-53270000I140000J0D01*
G01*
X112500000Y-53270000D01*
G75*
G02*
X112640000Y-53410000I0J-140000D01*
G01*
G37*
G36*
G01*
X113600000Y-53410000D02*
X113600000Y-53750000D01*
G75*
G02*
X113460000Y-53890000I-140000J0D01*
G01*
X113180000Y-53890000D01*
G75*
G02*
X113040000Y-53750000I0J140000D01*
G01*
X113040000Y-53410000D01*
G75*
G02*
X113180000Y-53270000I140000J0D01*
G01*
X113460000Y-53270000D01*
G75*
G02*
X113600000Y-53410000I0J-140000D01*
G01*
G37*
%TD*%
%TO.C,C1*%
G36*
G01*
X119930000Y-55870000D02*
X119930000Y-56210000D01*
G75*
G02*
X119790000Y-56350000I-140000J0D01*
G01*
X119510000Y-56350000D01*
G75*
G02*
X119370000Y-56210000I0J140000D01*
G01*
X119370000Y-55870000D01*
G75*
G02*
X119510000Y-55730000I140000J0D01*
G01*
X119790000Y-55730000D01*
G75*
G02*
X119930000Y-55870000I0J-140000D01*
G01*
G37*
G36*
G01*
X120890000Y-55870000D02*
X120890000Y-56210000D01*
G75*
G02*
X120750000Y-56350000I-140000J0D01*
G01*
X120470000Y-56350000D01*
G75*
G02*
X120330000Y-56210000I0J140000D01*
G01*
X120330000Y-55870000D01*
G75*
G02*
X120470000Y-55730000I140000J0D01*
G01*
X120750000Y-55730000D01*
G75*
G02*
X120890000Y-55870000I0J-140000D01*
G01*
G37*
%TD*%
M02*
