%TF.GenerationSoftware,KiCad,Pcbnew,(5.1.12-1-10_14)*%
%TF.CreationDate,2022-02-21T12:57:33+08:00*%
%TF.ProjectId,esp32-c3_ddsu666,65737033-322d-4633-935f-646473753636,rev?*%
%TF.SameCoordinates,Original*%
%TF.FileFunction,Copper,L4,Bot*%
%TF.FilePolarity,Positive*%
%FSLAX46Y46*%
G04 Gerber Fmt 4.6, Leading zero omitted, Abs format (unit mm)*
G04 Created by KiCad (PCBNEW (5.1.12-1-10_14)) date 2022-02-21 12:57:33*
%MOMM*%
%LPD*%
G01*
G04 APERTURE LIST*
%TA.AperFunction,ComponentPad*%
%ADD10O,1.700000X1.700000*%
%TD*%
%TA.AperFunction,ComponentPad*%
%ADD11R,1.700000X1.700000*%
%TD*%
%TA.AperFunction,ComponentPad*%
%ADD12R,1.350000X1.350000*%
%TD*%
%TA.AperFunction,ViaPad*%
%ADD13C,0.800000*%
%TD*%
%TA.AperFunction,Conductor*%
%ADD14C,0.381000*%
%TD*%
%TA.AperFunction,Conductor*%
%ADD15C,0.254000*%
%TD*%
%TA.AperFunction,Conductor*%
%ADD16C,0.100000*%
%TD*%
G04 APERTURE END LIST*
D10*
%TO.P,J2,3*%
%TO.N,U0TXD*%
X125550000Y-62980000D03*
%TO.P,J2,2*%
%TO.N,U0RXD*%
X125550000Y-65520000D03*
D11*
%TO.P,J2,1*%
%TO.N,GND*%
X125550000Y-68060000D03*
%TD*%
D12*
%TO.P,J5,1*%
%TO.N,B*%
X122500000Y-49000000D03*
%TD*%
%TO.P,J4,1*%
%TO.N,A*%
X117500000Y-49000000D03*
%TD*%
%TO.P,J3,1*%
%TO.N,GND*%
X112500000Y-49000000D03*
%TD*%
%TO.P,J1,1*%
%TO.N,+5V*%
X107500000Y-49000000D03*
%TD*%
D13*
%TO.N,GND*%
X120890000Y-51150000D03*
X128720000Y-54310000D03*
X109460000Y-68920000D03*
X107700000Y-55000000D03*
X105420000Y-63920000D03*
X118340000Y-56060000D03*
%TO.N,+3V3*%
X118520000Y-54410000D03*
X120970000Y-65400000D03*
X105480000Y-55110000D03*
X103940000Y-67420000D03*
%TO.N,+5V*%
X124440000Y-52130000D03*
X119467831Y-50882169D03*
X119537169Y-53072831D03*
%TO.N,U0RXD*%
X112290000Y-62690000D03*
%TO.N,U0TXD*%
X112290000Y-64330000D03*
%TD*%
D14*
%TO.N,+5V*%
X107500000Y-49000000D02*
X107570000Y-49000000D01*
%TD*%
D15*
%TO.N,+5V*%
X108498000Y-49811282D02*
X106502000Y-49804717D01*
X106502000Y-42752000D01*
X108498001Y-42752000D01*
X108498000Y-49811282D01*
%TA.AperFunction,Conductor*%
D16*
G36*
X108498000Y-49811282D02*
G01*
X106502000Y-49804717D01*
X106502000Y-42752000D01*
X108498001Y-42752000D01*
X108498000Y-49811282D01*
G37*
%TD.AperFunction*%
%TD*%
D15*
%TO.N,GND*%
X113498000Y-49807805D02*
X111502000Y-49787575D01*
X111502000Y-42752000D01*
X113498001Y-42752000D01*
X113498000Y-49807805D01*
%TA.AperFunction,Conductor*%
D16*
G36*
X113498000Y-49807805D02*
G01*
X111502000Y-49787575D01*
X111502000Y-42752000D01*
X113498001Y-42752000D01*
X113498000Y-49807805D01*
G37*
%TD.AperFunction*%
%TD*%
D15*
%TO.N,B*%
X123498001Y-49861348D02*
X121502000Y-49854513D01*
X121502000Y-42752000D01*
X123498000Y-42752000D01*
X123498001Y-49861348D01*
%TA.AperFunction,Conductor*%
D16*
G36*
X123498001Y-49861348D02*
G01*
X121502000Y-49854513D01*
X121502000Y-42752000D01*
X123498000Y-42752000D01*
X123498001Y-49861348D01*
G37*
%TD.AperFunction*%
%TD*%
D15*
%TO.N,A*%
X118498001Y-49839526D02*
X116502000Y-49825994D01*
X116502000Y-42752000D01*
X118498000Y-42752000D01*
X118498001Y-49839526D01*
%TA.AperFunction,Conductor*%
D16*
G36*
X118498001Y-49839526D02*
G01*
X116502000Y-49825994D01*
X116502000Y-42752000D01*
X118498000Y-42752000D01*
X118498001Y-49839526D01*
G37*
%TD.AperFunction*%
%TD*%
D15*
%TO.N,GND*%
X129748001Y-58248000D02*
X127012375Y-58248000D01*
X127000000Y-58246781D01*
X126987624Y-58248000D01*
X126950599Y-58251647D01*
X126903097Y-58266056D01*
X126859319Y-58289456D01*
X126820947Y-58320947D01*
X126789456Y-58359319D01*
X126766056Y-58403097D01*
X126751647Y-58450599D01*
X126746781Y-58500000D01*
X126748000Y-58512375D01*
X126748001Y-66675992D01*
X126644180Y-66620498D01*
X126524482Y-66584188D01*
X126400000Y-66571928D01*
X126081890Y-66573660D01*
X126107519Y-66563044D01*
X126300294Y-66434236D01*
X126464236Y-66270294D01*
X126593044Y-66077519D01*
X126681769Y-65863318D01*
X126727000Y-65635924D01*
X126727000Y-65404076D01*
X126681769Y-65176682D01*
X126593044Y-64962481D01*
X126464236Y-64769706D01*
X126300294Y-64605764D01*
X126107519Y-64476956D01*
X125893318Y-64388231D01*
X125665924Y-64343000D01*
X125434076Y-64343000D01*
X125206682Y-64388231D01*
X124992481Y-64476956D01*
X124799706Y-64605764D01*
X124635764Y-64769706D01*
X124506956Y-64962481D01*
X124418231Y-65176682D01*
X124373000Y-65404076D01*
X124373000Y-65635924D01*
X124418231Y-65863318D01*
X124506956Y-66077519D01*
X124635764Y-66270294D01*
X124799706Y-66434236D01*
X124992481Y-66563044D01*
X125018110Y-66573660D01*
X124700000Y-66571928D01*
X124575518Y-66584188D01*
X124455820Y-66620498D01*
X124345506Y-66679463D01*
X124248815Y-66758815D01*
X124169463Y-66855506D01*
X124110498Y-66965820D01*
X124074188Y-67085518D01*
X124061928Y-67210000D01*
X124065000Y-67774250D01*
X124223750Y-67933000D01*
X125423000Y-67933000D01*
X125423000Y-67913000D01*
X125677000Y-67913000D01*
X125677000Y-67933000D01*
X125697000Y-67933000D01*
X125697000Y-68187000D01*
X125677000Y-68187000D01*
X125677000Y-68207000D01*
X125423000Y-68207000D01*
X125423000Y-68187000D01*
X124223750Y-68187000D01*
X124169862Y-68240888D01*
X103252000Y-68291354D01*
X103252000Y-67658764D01*
X103295741Y-67764364D01*
X103375302Y-67883436D01*
X103476564Y-67984698D01*
X103595636Y-68064259D01*
X103727942Y-68119062D01*
X103868397Y-68147000D01*
X104011603Y-68147000D01*
X104152058Y-68119062D01*
X104284364Y-68064259D01*
X104403436Y-67984698D01*
X104504698Y-67883436D01*
X104584259Y-67764364D01*
X104639062Y-67632058D01*
X104667000Y-67491603D01*
X104667000Y-67348397D01*
X104639062Y-67207942D01*
X104584259Y-67075636D01*
X104504698Y-66956564D01*
X104403436Y-66855302D01*
X104284364Y-66775741D01*
X104152058Y-66720938D01*
X104011603Y-66693000D01*
X103868397Y-66693000D01*
X103727942Y-66720938D01*
X103595636Y-66775741D01*
X103476564Y-66855302D01*
X103375302Y-66956564D01*
X103295741Y-67075636D01*
X103252000Y-67181236D01*
X103252000Y-65328397D01*
X120243000Y-65328397D01*
X120243000Y-65471603D01*
X120270938Y-65612058D01*
X120325741Y-65744364D01*
X120405302Y-65863436D01*
X120506564Y-65964698D01*
X120625636Y-66044259D01*
X120757942Y-66099062D01*
X120898397Y-66127000D01*
X121041603Y-66127000D01*
X121182058Y-66099062D01*
X121314364Y-66044259D01*
X121433436Y-65964698D01*
X121534698Y-65863436D01*
X121614259Y-65744364D01*
X121669062Y-65612058D01*
X121697000Y-65471603D01*
X121697000Y-65328397D01*
X121669062Y-65187942D01*
X121614259Y-65055636D01*
X121534698Y-64936564D01*
X121433436Y-64835302D01*
X121314364Y-64755741D01*
X121182058Y-64700938D01*
X121041603Y-64673000D01*
X120898397Y-64673000D01*
X120757942Y-64700938D01*
X120625636Y-64755741D01*
X120506564Y-64835302D01*
X120405302Y-64936564D01*
X120325741Y-65055636D01*
X120270938Y-65187942D01*
X120243000Y-65328397D01*
X103252000Y-65328397D01*
X103252000Y-64258397D01*
X111563000Y-64258397D01*
X111563000Y-64401603D01*
X111590938Y-64542058D01*
X111645741Y-64674364D01*
X111725302Y-64793436D01*
X111826564Y-64894698D01*
X111945636Y-64974259D01*
X112077942Y-65029062D01*
X112218397Y-65057000D01*
X112361603Y-65057000D01*
X112502058Y-65029062D01*
X112634364Y-64974259D01*
X112753436Y-64894698D01*
X112854698Y-64793436D01*
X112934259Y-64674364D01*
X112989062Y-64542058D01*
X113017000Y-64401603D01*
X113017000Y-64258397D01*
X112989062Y-64117942D01*
X112934259Y-63985636D01*
X112854698Y-63866564D01*
X112753436Y-63765302D01*
X112634364Y-63685741D01*
X112502058Y-63630938D01*
X112361603Y-63603000D01*
X112218397Y-63603000D01*
X112077942Y-63630938D01*
X111945636Y-63685741D01*
X111826564Y-63765302D01*
X111725302Y-63866564D01*
X111645741Y-63985636D01*
X111590938Y-64117942D01*
X111563000Y-64258397D01*
X103252000Y-64258397D01*
X103252000Y-62618397D01*
X111563000Y-62618397D01*
X111563000Y-62761603D01*
X111590938Y-62902058D01*
X111645741Y-63034364D01*
X111725302Y-63153436D01*
X111826564Y-63254698D01*
X111945636Y-63334259D01*
X112077942Y-63389062D01*
X112218397Y-63417000D01*
X112361603Y-63417000D01*
X112502058Y-63389062D01*
X112634364Y-63334259D01*
X112753436Y-63254698D01*
X112854698Y-63153436D01*
X112934259Y-63034364D01*
X112989062Y-62902058D01*
X112996617Y-62864076D01*
X124373000Y-62864076D01*
X124373000Y-63095924D01*
X124418231Y-63323318D01*
X124506956Y-63537519D01*
X124635764Y-63730294D01*
X124799706Y-63894236D01*
X124992481Y-64023044D01*
X125206682Y-64111769D01*
X125434076Y-64157000D01*
X125665924Y-64157000D01*
X125893318Y-64111769D01*
X126107519Y-64023044D01*
X126300294Y-63894236D01*
X126464236Y-63730294D01*
X126593044Y-63537519D01*
X126681769Y-63323318D01*
X126727000Y-63095924D01*
X126727000Y-62864076D01*
X126681769Y-62636682D01*
X126593044Y-62422481D01*
X126464236Y-62229706D01*
X126300294Y-62065764D01*
X126107519Y-61936956D01*
X125893318Y-61848231D01*
X125665924Y-61803000D01*
X125434076Y-61803000D01*
X125206682Y-61848231D01*
X124992481Y-61936956D01*
X124799706Y-62065764D01*
X124635764Y-62229706D01*
X124506956Y-62422481D01*
X124418231Y-62636682D01*
X124373000Y-62864076D01*
X112996617Y-62864076D01*
X113017000Y-62761603D01*
X113017000Y-62618397D01*
X112989062Y-62477942D01*
X112934259Y-62345636D01*
X112854698Y-62226564D01*
X112753436Y-62125302D01*
X112634364Y-62045741D01*
X112502058Y-61990938D01*
X112361603Y-61963000D01*
X112218397Y-61963000D01*
X112077942Y-61990938D01*
X111945636Y-62045741D01*
X111826564Y-62125302D01*
X111725302Y-62226564D01*
X111645741Y-62345636D01*
X111590938Y-62477942D01*
X111563000Y-62618397D01*
X103252000Y-62618397D01*
X103252000Y-58512375D01*
X103253219Y-58500000D01*
X103248353Y-58450599D01*
X103233944Y-58403097D01*
X103210544Y-58359319D01*
X103179053Y-58320947D01*
X103140681Y-58289456D01*
X103096903Y-58266056D01*
X103049401Y-58251647D01*
X103012376Y-58248000D01*
X103000000Y-58246781D01*
X102987625Y-58248000D01*
X100252000Y-58248000D01*
X100252000Y-55038397D01*
X104753000Y-55038397D01*
X104753000Y-55181603D01*
X104780938Y-55322058D01*
X104835741Y-55454364D01*
X104915302Y-55573436D01*
X105016564Y-55674698D01*
X105135636Y-55754259D01*
X105267942Y-55809062D01*
X105408397Y-55837000D01*
X105551603Y-55837000D01*
X105692058Y-55809062D01*
X105824364Y-55754259D01*
X105943436Y-55674698D01*
X106044698Y-55573436D01*
X106124259Y-55454364D01*
X106179062Y-55322058D01*
X106207000Y-55181603D01*
X106207000Y-55038397D01*
X106179062Y-54897942D01*
X106124259Y-54765636D01*
X106044698Y-54646564D01*
X105943436Y-54545302D01*
X105824364Y-54465741D01*
X105692058Y-54410938D01*
X105551603Y-54383000D01*
X105408397Y-54383000D01*
X105267942Y-54410938D01*
X105135636Y-54465741D01*
X105016564Y-54545302D01*
X104915302Y-54646564D01*
X104835741Y-54765636D01*
X104780938Y-54897942D01*
X104753000Y-55038397D01*
X100252000Y-55038397D01*
X100252000Y-54338397D01*
X117793000Y-54338397D01*
X117793000Y-54481603D01*
X117820938Y-54622058D01*
X117875741Y-54754364D01*
X117955302Y-54873436D01*
X118056564Y-54974698D01*
X118175636Y-55054259D01*
X118307942Y-55109062D01*
X118448397Y-55137000D01*
X118591603Y-55137000D01*
X118732058Y-55109062D01*
X118864364Y-55054259D01*
X118983436Y-54974698D01*
X119084698Y-54873436D01*
X119164259Y-54754364D01*
X119219062Y-54622058D01*
X119247000Y-54481603D01*
X119247000Y-54338397D01*
X119219062Y-54197942D01*
X119164259Y-54065636D01*
X119084698Y-53946564D01*
X118983436Y-53845302D01*
X118864364Y-53765741D01*
X118732058Y-53710938D01*
X118591603Y-53683000D01*
X118448397Y-53683000D01*
X118307942Y-53710938D01*
X118175636Y-53765741D01*
X118056564Y-53845302D01*
X117955302Y-53946564D01*
X117875741Y-54065636D01*
X117820938Y-54197942D01*
X117793000Y-54338397D01*
X100252000Y-54338397D01*
X100252000Y-53001228D01*
X118810169Y-53001228D01*
X118810169Y-53144434D01*
X118838107Y-53284889D01*
X118892910Y-53417195D01*
X118972471Y-53536267D01*
X119073733Y-53637529D01*
X119192805Y-53717090D01*
X119325111Y-53771893D01*
X119465566Y-53799831D01*
X119608772Y-53799831D01*
X119749227Y-53771893D01*
X119881533Y-53717090D01*
X120000605Y-53637529D01*
X120101867Y-53536267D01*
X120181428Y-53417195D01*
X120236231Y-53284889D01*
X120264169Y-53144434D01*
X120264169Y-53001228D01*
X120236231Y-52860773D01*
X120181428Y-52728467D01*
X120101867Y-52609395D01*
X120000605Y-52508133D01*
X119881533Y-52428572D01*
X119749227Y-52373769D01*
X119608772Y-52345831D01*
X119465566Y-52345831D01*
X119325111Y-52373769D01*
X119192805Y-52428572D01*
X119073733Y-52508133D01*
X118972471Y-52609395D01*
X118892910Y-52728467D01*
X118838107Y-52860773D01*
X118810169Y-53001228D01*
X100252000Y-53001228D01*
X100252000Y-52058397D01*
X123713000Y-52058397D01*
X123713000Y-52201603D01*
X123740938Y-52342058D01*
X123795741Y-52474364D01*
X123875302Y-52593436D01*
X123976564Y-52694698D01*
X124095636Y-52774259D01*
X124227942Y-52829062D01*
X124368397Y-52857000D01*
X124511603Y-52857000D01*
X124652058Y-52829062D01*
X124784364Y-52774259D01*
X124903436Y-52694698D01*
X125004698Y-52593436D01*
X125084259Y-52474364D01*
X125139062Y-52342058D01*
X125167000Y-52201603D01*
X125167000Y-52058397D01*
X125139062Y-51917942D01*
X125084259Y-51785636D01*
X125004698Y-51666564D01*
X124903436Y-51565302D01*
X124784364Y-51485741D01*
X124652058Y-51430938D01*
X124511603Y-51403000D01*
X124368397Y-51403000D01*
X124227942Y-51430938D01*
X124095636Y-51485741D01*
X123976564Y-51565302D01*
X123875302Y-51666564D01*
X123795741Y-51785636D01*
X123740938Y-51917942D01*
X123713000Y-52058397D01*
X100252000Y-52058397D01*
X100252000Y-50861921D01*
X118740831Y-50855756D01*
X118740831Y-50953772D01*
X118768769Y-51094227D01*
X118823572Y-51226533D01*
X118903133Y-51345605D01*
X119004395Y-51446867D01*
X119123467Y-51526428D01*
X119255773Y-51581231D01*
X119396228Y-51609169D01*
X119539434Y-51609169D01*
X119679889Y-51581231D01*
X119812195Y-51526428D01*
X119931267Y-51446867D01*
X120032529Y-51345605D01*
X120112090Y-51226533D01*
X120166893Y-51094227D01*
X120194831Y-50953772D01*
X120194831Y-50855271D01*
X129748000Y-50852085D01*
X129748001Y-58248000D01*
%TA.AperFunction,Conductor*%
D16*
G36*
X129748001Y-58248000D02*
G01*
X127012375Y-58248000D01*
X127000000Y-58246781D01*
X126987624Y-58248000D01*
X126950599Y-58251647D01*
X126903097Y-58266056D01*
X126859319Y-58289456D01*
X126820947Y-58320947D01*
X126789456Y-58359319D01*
X126766056Y-58403097D01*
X126751647Y-58450599D01*
X126746781Y-58500000D01*
X126748000Y-58512375D01*
X126748001Y-66675992D01*
X126644180Y-66620498D01*
X126524482Y-66584188D01*
X126400000Y-66571928D01*
X126081890Y-66573660D01*
X126107519Y-66563044D01*
X126300294Y-66434236D01*
X126464236Y-66270294D01*
X126593044Y-66077519D01*
X126681769Y-65863318D01*
X126727000Y-65635924D01*
X126727000Y-65404076D01*
X126681769Y-65176682D01*
X126593044Y-64962481D01*
X126464236Y-64769706D01*
X126300294Y-64605764D01*
X126107519Y-64476956D01*
X125893318Y-64388231D01*
X125665924Y-64343000D01*
X125434076Y-64343000D01*
X125206682Y-64388231D01*
X124992481Y-64476956D01*
X124799706Y-64605764D01*
X124635764Y-64769706D01*
X124506956Y-64962481D01*
X124418231Y-65176682D01*
X124373000Y-65404076D01*
X124373000Y-65635924D01*
X124418231Y-65863318D01*
X124506956Y-66077519D01*
X124635764Y-66270294D01*
X124799706Y-66434236D01*
X124992481Y-66563044D01*
X125018110Y-66573660D01*
X124700000Y-66571928D01*
X124575518Y-66584188D01*
X124455820Y-66620498D01*
X124345506Y-66679463D01*
X124248815Y-66758815D01*
X124169463Y-66855506D01*
X124110498Y-66965820D01*
X124074188Y-67085518D01*
X124061928Y-67210000D01*
X124065000Y-67774250D01*
X124223750Y-67933000D01*
X125423000Y-67933000D01*
X125423000Y-67913000D01*
X125677000Y-67913000D01*
X125677000Y-67933000D01*
X125697000Y-67933000D01*
X125697000Y-68187000D01*
X125677000Y-68187000D01*
X125677000Y-68207000D01*
X125423000Y-68207000D01*
X125423000Y-68187000D01*
X124223750Y-68187000D01*
X124169862Y-68240888D01*
X103252000Y-68291354D01*
X103252000Y-67658764D01*
X103295741Y-67764364D01*
X103375302Y-67883436D01*
X103476564Y-67984698D01*
X103595636Y-68064259D01*
X103727942Y-68119062D01*
X103868397Y-68147000D01*
X104011603Y-68147000D01*
X104152058Y-68119062D01*
X104284364Y-68064259D01*
X104403436Y-67984698D01*
X104504698Y-67883436D01*
X104584259Y-67764364D01*
X104639062Y-67632058D01*
X104667000Y-67491603D01*
X104667000Y-67348397D01*
X104639062Y-67207942D01*
X104584259Y-67075636D01*
X104504698Y-66956564D01*
X104403436Y-66855302D01*
X104284364Y-66775741D01*
X104152058Y-66720938D01*
X104011603Y-66693000D01*
X103868397Y-66693000D01*
X103727942Y-66720938D01*
X103595636Y-66775741D01*
X103476564Y-66855302D01*
X103375302Y-66956564D01*
X103295741Y-67075636D01*
X103252000Y-67181236D01*
X103252000Y-65328397D01*
X120243000Y-65328397D01*
X120243000Y-65471603D01*
X120270938Y-65612058D01*
X120325741Y-65744364D01*
X120405302Y-65863436D01*
X120506564Y-65964698D01*
X120625636Y-66044259D01*
X120757942Y-66099062D01*
X120898397Y-66127000D01*
X121041603Y-66127000D01*
X121182058Y-66099062D01*
X121314364Y-66044259D01*
X121433436Y-65964698D01*
X121534698Y-65863436D01*
X121614259Y-65744364D01*
X121669062Y-65612058D01*
X121697000Y-65471603D01*
X121697000Y-65328397D01*
X121669062Y-65187942D01*
X121614259Y-65055636D01*
X121534698Y-64936564D01*
X121433436Y-64835302D01*
X121314364Y-64755741D01*
X121182058Y-64700938D01*
X121041603Y-64673000D01*
X120898397Y-64673000D01*
X120757942Y-64700938D01*
X120625636Y-64755741D01*
X120506564Y-64835302D01*
X120405302Y-64936564D01*
X120325741Y-65055636D01*
X120270938Y-65187942D01*
X120243000Y-65328397D01*
X103252000Y-65328397D01*
X103252000Y-64258397D01*
X111563000Y-64258397D01*
X111563000Y-64401603D01*
X111590938Y-64542058D01*
X111645741Y-64674364D01*
X111725302Y-64793436D01*
X111826564Y-64894698D01*
X111945636Y-64974259D01*
X112077942Y-65029062D01*
X112218397Y-65057000D01*
X112361603Y-65057000D01*
X112502058Y-65029062D01*
X112634364Y-64974259D01*
X112753436Y-64894698D01*
X112854698Y-64793436D01*
X112934259Y-64674364D01*
X112989062Y-64542058D01*
X113017000Y-64401603D01*
X113017000Y-64258397D01*
X112989062Y-64117942D01*
X112934259Y-63985636D01*
X112854698Y-63866564D01*
X112753436Y-63765302D01*
X112634364Y-63685741D01*
X112502058Y-63630938D01*
X112361603Y-63603000D01*
X112218397Y-63603000D01*
X112077942Y-63630938D01*
X111945636Y-63685741D01*
X111826564Y-63765302D01*
X111725302Y-63866564D01*
X111645741Y-63985636D01*
X111590938Y-64117942D01*
X111563000Y-64258397D01*
X103252000Y-64258397D01*
X103252000Y-62618397D01*
X111563000Y-62618397D01*
X111563000Y-62761603D01*
X111590938Y-62902058D01*
X111645741Y-63034364D01*
X111725302Y-63153436D01*
X111826564Y-63254698D01*
X111945636Y-63334259D01*
X112077942Y-63389062D01*
X112218397Y-63417000D01*
X112361603Y-63417000D01*
X112502058Y-63389062D01*
X112634364Y-63334259D01*
X112753436Y-63254698D01*
X112854698Y-63153436D01*
X112934259Y-63034364D01*
X112989062Y-62902058D01*
X112996617Y-62864076D01*
X124373000Y-62864076D01*
X124373000Y-63095924D01*
X124418231Y-63323318D01*
X124506956Y-63537519D01*
X124635764Y-63730294D01*
X124799706Y-63894236D01*
X124992481Y-64023044D01*
X125206682Y-64111769D01*
X125434076Y-64157000D01*
X125665924Y-64157000D01*
X125893318Y-64111769D01*
X126107519Y-64023044D01*
X126300294Y-63894236D01*
X126464236Y-63730294D01*
X126593044Y-63537519D01*
X126681769Y-63323318D01*
X126727000Y-63095924D01*
X126727000Y-62864076D01*
X126681769Y-62636682D01*
X126593044Y-62422481D01*
X126464236Y-62229706D01*
X126300294Y-62065764D01*
X126107519Y-61936956D01*
X125893318Y-61848231D01*
X125665924Y-61803000D01*
X125434076Y-61803000D01*
X125206682Y-61848231D01*
X124992481Y-61936956D01*
X124799706Y-62065764D01*
X124635764Y-62229706D01*
X124506956Y-62422481D01*
X124418231Y-62636682D01*
X124373000Y-62864076D01*
X112996617Y-62864076D01*
X113017000Y-62761603D01*
X113017000Y-62618397D01*
X112989062Y-62477942D01*
X112934259Y-62345636D01*
X112854698Y-62226564D01*
X112753436Y-62125302D01*
X112634364Y-62045741D01*
X112502058Y-61990938D01*
X112361603Y-61963000D01*
X112218397Y-61963000D01*
X112077942Y-61990938D01*
X111945636Y-62045741D01*
X111826564Y-62125302D01*
X111725302Y-62226564D01*
X111645741Y-62345636D01*
X111590938Y-62477942D01*
X111563000Y-62618397D01*
X103252000Y-62618397D01*
X103252000Y-58512375D01*
X103253219Y-58500000D01*
X103248353Y-58450599D01*
X103233944Y-58403097D01*
X103210544Y-58359319D01*
X103179053Y-58320947D01*
X103140681Y-58289456D01*
X103096903Y-58266056D01*
X103049401Y-58251647D01*
X103012376Y-58248000D01*
X103000000Y-58246781D01*
X102987625Y-58248000D01*
X100252000Y-58248000D01*
X100252000Y-55038397D01*
X104753000Y-55038397D01*
X104753000Y-55181603D01*
X104780938Y-55322058D01*
X104835741Y-55454364D01*
X104915302Y-55573436D01*
X105016564Y-55674698D01*
X105135636Y-55754259D01*
X105267942Y-55809062D01*
X105408397Y-55837000D01*
X105551603Y-55837000D01*
X105692058Y-55809062D01*
X105824364Y-55754259D01*
X105943436Y-55674698D01*
X106044698Y-55573436D01*
X106124259Y-55454364D01*
X106179062Y-55322058D01*
X106207000Y-55181603D01*
X106207000Y-55038397D01*
X106179062Y-54897942D01*
X106124259Y-54765636D01*
X106044698Y-54646564D01*
X105943436Y-54545302D01*
X105824364Y-54465741D01*
X105692058Y-54410938D01*
X105551603Y-54383000D01*
X105408397Y-54383000D01*
X105267942Y-54410938D01*
X105135636Y-54465741D01*
X105016564Y-54545302D01*
X104915302Y-54646564D01*
X104835741Y-54765636D01*
X104780938Y-54897942D01*
X104753000Y-55038397D01*
X100252000Y-55038397D01*
X100252000Y-54338397D01*
X117793000Y-54338397D01*
X117793000Y-54481603D01*
X117820938Y-54622058D01*
X117875741Y-54754364D01*
X117955302Y-54873436D01*
X118056564Y-54974698D01*
X118175636Y-55054259D01*
X118307942Y-55109062D01*
X118448397Y-55137000D01*
X118591603Y-55137000D01*
X118732058Y-55109062D01*
X118864364Y-55054259D01*
X118983436Y-54974698D01*
X119084698Y-54873436D01*
X119164259Y-54754364D01*
X119219062Y-54622058D01*
X119247000Y-54481603D01*
X119247000Y-54338397D01*
X119219062Y-54197942D01*
X119164259Y-54065636D01*
X119084698Y-53946564D01*
X118983436Y-53845302D01*
X118864364Y-53765741D01*
X118732058Y-53710938D01*
X118591603Y-53683000D01*
X118448397Y-53683000D01*
X118307942Y-53710938D01*
X118175636Y-53765741D01*
X118056564Y-53845302D01*
X117955302Y-53946564D01*
X117875741Y-54065636D01*
X117820938Y-54197942D01*
X117793000Y-54338397D01*
X100252000Y-54338397D01*
X100252000Y-53001228D01*
X118810169Y-53001228D01*
X118810169Y-53144434D01*
X118838107Y-53284889D01*
X118892910Y-53417195D01*
X118972471Y-53536267D01*
X119073733Y-53637529D01*
X119192805Y-53717090D01*
X119325111Y-53771893D01*
X119465566Y-53799831D01*
X119608772Y-53799831D01*
X119749227Y-53771893D01*
X119881533Y-53717090D01*
X120000605Y-53637529D01*
X120101867Y-53536267D01*
X120181428Y-53417195D01*
X120236231Y-53284889D01*
X120264169Y-53144434D01*
X120264169Y-53001228D01*
X120236231Y-52860773D01*
X120181428Y-52728467D01*
X120101867Y-52609395D01*
X120000605Y-52508133D01*
X119881533Y-52428572D01*
X119749227Y-52373769D01*
X119608772Y-52345831D01*
X119465566Y-52345831D01*
X119325111Y-52373769D01*
X119192805Y-52428572D01*
X119073733Y-52508133D01*
X118972471Y-52609395D01*
X118892910Y-52728467D01*
X118838107Y-52860773D01*
X118810169Y-53001228D01*
X100252000Y-53001228D01*
X100252000Y-52058397D01*
X123713000Y-52058397D01*
X123713000Y-52201603D01*
X123740938Y-52342058D01*
X123795741Y-52474364D01*
X123875302Y-52593436D01*
X123976564Y-52694698D01*
X124095636Y-52774259D01*
X124227942Y-52829062D01*
X124368397Y-52857000D01*
X124511603Y-52857000D01*
X124652058Y-52829062D01*
X124784364Y-52774259D01*
X124903436Y-52694698D01*
X125004698Y-52593436D01*
X125084259Y-52474364D01*
X125139062Y-52342058D01*
X125167000Y-52201603D01*
X125167000Y-52058397D01*
X125139062Y-51917942D01*
X125084259Y-51785636D01*
X125004698Y-51666564D01*
X124903436Y-51565302D01*
X124784364Y-51485741D01*
X124652058Y-51430938D01*
X124511603Y-51403000D01*
X124368397Y-51403000D01*
X124227942Y-51430938D01*
X124095636Y-51485741D01*
X123976564Y-51565302D01*
X123875302Y-51666564D01*
X123795741Y-51785636D01*
X123740938Y-51917942D01*
X123713000Y-52058397D01*
X100252000Y-52058397D01*
X100252000Y-50861921D01*
X118740831Y-50855756D01*
X118740831Y-50953772D01*
X118768769Y-51094227D01*
X118823572Y-51226533D01*
X118903133Y-51345605D01*
X119004395Y-51446867D01*
X119123467Y-51526428D01*
X119255773Y-51581231D01*
X119396228Y-51609169D01*
X119539434Y-51609169D01*
X119679889Y-51581231D01*
X119812195Y-51526428D01*
X119931267Y-51446867D01*
X120032529Y-51345605D01*
X120112090Y-51226533D01*
X120166893Y-51094227D01*
X120194831Y-50953772D01*
X120194831Y-50855271D01*
X129748000Y-50852085D01*
X129748001Y-58248000D01*
G37*
%TD.AperFunction*%
%TD*%
M02*
