%TF.GenerationSoftware,KiCad,Pcbnew,(5.1.12-1-10_14)*%
%TF.CreationDate,2021-12-26T14:39:33+08:00*%
%TF.ProjectId,esp32-c1_devboard,65737033-322d-4633-915f-646576626f61,rev?*%
%TF.SameCoordinates,Original*%
%TF.FileFunction,Legend,Bot*%
%TF.FilePolarity,Positive*%
%FSLAX46Y46*%
G04 Gerber Fmt 4.6, Leading zero omitted, Abs format (unit mm)*
G04 Created by KiCad (PCBNEW (5.1.12-1-10_14)) date 2021-12-26 14:39:33*
%MOMM*%
%LPD*%
G01*
G04 APERTURE LIST*
%ADD10C,0.120000*%
%ADD11C,0.150000*%
G04 APERTURE END LIST*
D10*
%TO.C,R2*%
X131870000Y-96416359D02*
X131870000Y-96723641D01*
X131110000Y-96416359D02*
X131110000Y-96723641D01*
%TO.C,R1*%
X119150000Y-95446359D02*
X119150000Y-95753641D01*
X118390000Y-95446359D02*
X118390000Y-95753641D01*
%TO.C,R2*%
D11*
X134542380Y-98013333D02*
X134066190Y-97680000D01*
X134542380Y-97441904D02*
X133542380Y-97441904D01*
X133542380Y-97822857D01*
X133590000Y-97918095D01*
X133637619Y-97965714D01*
X133732857Y-98013333D01*
X133875714Y-98013333D01*
X133970952Y-97965714D01*
X134018571Y-97918095D01*
X134066190Y-97822857D01*
X134066190Y-97441904D01*
X133637619Y-98394285D02*
X133590000Y-98441904D01*
X133542380Y-98537142D01*
X133542380Y-98775238D01*
X133590000Y-98870476D01*
X133637619Y-98918095D01*
X133732857Y-98965714D01*
X133828095Y-98965714D01*
X133970952Y-98918095D01*
X134542380Y-98346666D01*
X134542380Y-98965714D01*
%TO.C,R1*%
X118052380Y-95433333D02*
X117576190Y-95100000D01*
X118052380Y-94861904D02*
X117052380Y-94861904D01*
X117052380Y-95242857D01*
X117100000Y-95338095D01*
X117147619Y-95385714D01*
X117242857Y-95433333D01*
X117385714Y-95433333D01*
X117480952Y-95385714D01*
X117528571Y-95338095D01*
X117576190Y-95242857D01*
X117576190Y-94861904D01*
X118052380Y-96385714D02*
X118052380Y-95814285D01*
X118052380Y-96100000D02*
X117052380Y-96100000D01*
X117195238Y-96004761D01*
X117290476Y-95909523D01*
X117338095Y-95814285D01*
%TD*%
M02*
