M48
; DRILL file {KiCad (5.1.12-1-10_14)} date 2021 December 26, Sunday 14:39:36
; FORMAT={-:-/ absolute / inch / decimal}
; #@! TF.CreationDate,2021-12-26T14:39:36+08:00
; #@! TF.GenerationSoftware,Kicad,Pcbnew,(5.1.12-1-10_14)
; #@! TF.FileFunction,Plated,1,4,PTH
FMAT,2
INCH
T1C0.0157
T2C0.0236
T3C0.0394
%
G90
G05
T1
X4.0311Y-3.5705
X4.2791Y-3.3024
X4.3555Y-2.5961
X4.4283Y-2.5331
X4.4283Y-3.4657
X4.4413Y-2.1843
X4.511Y-2.7937
X4.7531Y-3.5039
X4.8449Y-3.526
X5.0102Y-3.5213
X5.028Y-3.4598
X5.0547Y-3.3811
X5.098Y-3.3382
X5.135Y-3.2398
X5.1528Y-3.2929
X5.2433Y-2.063
X5.2587Y-2.4638
X5.2878Y-2.8689
X5.3909Y-3.5673
X5.4043Y-2.9996
X5.4543Y-2.6866
X5.4764Y-2.787
X5.5012Y-3.1295
X5.5272Y-2.2913
X5.587Y-3.4673
T3
X4.0213Y-2.4803
X4.0213Y-2.5803
X4.0213Y-2.6803
X4.0213Y-2.7803
X4.0213Y-2.8803
X4.0213Y-2.9803
X4.0213Y-3.0803
X4.0213Y-3.1803
X4.0213Y-3.2803
X4.0213Y-3.3803
X4.1213Y-2.4803
X4.1213Y-2.5803
X4.1213Y-2.6803
X4.1213Y-2.7803
X4.1213Y-2.8803
X4.1213Y-2.9803
X4.1213Y-3.0803
X4.1213Y-3.1803
X4.1213Y-3.2803
X4.1213Y-3.3803
X5.7213Y-2.4803
X5.7213Y-2.5803
X5.7213Y-2.6803
X5.7213Y-2.7803
X5.7213Y-2.8803
X5.7213Y-2.9803
X5.7213Y-3.0803
X5.7213Y-3.1803
X5.7213Y-3.2803
X5.7213Y-3.3803
X5.8213Y-2.4803
X5.8213Y-2.5803
X5.8213Y-2.6803
X5.8213Y-2.7803
X5.8213Y-2.8803
X5.8213Y-2.9803
X5.8213Y-3.0803
X5.8213Y-3.1803
X5.8213Y-3.2803
X5.8213Y-3.3803
T2
G00X4.7512Y-3.661
M15
G01X4.7512Y-3.7043
M16
G05
G00X4.7512Y-3.8354
M15
G01X4.7512Y-3.8591
M16
G05
G00X5.0913Y-3.661
M15
G01X5.0913Y-3.7043
M16
G05
G00X5.0913Y-3.8354
M15
G01X5.0913Y-3.8591
M16
G05
T0
M30
