%TF.GenerationSoftware,KiCad,Pcbnew,(5.1.12-1-10_14)*%
%TF.CreationDate,2021-12-26T14:39:33+08:00*%
%TF.ProjectId,esp32-c1_devboard,65737033-322d-4633-915f-646576626f61,rev?*%
%TF.SameCoordinates,Original*%
%TF.FileFunction,Soldermask,Bot*%
%TF.FilePolarity,Negative*%
%FSLAX46Y46*%
G04 Gerber Fmt 4.6, Leading zero omitted, Abs format (unit mm)*
G04 Created by KiCad (PCBNEW (5.1.12-1-10_14)) date 2021-12-26 14:39:33*
%MOMM*%
%LPD*%
G01*
G04 APERTURE LIST*
%ADD10O,1.700000X1.700000*%
%ADD11R,1.700000X1.700000*%
%ADD12C,3.200000*%
%ADD13O,1.000000X2.100000*%
%ADD14C,0.650000*%
%ADD15O,1.000000X1.600000*%
G04 APERTURE END LIST*
D10*
%TO.C,J3*%
X147860000Y-85860000D03*
X145320000Y-85860000D03*
X147860000Y-83320000D03*
X145320000Y-83320000D03*
X147860000Y-80780000D03*
X145320000Y-80780000D03*
X147860000Y-78240000D03*
X145320000Y-78240000D03*
X147860000Y-75700000D03*
X145320000Y-75700000D03*
X147860000Y-73160000D03*
X145320000Y-73160000D03*
X147860000Y-70620000D03*
X145320000Y-70620000D03*
X147860000Y-68080000D03*
X145320000Y-68080000D03*
X147860000Y-65540000D03*
X145320000Y-65540000D03*
X147860000Y-63000000D03*
D11*
X145320000Y-63000000D03*
%TD*%
D10*
%TO.C,J2*%
X104680000Y-85860000D03*
X102140000Y-85860000D03*
X104680000Y-83320000D03*
X102140000Y-83320000D03*
X104680000Y-80780000D03*
X102140000Y-80780000D03*
X104680000Y-78240000D03*
X102140000Y-78240000D03*
X104680000Y-75700000D03*
X102140000Y-75700000D03*
X104680000Y-73160000D03*
X102140000Y-73160000D03*
X104680000Y-70620000D03*
X102140000Y-70620000D03*
X104680000Y-68080000D03*
X102140000Y-68080000D03*
X104680000Y-65540000D03*
X102140000Y-65540000D03*
X104680000Y-63000000D03*
D11*
X102140000Y-63000000D03*
%TD*%
D12*
%TO.C,H4*%
X147000000Y-97000000D03*
%TD*%
%TO.C,H3*%
X146960000Y-53170000D03*
%TD*%
%TO.C,H2*%
X103000000Y-97000000D03*
%TD*%
%TO.C,H1*%
X103000000Y-53000000D03*
%TD*%
%TO.C,R2*%
G36*
G01*
X131305000Y-96810000D02*
X131675000Y-96810000D01*
G75*
G02*
X131810000Y-96945000I0J-135000D01*
G01*
X131810000Y-97215000D01*
G75*
G02*
X131675000Y-97350000I-135000J0D01*
G01*
X131305000Y-97350000D01*
G75*
G02*
X131170000Y-97215000I0J135000D01*
G01*
X131170000Y-96945000D01*
G75*
G02*
X131305000Y-96810000I135000J0D01*
G01*
G37*
G36*
G01*
X131305000Y-95790000D02*
X131675000Y-95790000D01*
G75*
G02*
X131810000Y-95925000I0J-135000D01*
G01*
X131810000Y-96195000D01*
G75*
G02*
X131675000Y-96330000I-135000J0D01*
G01*
X131305000Y-96330000D01*
G75*
G02*
X131170000Y-96195000I0J135000D01*
G01*
X131170000Y-95925000D01*
G75*
G02*
X131305000Y-95790000I135000J0D01*
G01*
G37*
%TD*%
%TO.C,R1*%
G36*
G01*
X118585000Y-95840000D02*
X118955000Y-95840000D01*
G75*
G02*
X119090000Y-95975000I0J-135000D01*
G01*
X119090000Y-96245000D01*
G75*
G02*
X118955000Y-96380000I-135000J0D01*
G01*
X118585000Y-96380000D01*
G75*
G02*
X118450000Y-96245000I0J135000D01*
G01*
X118450000Y-95975000D01*
G75*
G02*
X118585000Y-95840000I135000J0D01*
G01*
G37*
G36*
G01*
X118585000Y-94820000D02*
X118955000Y-94820000D01*
G75*
G02*
X119090000Y-94955000I0J-135000D01*
G01*
X119090000Y-95225000D01*
G75*
G02*
X118955000Y-95360000I-135000J0D01*
G01*
X118585000Y-95360000D01*
G75*
G02*
X118450000Y-95225000I0J135000D01*
G01*
X118450000Y-94955000D01*
G75*
G02*
X118585000Y-94820000I135000J0D01*
G01*
G37*
%TD*%
D13*
%TO.C,J1*%
X129320000Y-93540000D03*
X120680000Y-93540000D03*
D14*
X122110000Y-94070000D03*
D15*
X120680000Y-97720000D03*
D14*
X127890000Y-94070000D03*
D15*
X129320000Y-97720000D03*
%TD*%
M02*
