%TF.GenerationSoftware,KiCad,Pcbnew,(5.1.12-1-10_14)*%
%TF.CreationDate,2021-12-26T14:39:33+08:00*%
%TF.ProjectId,esp32-c1_devboard,65737033-322d-4633-915f-646576626f61,rev?*%
%TF.SameCoordinates,Original*%
%TF.FileFunction,Soldermask,Top*%
%TF.FilePolarity,Negative*%
%FSLAX46Y46*%
G04 Gerber Fmt 4.6, Leading zero omitted, Abs format (unit mm)*
G04 Created by KiCad (PCBNEW (5.1.12-1-10_14)) date 2021-12-26 14:39:33*
%MOMM*%
%LPD*%
G01*
G04 APERTURE LIST*
%ADD10R,0.899998X1.699997*%
%ADD11O,1.700000X1.700000*%
%ADD12R,1.700000X1.700000*%
%ADD13C,3.200000*%
%ADD14R,1.500000X2.000000*%
%ADD15R,3.800000X2.000000*%
%ADD16R,0.399999X0.799998*%
%ADD17R,0.799998X0.399999*%
%ADD18R,1.450010X1.450010*%
%ADD19R,0.799998X0.799998*%
%ADD20R,0.800000X0.900000*%
%ADD21R,0.600000X1.450000*%
%ADD22R,0.300000X1.450000*%
%ADD23O,1.000000X2.100000*%
%ADD24C,0.650000*%
%ADD25O,1.000000X1.600000*%
G04 APERTURE END LIST*
%TO.C,R14*%
G36*
G01*
X123620000Y-70835000D02*
X123620000Y-70465000D01*
G75*
G02*
X123755000Y-70330000I135000J0D01*
G01*
X124025000Y-70330000D01*
G75*
G02*
X124160000Y-70465000I0J-135000D01*
G01*
X124160000Y-70835000D01*
G75*
G02*
X124025000Y-70970000I-135000J0D01*
G01*
X123755000Y-70970000D01*
G75*
G02*
X123620000Y-70835000I0J135000D01*
G01*
G37*
G36*
G01*
X122600000Y-70835000D02*
X122600000Y-70465000D01*
G75*
G02*
X122735000Y-70330000I135000J0D01*
G01*
X123005000Y-70330000D01*
G75*
G02*
X123140000Y-70465000I0J-135000D01*
G01*
X123140000Y-70835000D01*
G75*
G02*
X123005000Y-70970000I-135000J0D01*
G01*
X122735000Y-70970000D01*
G75*
G02*
X122600000Y-70835000I0J135000D01*
G01*
G37*
%TD*%
%TO.C,R12*%
G36*
G01*
X135080000Y-52195000D02*
X135080000Y-52565000D01*
G75*
G02*
X134945000Y-52700000I-135000J0D01*
G01*
X134675000Y-52700000D01*
G75*
G02*
X134540000Y-52565000I0J135000D01*
G01*
X134540000Y-52195000D01*
G75*
G02*
X134675000Y-52060000I135000J0D01*
G01*
X134945000Y-52060000D01*
G75*
G02*
X135080000Y-52195000I0J-135000D01*
G01*
G37*
G36*
G01*
X136100000Y-52195000D02*
X136100000Y-52565000D01*
G75*
G02*
X135965000Y-52700000I-135000J0D01*
G01*
X135695000Y-52700000D01*
G75*
G02*
X135560000Y-52565000I0J135000D01*
G01*
X135560000Y-52195000D01*
G75*
G02*
X135695000Y-52060000I135000J0D01*
G01*
X135965000Y-52060000D01*
G75*
G02*
X136100000Y-52195000I0J-135000D01*
G01*
G37*
%TD*%
%TO.C,IO4*%
G36*
G01*
X126546250Y-69170000D02*
X125633750Y-69170000D01*
G75*
G02*
X125390000Y-68926250I0J243750D01*
G01*
X125390000Y-68438750D01*
G75*
G02*
X125633750Y-68195000I243750J0D01*
G01*
X126546250Y-68195000D01*
G75*
G02*
X126790000Y-68438750I0J-243750D01*
G01*
X126790000Y-68926250D01*
G75*
G02*
X126546250Y-69170000I-243750J0D01*
G01*
G37*
G36*
G01*
X126546250Y-71045000D02*
X125633750Y-71045000D01*
G75*
G02*
X125390000Y-70801250I0J243750D01*
G01*
X125390000Y-70313750D01*
G75*
G02*
X125633750Y-70070000I243750J0D01*
G01*
X126546250Y-70070000D01*
G75*
G02*
X126790000Y-70313750I0J-243750D01*
G01*
X126790000Y-70801250D01*
G75*
G02*
X126546250Y-71045000I-243750J0D01*
G01*
G37*
%TD*%
%TO.C,VCC*%
G36*
G01*
X138533750Y-55310000D02*
X139446250Y-55310000D01*
G75*
G02*
X139690000Y-55553750I0J-243750D01*
G01*
X139690000Y-56041250D01*
G75*
G02*
X139446250Y-56285000I-243750J0D01*
G01*
X138533750Y-56285000D01*
G75*
G02*
X138290000Y-56041250I0J243750D01*
G01*
X138290000Y-55553750D01*
G75*
G02*
X138533750Y-55310000I243750J0D01*
G01*
G37*
G36*
G01*
X138533750Y-53435000D02*
X139446250Y-53435000D01*
G75*
G02*
X139690000Y-53678750I0J-243750D01*
G01*
X139690000Y-54166250D01*
G75*
G02*
X139446250Y-54410000I-243750J0D01*
G01*
X138533750Y-54410000D01*
G75*
G02*
X138290000Y-54166250I0J243750D01*
G01*
X138290000Y-53678750D01*
G75*
G02*
X138533750Y-53435000I243750J0D01*
G01*
G37*
%TD*%
%TO.C,C7*%
G36*
G01*
X105030000Y-89069999D02*
X105030000Y-91970001D01*
G75*
G02*
X104780001Y-92220000I-249999J0D01*
G01*
X103879999Y-92220000D01*
G75*
G02*
X103630000Y-91970001I0J249999D01*
G01*
X103630000Y-89069999D01*
G75*
G02*
X103879999Y-88820000I249999J0D01*
G01*
X104780001Y-88820000D01*
G75*
G02*
X105030000Y-89069999I0J-249999D01*
G01*
G37*
G36*
G01*
X109130000Y-89069999D02*
X109130000Y-91970001D01*
G75*
G02*
X108880001Y-92220000I-249999J0D01*
G01*
X107979999Y-92220000D01*
G75*
G02*
X107730000Y-91970001I0J249999D01*
G01*
X107730000Y-89069999D01*
G75*
G02*
X107979999Y-88820000I249999J0D01*
G01*
X108880001Y-88820000D01*
G75*
G02*
X109130000Y-89069999I0J-249999D01*
G01*
G37*
%TD*%
%TO.C,C5*%
G36*
G01*
X115090000Y-85549999D02*
X115090000Y-88450001D01*
G75*
G02*
X114840001Y-88700000I-249999J0D01*
G01*
X113939999Y-88700000D01*
G75*
G02*
X113690000Y-88450001I0J249999D01*
G01*
X113690000Y-85549999D01*
G75*
G02*
X113939999Y-85300000I249999J0D01*
G01*
X114840001Y-85300000D01*
G75*
G02*
X115090000Y-85549999I0J-249999D01*
G01*
G37*
G36*
G01*
X119190000Y-85549999D02*
X119190000Y-88450001D01*
G75*
G02*
X118940001Y-88700000I-249999J0D01*
G01*
X118039999Y-88700000D01*
G75*
G02*
X117790000Y-88450001I0J249999D01*
G01*
X117790000Y-85549999D01*
G75*
G02*
X118039999Y-85300000I249999J0D01*
G01*
X118940001Y-85300000D01*
G75*
G02*
X119190000Y-85549999I0J-249999D01*
G01*
G37*
%TD*%
D10*
%TO.C,RESET*%
X112470030Y-78000000D03*
X117069970Y-78000000D03*
%TD*%
%TO.C,BOOT*%
X131940030Y-78000000D03*
X136539970Y-78000000D03*
%TD*%
D11*
%TO.C,J3*%
X147860000Y-85860000D03*
X145320000Y-85860000D03*
X147860000Y-83320000D03*
X145320000Y-83320000D03*
X147860000Y-80780000D03*
X145320000Y-80780000D03*
X147860000Y-78240000D03*
X145320000Y-78240000D03*
X147860000Y-75700000D03*
X145320000Y-75700000D03*
X147860000Y-73160000D03*
X145320000Y-73160000D03*
X147860000Y-70620000D03*
X145320000Y-70620000D03*
X147860000Y-68080000D03*
X145320000Y-68080000D03*
X147860000Y-65540000D03*
X145320000Y-65540000D03*
X147860000Y-63000000D03*
D12*
X145320000Y-63000000D03*
%TD*%
D11*
%TO.C,J2*%
X104680000Y-85860000D03*
X102140000Y-85860000D03*
X104680000Y-83320000D03*
X102140000Y-83320000D03*
X104680000Y-80780000D03*
X102140000Y-80780000D03*
X104680000Y-78240000D03*
X102140000Y-78240000D03*
X104680000Y-75700000D03*
X102140000Y-75700000D03*
X104680000Y-73160000D03*
X102140000Y-73160000D03*
X104680000Y-70620000D03*
X102140000Y-70620000D03*
X104680000Y-68080000D03*
X102140000Y-68080000D03*
X104680000Y-65540000D03*
X102140000Y-65540000D03*
X104680000Y-63000000D03*
D12*
X102140000Y-63000000D03*
%TD*%
D13*
%TO.C,H4*%
X147000000Y-97000000D03*
%TD*%
%TO.C,H3*%
X146960000Y-53170000D03*
%TD*%
%TO.C,H2*%
X103000000Y-97000000D03*
%TD*%
%TO.C,H1*%
X103000000Y-53000000D03*
%TD*%
D14*
%TO.C,U4*%
X111560000Y-98010000D03*
X116160000Y-98010000D03*
X113860000Y-98010000D03*
D15*
X113860000Y-91710000D03*
%TD*%
%TO.C,U2*%
G36*
G01*
X138620000Y-86285000D02*
X138620000Y-85985000D01*
G75*
G02*
X138770000Y-85835000I150000J0D01*
G01*
X140420000Y-85835000D01*
G75*
G02*
X140570000Y-85985000I0J-150000D01*
G01*
X140570000Y-86285000D01*
G75*
G02*
X140420000Y-86435000I-150000J0D01*
G01*
X138770000Y-86435000D01*
G75*
G02*
X138620000Y-86285000I0J150000D01*
G01*
G37*
G36*
G01*
X138620000Y-87555000D02*
X138620000Y-87255000D01*
G75*
G02*
X138770000Y-87105000I150000J0D01*
G01*
X140420000Y-87105000D01*
G75*
G02*
X140570000Y-87255000I0J-150000D01*
G01*
X140570000Y-87555000D01*
G75*
G02*
X140420000Y-87705000I-150000J0D01*
G01*
X138770000Y-87705000D01*
G75*
G02*
X138620000Y-87555000I0J150000D01*
G01*
G37*
G36*
G01*
X138620000Y-88825000D02*
X138620000Y-88525000D01*
G75*
G02*
X138770000Y-88375000I150000J0D01*
G01*
X140420000Y-88375000D01*
G75*
G02*
X140570000Y-88525000I0J-150000D01*
G01*
X140570000Y-88825000D01*
G75*
G02*
X140420000Y-88975000I-150000J0D01*
G01*
X138770000Y-88975000D01*
G75*
G02*
X138620000Y-88825000I0J150000D01*
G01*
G37*
G36*
G01*
X138620000Y-90095000D02*
X138620000Y-89795000D01*
G75*
G02*
X138770000Y-89645000I150000J0D01*
G01*
X140420000Y-89645000D01*
G75*
G02*
X140570000Y-89795000I0J-150000D01*
G01*
X140570000Y-90095000D01*
G75*
G02*
X140420000Y-90245000I-150000J0D01*
G01*
X138770000Y-90245000D01*
G75*
G02*
X138620000Y-90095000I0J150000D01*
G01*
G37*
G36*
G01*
X138620000Y-91365000D02*
X138620000Y-91065000D01*
G75*
G02*
X138770000Y-90915000I150000J0D01*
G01*
X140420000Y-90915000D01*
G75*
G02*
X140570000Y-91065000I0J-150000D01*
G01*
X140570000Y-91365000D01*
G75*
G02*
X140420000Y-91515000I-150000J0D01*
G01*
X138770000Y-91515000D01*
G75*
G02*
X138620000Y-91365000I0J150000D01*
G01*
G37*
G36*
G01*
X138620000Y-92635000D02*
X138620000Y-92335000D01*
G75*
G02*
X138770000Y-92185000I150000J0D01*
G01*
X140420000Y-92185000D01*
G75*
G02*
X140570000Y-92335000I0J-150000D01*
G01*
X140570000Y-92635000D01*
G75*
G02*
X140420000Y-92785000I-150000J0D01*
G01*
X138770000Y-92785000D01*
G75*
G02*
X138620000Y-92635000I0J150000D01*
G01*
G37*
G36*
G01*
X138620000Y-93905000D02*
X138620000Y-93605000D01*
G75*
G02*
X138770000Y-93455000I150000J0D01*
G01*
X140420000Y-93455000D01*
G75*
G02*
X140570000Y-93605000I0J-150000D01*
G01*
X140570000Y-93905000D01*
G75*
G02*
X140420000Y-94055000I-150000J0D01*
G01*
X138770000Y-94055000D01*
G75*
G02*
X138620000Y-93905000I0J150000D01*
G01*
G37*
G36*
G01*
X138620000Y-95175000D02*
X138620000Y-94875000D01*
G75*
G02*
X138770000Y-94725000I150000J0D01*
G01*
X140420000Y-94725000D01*
G75*
G02*
X140570000Y-94875000I0J-150000D01*
G01*
X140570000Y-95175000D01*
G75*
G02*
X140420000Y-95325000I-150000J0D01*
G01*
X138770000Y-95325000D01*
G75*
G02*
X138620000Y-95175000I0J150000D01*
G01*
G37*
G36*
G01*
X133670000Y-95175000D02*
X133670000Y-94875000D01*
G75*
G02*
X133820000Y-94725000I150000J0D01*
G01*
X135470000Y-94725000D01*
G75*
G02*
X135620000Y-94875000I0J-150000D01*
G01*
X135620000Y-95175000D01*
G75*
G02*
X135470000Y-95325000I-150000J0D01*
G01*
X133820000Y-95325000D01*
G75*
G02*
X133670000Y-95175000I0J150000D01*
G01*
G37*
G36*
G01*
X133670000Y-93905000D02*
X133670000Y-93605000D01*
G75*
G02*
X133820000Y-93455000I150000J0D01*
G01*
X135470000Y-93455000D01*
G75*
G02*
X135620000Y-93605000I0J-150000D01*
G01*
X135620000Y-93905000D01*
G75*
G02*
X135470000Y-94055000I-150000J0D01*
G01*
X133820000Y-94055000D01*
G75*
G02*
X133670000Y-93905000I0J150000D01*
G01*
G37*
G36*
G01*
X133670000Y-92635000D02*
X133670000Y-92335000D01*
G75*
G02*
X133820000Y-92185000I150000J0D01*
G01*
X135470000Y-92185000D01*
G75*
G02*
X135620000Y-92335000I0J-150000D01*
G01*
X135620000Y-92635000D01*
G75*
G02*
X135470000Y-92785000I-150000J0D01*
G01*
X133820000Y-92785000D01*
G75*
G02*
X133670000Y-92635000I0J150000D01*
G01*
G37*
G36*
G01*
X133670000Y-91365000D02*
X133670000Y-91065000D01*
G75*
G02*
X133820000Y-90915000I150000J0D01*
G01*
X135470000Y-90915000D01*
G75*
G02*
X135620000Y-91065000I0J-150000D01*
G01*
X135620000Y-91365000D01*
G75*
G02*
X135470000Y-91515000I-150000J0D01*
G01*
X133820000Y-91515000D01*
G75*
G02*
X133670000Y-91365000I0J150000D01*
G01*
G37*
G36*
G01*
X133670000Y-90095000D02*
X133670000Y-89795000D01*
G75*
G02*
X133820000Y-89645000I150000J0D01*
G01*
X135470000Y-89645000D01*
G75*
G02*
X135620000Y-89795000I0J-150000D01*
G01*
X135620000Y-90095000D01*
G75*
G02*
X135470000Y-90245000I-150000J0D01*
G01*
X133820000Y-90245000D01*
G75*
G02*
X133670000Y-90095000I0J150000D01*
G01*
G37*
G36*
G01*
X133670000Y-88825000D02*
X133670000Y-88525000D01*
G75*
G02*
X133820000Y-88375000I150000J0D01*
G01*
X135470000Y-88375000D01*
G75*
G02*
X135620000Y-88525000I0J-150000D01*
G01*
X135620000Y-88825000D01*
G75*
G02*
X135470000Y-88975000I-150000J0D01*
G01*
X133820000Y-88975000D01*
G75*
G02*
X133670000Y-88825000I0J150000D01*
G01*
G37*
G36*
G01*
X133670000Y-87555000D02*
X133670000Y-87255000D01*
G75*
G02*
X133820000Y-87105000I150000J0D01*
G01*
X135470000Y-87105000D01*
G75*
G02*
X135620000Y-87255000I0J-150000D01*
G01*
X135620000Y-87555000D01*
G75*
G02*
X135470000Y-87705000I-150000J0D01*
G01*
X133820000Y-87705000D01*
G75*
G02*
X133670000Y-87555000I0J150000D01*
G01*
G37*
G36*
G01*
X133670000Y-86285000D02*
X133670000Y-85985000D01*
G75*
G02*
X133820000Y-85835000I150000J0D01*
G01*
X135470000Y-85835000D01*
G75*
G02*
X135620000Y-85985000I0J-150000D01*
G01*
X135620000Y-86285000D01*
G75*
G02*
X135470000Y-86435000I-150000J0D01*
G01*
X133820000Y-86435000D01*
G75*
G02*
X133670000Y-86285000I0J150000D01*
G01*
G37*
%TD*%
D16*
%TO.C,U1*%
X121800108Y-50650048D03*
X122600208Y-50650048D03*
X123400054Y-50650048D03*
X124200154Y-50650048D03*
X125000254Y-50650048D03*
X125800100Y-50650048D03*
X126600200Y-50650048D03*
X127400046Y-50650048D03*
X128200146Y-50650048D03*
X128999992Y-50650048D03*
X129800092Y-50650048D03*
D17*
X130949950Y-55600000D03*
X130949950Y-56400100D03*
X130949950Y-57199946D03*
X130949950Y-58000046D03*
X130949950Y-58800146D03*
X130949950Y-59599992D03*
D16*
X120199908Y-60549952D03*
X121000008Y-60549952D03*
X121799854Y-60549952D03*
X122599954Y-60549952D03*
D18*
X125000000Y-55600000D03*
D19*
X119050050Y-50650048D03*
X119050050Y-60549952D03*
X130949950Y-60549952D03*
X130949950Y-50650048D03*
D17*
X119050050Y-51600008D03*
X119050050Y-52400108D03*
X119050050Y-53199954D03*
X119050050Y-54000054D03*
X119050050Y-54799900D03*
X119050050Y-55600000D03*
X119050050Y-56399846D03*
X119050050Y-57199946D03*
X119050050Y-58000046D03*
X119050050Y-58799892D03*
X119050050Y-59599992D03*
D16*
X123400054Y-60549952D03*
X124200154Y-60549952D03*
X125000000Y-60549952D03*
X125800100Y-60549952D03*
X126599946Y-60549952D03*
X127400046Y-60549952D03*
X128199892Y-60549952D03*
X128999992Y-60549952D03*
X129800092Y-60549952D03*
D17*
X130949950Y-54800154D03*
X130949950Y-54000054D03*
X130949950Y-53200208D03*
X130949950Y-52399854D03*
X130949950Y-51600008D03*
D16*
X121000008Y-50650048D03*
X120200162Y-50650048D03*
D18*
X126975104Y-55600000D03*
X126975104Y-53624896D03*
X125000000Y-53624896D03*
X123024896Y-55600000D03*
X123024896Y-57575104D03*
X125000000Y-57575104D03*
X126975104Y-57575104D03*
%TD*%
%TO.C,R13*%
G36*
G01*
X140561109Y-72009480D02*
X140299480Y-72271109D01*
G75*
G02*
X140108562Y-72271109I-95459J95459D01*
G01*
X139917643Y-72080190D01*
G75*
G02*
X139917643Y-71889272I95459J95459D01*
G01*
X140179272Y-71627643D01*
G75*
G02*
X140370190Y-71627643I95459J-95459D01*
G01*
X140561109Y-71818562D01*
G75*
G02*
X140561109Y-72009480I-95459J-95459D01*
G01*
G37*
G36*
G01*
X141282357Y-72730728D02*
X141020728Y-72992357D01*
G75*
G02*
X140829810Y-72992357I-95459J95459D01*
G01*
X140638891Y-72801438D01*
G75*
G02*
X140638891Y-72610520I95459J95459D01*
G01*
X140900520Y-72348891D01*
G75*
G02*
X141091438Y-72348891I95459J-95459D01*
G01*
X141282357Y-72539810D01*
G75*
G02*
X141282357Y-72730728I-95459J-95459D01*
G01*
G37*
%TD*%
%TO.C,R11*%
G36*
G01*
X114555000Y-63750000D02*
X114185000Y-63750000D01*
G75*
G02*
X114050000Y-63615000I0J135000D01*
G01*
X114050000Y-63345000D01*
G75*
G02*
X114185000Y-63210000I135000J0D01*
G01*
X114555000Y-63210000D01*
G75*
G02*
X114690000Y-63345000I0J-135000D01*
G01*
X114690000Y-63615000D01*
G75*
G02*
X114555000Y-63750000I-135000J0D01*
G01*
G37*
G36*
G01*
X114555000Y-64770000D02*
X114185000Y-64770000D01*
G75*
G02*
X114050000Y-64635000I0J135000D01*
G01*
X114050000Y-64365000D01*
G75*
G02*
X114185000Y-64230000I135000J0D01*
G01*
X114555000Y-64230000D01*
G75*
G02*
X114690000Y-64365000I0J-135000D01*
G01*
X114690000Y-64635000D01*
G75*
G02*
X114555000Y-64770000I-135000J0D01*
G01*
G37*
%TD*%
%TO.C,R10*%
G36*
G01*
X146225000Y-90520000D02*
X146595000Y-90520000D01*
G75*
G02*
X146730000Y-90655000I0J-135000D01*
G01*
X146730000Y-90925000D01*
G75*
G02*
X146595000Y-91060000I-135000J0D01*
G01*
X146225000Y-91060000D01*
G75*
G02*
X146090000Y-90925000I0J135000D01*
G01*
X146090000Y-90655000D01*
G75*
G02*
X146225000Y-90520000I135000J0D01*
G01*
G37*
G36*
G01*
X146225000Y-89500000D02*
X146595000Y-89500000D01*
G75*
G02*
X146730000Y-89635000I0J-135000D01*
G01*
X146730000Y-89905000D01*
G75*
G02*
X146595000Y-90040000I-135000J0D01*
G01*
X146225000Y-90040000D01*
G75*
G02*
X146090000Y-89905000I0J135000D01*
G01*
X146090000Y-89635000D01*
G75*
G02*
X146225000Y-89500000I135000J0D01*
G01*
G37*
%TD*%
%TO.C,R9*%
G36*
G01*
X142245000Y-93920000D02*
X142615000Y-93920000D01*
G75*
G02*
X142750000Y-94055000I0J-135000D01*
G01*
X142750000Y-94325000D01*
G75*
G02*
X142615000Y-94460000I-135000J0D01*
G01*
X142245000Y-94460000D01*
G75*
G02*
X142110000Y-94325000I0J135000D01*
G01*
X142110000Y-94055000D01*
G75*
G02*
X142245000Y-93920000I135000J0D01*
G01*
G37*
G36*
G01*
X142245000Y-92900000D02*
X142615000Y-92900000D01*
G75*
G02*
X142750000Y-93035000I0J-135000D01*
G01*
X142750000Y-93305000D01*
G75*
G02*
X142615000Y-93440000I-135000J0D01*
G01*
X142245000Y-93440000D01*
G75*
G02*
X142110000Y-93305000I0J135000D01*
G01*
X142110000Y-93035000D01*
G75*
G02*
X142245000Y-92900000I135000J0D01*
G01*
G37*
%TD*%
%TO.C,R8*%
G36*
G01*
X130020000Y-87485000D02*
X130020000Y-87855000D01*
G75*
G02*
X129885000Y-87990000I-135000J0D01*
G01*
X129615000Y-87990000D01*
G75*
G02*
X129480000Y-87855000I0J135000D01*
G01*
X129480000Y-87485000D01*
G75*
G02*
X129615000Y-87350000I135000J0D01*
G01*
X129885000Y-87350000D01*
G75*
G02*
X130020000Y-87485000I0J-135000D01*
G01*
G37*
G36*
G01*
X131040000Y-87485000D02*
X131040000Y-87855000D01*
G75*
G02*
X130905000Y-87990000I-135000J0D01*
G01*
X130635000Y-87990000D01*
G75*
G02*
X130500000Y-87855000I0J135000D01*
G01*
X130500000Y-87485000D01*
G75*
G02*
X130635000Y-87350000I135000J0D01*
G01*
X130905000Y-87350000D01*
G75*
G02*
X131040000Y-87485000I0J-135000D01*
G01*
G37*
%TD*%
%TO.C,R7*%
G36*
G01*
X130000000Y-86325000D02*
X130000000Y-86695000D01*
G75*
G02*
X129865000Y-86830000I-135000J0D01*
G01*
X129595000Y-86830000D01*
G75*
G02*
X129460000Y-86695000I0J135000D01*
G01*
X129460000Y-86325000D01*
G75*
G02*
X129595000Y-86190000I135000J0D01*
G01*
X129865000Y-86190000D01*
G75*
G02*
X130000000Y-86325000I0J-135000D01*
G01*
G37*
G36*
G01*
X131020000Y-86325000D02*
X131020000Y-86695000D01*
G75*
G02*
X130885000Y-86830000I-135000J0D01*
G01*
X130615000Y-86830000D01*
G75*
G02*
X130480000Y-86695000I0J135000D01*
G01*
X130480000Y-86325000D01*
G75*
G02*
X130615000Y-86190000I135000J0D01*
G01*
X130885000Y-86190000D01*
G75*
G02*
X131020000Y-86325000I0J-135000D01*
G01*
G37*
%TD*%
%TO.C,R6*%
G36*
G01*
X130480000Y-88955000D02*
X130480000Y-88585000D01*
G75*
G02*
X130615000Y-88450000I135000J0D01*
G01*
X130885000Y-88450000D01*
G75*
G02*
X131020000Y-88585000I0J-135000D01*
G01*
X131020000Y-88955000D01*
G75*
G02*
X130885000Y-89090000I-135000J0D01*
G01*
X130615000Y-89090000D01*
G75*
G02*
X130480000Y-88955000I0J135000D01*
G01*
G37*
G36*
G01*
X129460000Y-88955000D02*
X129460000Y-88585000D01*
G75*
G02*
X129595000Y-88450000I135000J0D01*
G01*
X129865000Y-88450000D01*
G75*
G02*
X130000000Y-88585000I0J-135000D01*
G01*
X130000000Y-88955000D01*
G75*
G02*
X129865000Y-89090000I-135000J0D01*
G01*
X129595000Y-89090000D01*
G75*
G02*
X129460000Y-88955000I0J135000D01*
G01*
G37*
%TD*%
%TO.C,R5*%
G36*
G01*
X125935000Y-86510000D02*
X125565000Y-86510000D01*
G75*
G02*
X125430000Y-86375000I0J135000D01*
G01*
X125430000Y-86105000D01*
G75*
G02*
X125565000Y-85970000I135000J0D01*
G01*
X125935000Y-85970000D01*
G75*
G02*
X126070000Y-86105000I0J-135000D01*
G01*
X126070000Y-86375000D01*
G75*
G02*
X125935000Y-86510000I-135000J0D01*
G01*
G37*
G36*
G01*
X125935000Y-87530000D02*
X125565000Y-87530000D01*
G75*
G02*
X125430000Y-87395000I0J135000D01*
G01*
X125430000Y-87125000D01*
G75*
G02*
X125565000Y-86990000I135000J0D01*
G01*
X125935000Y-86990000D01*
G75*
G02*
X126070000Y-87125000I0J-135000D01*
G01*
X126070000Y-87395000D01*
G75*
G02*
X125935000Y-87530000I-135000J0D01*
G01*
G37*
%TD*%
%TO.C,R4*%
G36*
G01*
X124435000Y-86510000D02*
X124065000Y-86510000D01*
G75*
G02*
X123930000Y-86375000I0J135000D01*
G01*
X123930000Y-86105000D01*
G75*
G02*
X124065000Y-85970000I135000J0D01*
G01*
X124435000Y-85970000D01*
G75*
G02*
X124570000Y-86105000I0J-135000D01*
G01*
X124570000Y-86375000D01*
G75*
G02*
X124435000Y-86510000I-135000J0D01*
G01*
G37*
G36*
G01*
X124435000Y-87530000D02*
X124065000Y-87530000D01*
G75*
G02*
X123930000Y-87395000I0J135000D01*
G01*
X123930000Y-87125000D01*
G75*
G02*
X124065000Y-86990000I135000J0D01*
G01*
X124435000Y-86990000D01*
G75*
G02*
X124570000Y-87125000I0J-135000D01*
G01*
X124570000Y-87395000D01*
G75*
G02*
X124435000Y-87530000I-135000J0D01*
G01*
G37*
%TD*%
%TO.C,R3*%
G36*
G01*
X130460000Y-89995000D02*
X130460000Y-89625000D01*
G75*
G02*
X130595000Y-89490000I135000J0D01*
G01*
X130865000Y-89490000D01*
G75*
G02*
X131000000Y-89625000I0J-135000D01*
G01*
X131000000Y-89995000D01*
G75*
G02*
X130865000Y-90130000I-135000J0D01*
G01*
X130595000Y-90130000D01*
G75*
G02*
X130460000Y-89995000I0J135000D01*
G01*
G37*
G36*
G01*
X129440000Y-89995000D02*
X129440000Y-89625000D01*
G75*
G02*
X129575000Y-89490000I135000J0D01*
G01*
X129845000Y-89490000D01*
G75*
G02*
X129980000Y-89625000I0J-135000D01*
G01*
X129980000Y-89995000D01*
G75*
G02*
X129845000Y-90130000I-135000J0D01*
G01*
X129575000Y-90130000D01*
G75*
G02*
X129440000Y-89995000I0J135000D01*
G01*
G37*
%TD*%
D20*
%TO.C,Q2*%
X143410000Y-89610000D03*
X144360000Y-91610000D03*
X142460000Y-91610000D03*
%TD*%
%TO.C,Q1*%
X139760000Y-81550000D03*
X140710000Y-83550000D03*
X138810000Y-83550000D03*
%TD*%
D21*
%TO.C,J1*%
X128250000Y-92625000D03*
X127450000Y-92625000D03*
X122550000Y-92625000D03*
X121750000Y-92625000D03*
X121750000Y-92625000D03*
X122550000Y-92625000D03*
X127450000Y-92625000D03*
X128250000Y-92625000D03*
D22*
X123250000Y-92625000D03*
X123750000Y-92625000D03*
X124250000Y-92625000D03*
X125250000Y-92625000D03*
X125750000Y-92625000D03*
X126250000Y-92625000D03*
X126750000Y-92625000D03*
X124750000Y-92625000D03*
D23*
X129320000Y-93540000D03*
X120680000Y-93540000D03*
D24*
X122110000Y-94070000D03*
D25*
X120680000Y-97720000D03*
D24*
X127890000Y-94070000D03*
D25*
X129320000Y-97720000D03*
%TD*%
%TO.C,C11*%
G36*
G01*
X116160000Y-63060000D02*
X116500000Y-63060000D01*
G75*
G02*
X116640000Y-63200000I0J-140000D01*
G01*
X116640000Y-63480000D01*
G75*
G02*
X116500000Y-63620000I-140000J0D01*
G01*
X116160000Y-63620000D01*
G75*
G02*
X116020000Y-63480000I0J140000D01*
G01*
X116020000Y-63200000D01*
G75*
G02*
X116160000Y-63060000I140000J0D01*
G01*
G37*
G36*
G01*
X116160000Y-62100000D02*
X116500000Y-62100000D01*
G75*
G02*
X116640000Y-62240000I0J-140000D01*
G01*
X116640000Y-62520000D01*
G75*
G02*
X116500000Y-62660000I-140000J0D01*
G01*
X116160000Y-62660000D01*
G75*
G02*
X116020000Y-62520000I0J140000D01*
G01*
X116020000Y-62240000D01*
G75*
G02*
X116160000Y-62100000I140000J0D01*
G01*
G37*
%TD*%
%TO.C,C10*%
G36*
G01*
X136790000Y-96750000D02*
X136790000Y-97090000D01*
G75*
G02*
X136650000Y-97230000I-140000J0D01*
G01*
X136370000Y-97230000D01*
G75*
G02*
X136230000Y-97090000I0J140000D01*
G01*
X136230000Y-96750000D01*
G75*
G02*
X136370000Y-96610000I140000J0D01*
G01*
X136650000Y-96610000D01*
G75*
G02*
X136790000Y-96750000I0J-140000D01*
G01*
G37*
G36*
G01*
X137750000Y-96750000D02*
X137750000Y-97090000D01*
G75*
G02*
X137610000Y-97230000I-140000J0D01*
G01*
X137330000Y-97230000D01*
G75*
G02*
X137190000Y-97090000I0J140000D01*
G01*
X137190000Y-96750000D01*
G75*
G02*
X137330000Y-96610000I140000J0D01*
G01*
X137610000Y-96610000D01*
G75*
G02*
X137750000Y-96750000I0J-140000D01*
G01*
G37*
%TD*%
%TO.C,C9*%
G36*
G01*
X114395000Y-52890000D02*
X113445000Y-52890000D01*
G75*
G02*
X113195000Y-52640000I0J250000D01*
G01*
X113195000Y-52140000D01*
G75*
G02*
X113445000Y-51890000I250000J0D01*
G01*
X114395000Y-51890000D01*
G75*
G02*
X114645000Y-52140000I0J-250000D01*
G01*
X114645000Y-52640000D01*
G75*
G02*
X114395000Y-52890000I-250000J0D01*
G01*
G37*
G36*
G01*
X114395000Y-54790000D02*
X113445000Y-54790000D01*
G75*
G02*
X113195000Y-54540000I0J250000D01*
G01*
X113195000Y-54040000D01*
G75*
G02*
X113445000Y-53790000I250000J0D01*
G01*
X114395000Y-53790000D01*
G75*
G02*
X114645000Y-54040000I0J-250000D01*
G01*
X114645000Y-54540000D01*
G75*
G02*
X114395000Y-54790000I-250000J0D01*
G01*
G37*
%TD*%
%TO.C,C8*%
G36*
G01*
X110540000Y-86555000D02*
X110540000Y-85605000D01*
G75*
G02*
X110790000Y-85355000I250000J0D01*
G01*
X111290000Y-85355000D01*
G75*
G02*
X111540000Y-85605000I0J-250000D01*
G01*
X111540000Y-86555000D01*
G75*
G02*
X111290000Y-86805000I-250000J0D01*
G01*
X110790000Y-86805000D01*
G75*
G02*
X110540000Y-86555000I0J250000D01*
G01*
G37*
G36*
G01*
X108640000Y-86555000D02*
X108640000Y-85605000D01*
G75*
G02*
X108890000Y-85355000I250000J0D01*
G01*
X109390000Y-85355000D01*
G75*
G02*
X109640000Y-85605000I0J-250000D01*
G01*
X109640000Y-86555000D01*
G75*
G02*
X109390000Y-86805000I-250000J0D01*
G01*
X108890000Y-86805000D01*
G75*
G02*
X108640000Y-86555000I0J250000D01*
G01*
G37*
%TD*%
%TO.C,C6*%
G36*
G01*
X116220000Y-84100000D02*
X116220000Y-84440000D01*
G75*
G02*
X116080000Y-84580000I-140000J0D01*
G01*
X115800000Y-84580000D01*
G75*
G02*
X115660000Y-84440000I0J140000D01*
G01*
X115660000Y-84100000D01*
G75*
G02*
X115800000Y-83960000I140000J0D01*
G01*
X116080000Y-83960000D01*
G75*
G02*
X116220000Y-84100000I0J-140000D01*
G01*
G37*
G36*
G01*
X117180000Y-84100000D02*
X117180000Y-84440000D01*
G75*
G02*
X117040000Y-84580000I-140000J0D01*
G01*
X116760000Y-84580000D01*
G75*
G02*
X116620000Y-84440000I0J140000D01*
G01*
X116620000Y-84100000D01*
G75*
G02*
X116760000Y-83960000I140000J0D01*
G01*
X117040000Y-83960000D01*
G75*
G02*
X117180000Y-84100000I0J-140000D01*
G01*
G37*
%TD*%
%TO.C,C4*%
G36*
G01*
X114820000Y-75250000D02*
X114820000Y-74910000D01*
G75*
G02*
X114960000Y-74770000I140000J0D01*
G01*
X115240000Y-74770000D01*
G75*
G02*
X115380000Y-74910000I0J-140000D01*
G01*
X115380000Y-75250000D01*
G75*
G02*
X115240000Y-75390000I-140000J0D01*
G01*
X114960000Y-75390000D01*
G75*
G02*
X114820000Y-75250000I0J140000D01*
G01*
G37*
G36*
G01*
X113860000Y-75250000D02*
X113860000Y-74910000D01*
G75*
G02*
X114000000Y-74770000I140000J0D01*
G01*
X114280000Y-74770000D01*
G75*
G02*
X114420000Y-74910000I0J-140000D01*
G01*
X114420000Y-75250000D01*
G75*
G02*
X114280000Y-75390000I-140000J0D01*
G01*
X114000000Y-75390000D01*
G75*
G02*
X113860000Y-75250000I0J140000D01*
G01*
G37*
%TD*%
%TO.C,C3*%
G36*
G01*
X134500000Y-80990000D02*
X134500000Y-80650000D01*
G75*
G02*
X134640000Y-80510000I140000J0D01*
G01*
X134920000Y-80510000D01*
G75*
G02*
X135060000Y-80650000I0J-140000D01*
G01*
X135060000Y-80990000D01*
G75*
G02*
X134920000Y-81130000I-140000J0D01*
G01*
X134640000Y-81130000D01*
G75*
G02*
X134500000Y-80990000I0J140000D01*
G01*
G37*
G36*
G01*
X133540000Y-80990000D02*
X133540000Y-80650000D01*
G75*
G02*
X133680000Y-80510000I140000J0D01*
G01*
X133960000Y-80510000D01*
G75*
G02*
X134100000Y-80650000I0J-140000D01*
G01*
X134100000Y-80990000D01*
G75*
G02*
X133960000Y-81130000I-140000J0D01*
G01*
X133680000Y-81130000D01*
G75*
G02*
X133540000Y-80990000I0J140000D01*
G01*
G37*
%TD*%
%TO.C,C2*%
G36*
G01*
X112370000Y-53150000D02*
X112030000Y-53150000D01*
G75*
G02*
X111890000Y-53010000I0J140000D01*
G01*
X111890000Y-52730000D01*
G75*
G02*
X112030000Y-52590000I140000J0D01*
G01*
X112370000Y-52590000D01*
G75*
G02*
X112510000Y-52730000I0J-140000D01*
G01*
X112510000Y-53010000D01*
G75*
G02*
X112370000Y-53150000I-140000J0D01*
G01*
G37*
G36*
G01*
X112370000Y-54110000D02*
X112030000Y-54110000D01*
G75*
G02*
X111890000Y-53970000I0J140000D01*
G01*
X111890000Y-53690000D01*
G75*
G02*
X112030000Y-53550000I140000J0D01*
G01*
X112370000Y-53550000D01*
G75*
G02*
X112510000Y-53690000I0J-140000D01*
G01*
X112510000Y-53970000D01*
G75*
G02*
X112370000Y-54110000I-140000J0D01*
G01*
G37*
%TD*%
%TO.C,C1*%
G36*
G01*
X116010000Y-64700000D02*
X116010000Y-64360000D01*
G75*
G02*
X116150000Y-64220000I140000J0D01*
G01*
X116430000Y-64220000D01*
G75*
G02*
X116570000Y-64360000I0J-140000D01*
G01*
X116570000Y-64700000D01*
G75*
G02*
X116430000Y-64840000I-140000J0D01*
G01*
X116150000Y-64840000D01*
G75*
G02*
X116010000Y-64700000I0J140000D01*
G01*
G37*
G36*
G01*
X115050000Y-64700000D02*
X115050000Y-64360000D01*
G75*
G02*
X115190000Y-64220000I140000J0D01*
G01*
X115470000Y-64220000D01*
G75*
G02*
X115610000Y-64360000I0J-140000D01*
G01*
X115610000Y-64700000D01*
G75*
G02*
X115470000Y-64840000I-140000J0D01*
G01*
X115190000Y-64840000D01*
G75*
G02*
X115050000Y-64700000I0J140000D01*
G01*
G37*
%TD*%
M02*
