%TF.GenerationSoftware,KiCad,Pcbnew,(5.1.12-1-10_14)*%
%TF.CreationDate,2021-12-26T14:39:33+08:00*%
%TF.ProjectId,esp32-c1_devboard,65737033-322d-4633-915f-646576626f61,rev?*%
%TF.SameCoordinates,Original*%
%TF.FileFunction,Legend,Top*%
%TF.FilePolarity,Positive*%
%FSLAX46Y46*%
G04 Gerber Fmt 4.6, Leading zero omitted, Abs format (unit mm)*
G04 Created by KiCad (PCBNEW (5.1.12-1-10_14)) date 2021-12-26 14:39:33*
%MOMM*%
%LPD*%
G01*
G04 APERTURE LIST*
%ADD10C,0.150000*%
%ADD11C,0.120000*%
%ADD12C,0.254000*%
%ADD13C,0.200000*%
%ADD14C,0.152400*%
%ADD15C,0.203200*%
G04 APERTURE END LIST*
D10*
X141960000Y-85211904D02*
X141912380Y-85307142D01*
X141912380Y-85450000D01*
X141960000Y-85592857D01*
X142055238Y-85688095D01*
X142150476Y-85735714D01*
X142340952Y-85783333D01*
X142483809Y-85783333D01*
X142674285Y-85735714D01*
X142769523Y-85688095D01*
X142864761Y-85592857D01*
X142912380Y-85450000D01*
X142912380Y-85354761D01*
X142864761Y-85211904D01*
X142817142Y-85164285D01*
X142483809Y-85164285D01*
X142483809Y-85354761D01*
X142912380Y-84735714D02*
X141912380Y-84735714D01*
X142912380Y-84164285D01*
X141912380Y-84164285D01*
X142912380Y-83688095D02*
X141912380Y-83688095D01*
X141912380Y-83450000D01*
X141960000Y-83307142D01*
X142055238Y-83211904D01*
X142150476Y-83164285D01*
X142340952Y-83116666D01*
X142483809Y-83116666D01*
X142674285Y-83164285D01*
X142769523Y-83211904D01*
X142864761Y-83307142D01*
X142912380Y-83450000D01*
X142912380Y-83688095D01*
X137849047Y-80050000D02*
X137753809Y-80002380D01*
X137610952Y-80002380D01*
X137468095Y-80050000D01*
X137372857Y-80145238D01*
X137325238Y-80240476D01*
X137277619Y-80430952D01*
X137277619Y-80573809D01*
X137325238Y-80764285D01*
X137372857Y-80859523D01*
X137468095Y-80954761D01*
X137610952Y-81002380D01*
X137706190Y-81002380D01*
X137849047Y-80954761D01*
X137896666Y-80907142D01*
X137896666Y-80573809D01*
X137706190Y-80573809D01*
X138325238Y-81002380D02*
X138325238Y-80002380D01*
X138896666Y-81002380D01*
X138896666Y-80002380D01*
X139372857Y-81002380D02*
X139372857Y-80002380D01*
X139610952Y-80002380D01*
X139753809Y-80050000D01*
X139849047Y-80145238D01*
X139896666Y-80240476D01*
X139944285Y-80430952D01*
X139944285Y-80573809D01*
X139896666Y-80764285D01*
X139849047Y-80859523D01*
X139753809Y-80954761D01*
X139610952Y-81002380D01*
X139372857Y-81002380D01*
X141134761Y-81002380D02*
X141134761Y-80002380D01*
X141801428Y-80002380D02*
X141991904Y-80002380D01*
X142087142Y-80050000D01*
X142182380Y-80145238D01*
X142230000Y-80335714D01*
X142230000Y-80669047D01*
X142182380Y-80859523D01*
X142087142Y-80954761D01*
X141991904Y-81002380D01*
X141801428Y-81002380D01*
X141706190Y-80954761D01*
X141610952Y-80859523D01*
X141563333Y-80669047D01*
X141563333Y-80335714D01*
X141610952Y-80145238D01*
X141706190Y-80050000D01*
X141801428Y-80002380D01*
X143087142Y-80335714D02*
X143087142Y-81002380D01*
X142849047Y-79954761D02*
X142610952Y-80669047D01*
X143230000Y-80669047D01*
X137630952Y-78792380D02*
X137630952Y-77792380D01*
X138297619Y-77792380D02*
X138488095Y-77792380D01*
X138583333Y-77840000D01*
X138678571Y-77935238D01*
X138726190Y-78125714D01*
X138726190Y-78459047D01*
X138678571Y-78649523D01*
X138583333Y-78744761D01*
X138488095Y-78792380D01*
X138297619Y-78792380D01*
X138202380Y-78744761D01*
X138107142Y-78649523D01*
X138059523Y-78459047D01*
X138059523Y-78125714D01*
X138107142Y-77935238D01*
X138202380Y-77840000D01*
X138297619Y-77792380D01*
X139630952Y-77792380D02*
X139154761Y-77792380D01*
X139107142Y-78268571D01*
X139154761Y-78220952D01*
X139250000Y-78173333D01*
X139488095Y-78173333D01*
X139583333Y-78220952D01*
X139630952Y-78268571D01*
X139678571Y-78363809D01*
X139678571Y-78601904D01*
X139630952Y-78697142D01*
X139583333Y-78744761D01*
X139488095Y-78792380D01*
X139250000Y-78792380D01*
X139154761Y-78744761D01*
X139107142Y-78697142D01*
X140869047Y-78792380D02*
X140869047Y-77792380D01*
X141535714Y-77792380D02*
X141726190Y-77792380D01*
X141821428Y-77840000D01*
X141916666Y-77935238D01*
X141964285Y-78125714D01*
X141964285Y-78459047D01*
X141916666Y-78649523D01*
X141821428Y-78744761D01*
X141726190Y-78792380D01*
X141535714Y-78792380D01*
X141440476Y-78744761D01*
X141345238Y-78649523D01*
X141297619Y-78459047D01*
X141297619Y-78125714D01*
X141345238Y-77935238D01*
X141440476Y-77840000D01*
X141535714Y-77792380D01*
X142821428Y-77792380D02*
X142630952Y-77792380D01*
X142535714Y-77840000D01*
X142488095Y-77887619D01*
X142392857Y-78030476D01*
X142345238Y-78220952D01*
X142345238Y-78601904D01*
X142392857Y-78697142D01*
X142440476Y-78744761D01*
X142535714Y-78792380D01*
X142726190Y-78792380D01*
X142821428Y-78744761D01*
X142869047Y-78697142D01*
X142916666Y-78601904D01*
X142916666Y-78363809D01*
X142869047Y-78268571D01*
X142821428Y-78220952D01*
X142726190Y-78173333D01*
X142535714Y-78173333D01*
X142440476Y-78220952D01*
X142392857Y-78268571D01*
X142345238Y-78363809D01*
X137560952Y-76352380D02*
X137560952Y-75352380D01*
X138227619Y-75352380D02*
X138418095Y-75352380D01*
X138513333Y-75400000D01*
X138608571Y-75495238D01*
X138656190Y-75685714D01*
X138656190Y-76019047D01*
X138608571Y-76209523D01*
X138513333Y-76304761D01*
X138418095Y-76352380D01*
X138227619Y-76352380D01*
X138132380Y-76304761D01*
X138037142Y-76209523D01*
X137989523Y-76019047D01*
X137989523Y-75685714D01*
X138037142Y-75495238D01*
X138132380Y-75400000D01*
X138227619Y-75352380D01*
X138989523Y-75352380D02*
X139656190Y-75352380D01*
X139227619Y-76352380D01*
X140799047Y-76352380D02*
X140799047Y-75352380D01*
X141465714Y-75352380D02*
X141656190Y-75352380D01*
X141751428Y-75400000D01*
X141846666Y-75495238D01*
X141894285Y-75685714D01*
X141894285Y-76019047D01*
X141846666Y-76209523D01*
X141751428Y-76304761D01*
X141656190Y-76352380D01*
X141465714Y-76352380D01*
X141370476Y-76304761D01*
X141275238Y-76209523D01*
X141227619Y-76019047D01*
X141227619Y-75685714D01*
X141275238Y-75495238D01*
X141370476Y-75400000D01*
X141465714Y-75352380D01*
X142465714Y-75780952D02*
X142370476Y-75733333D01*
X142322857Y-75685714D01*
X142275238Y-75590476D01*
X142275238Y-75542857D01*
X142322857Y-75447619D01*
X142370476Y-75400000D01*
X142465714Y-75352380D01*
X142656190Y-75352380D01*
X142751428Y-75400000D01*
X142799047Y-75447619D01*
X142846666Y-75542857D01*
X142846666Y-75590476D01*
X142799047Y-75685714D01*
X142751428Y-75733333D01*
X142656190Y-75780952D01*
X142465714Y-75780952D01*
X142370476Y-75828571D01*
X142322857Y-75876190D01*
X142275238Y-75971428D01*
X142275238Y-76161904D01*
X142322857Y-76257142D01*
X142370476Y-76304761D01*
X142465714Y-76352380D01*
X142656190Y-76352380D01*
X142751428Y-76304761D01*
X142799047Y-76257142D01*
X142846666Y-76161904D01*
X142846666Y-75971428D01*
X142799047Y-75876190D01*
X142751428Y-75828571D01*
X142656190Y-75780952D01*
X141532380Y-73702380D02*
X141199047Y-73226190D01*
X140960952Y-73702380D02*
X140960952Y-72702380D01*
X141341904Y-72702380D01*
X141437142Y-72750000D01*
X141484761Y-72797619D01*
X141532380Y-72892857D01*
X141532380Y-73035714D01*
X141484761Y-73130952D01*
X141437142Y-73178571D01*
X141341904Y-73226190D01*
X140960952Y-73226190D01*
X141913333Y-73654761D02*
X142056190Y-73702380D01*
X142294285Y-73702380D01*
X142389523Y-73654761D01*
X142437142Y-73607142D01*
X142484761Y-73511904D01*
X142484761Y-73416666D01*
X142437142Y-73321428D01*
X142389523Y-73273809D01*
X142294285Y-73226190D01*
X142103809Y-73178571D01*
X142008571Y-73130952D01*
X141960952Y-73083333D01*
X141913333Y-72988095D01*
X141913333Y-72892857D01*
X141960952Y-72797619D01*
X142008571Y-72750000D01*
X142103809Y-72702380D01*
X142341904Y-72702380D01*
X142484761Y-72750000D01*
X142770476Y-72702380D02*
X143341904Y-72702380D01*
X143056190Y-73702380D02*
X143056190Y-72702380D01*
X135900000Y-73362380D02*
X135900000Y-72362380D01*
X136566666Y-72362380D02*
X136757142Y-72362380D01*
X136852380Y-72410000D01*
X136947619Y-72505238D01*
X136995238Y-72695714D01*
X136995238Y-73029047D01*
X136947619Y-73219523D01*
X136852380Y-73314761D01*
X136757142Y-73362380D01*
X136566666Y-73362380D01*
X136471428Y-73314761D01*
X136376190Y-73219523D01*
X136328571Y-73029047D01*
X136328571Y-72695714D01*
X136376190Y-72505238D01*
X136471428Y-72410000D01*
X136566666Y-72362380D01*
X137471428Y-73362380D02*
X137661904Y-73362380D01*
X137757142Y-73314761D01*
X137804761Y-73267142D01*
X137900000Y-73124285D01*
X137947619Y-72933809D01*
X137947619Y-72552857D01*
X137900000Y-72457619D01*
X137852380Y-72410000D01*
X137757142Y-72362380D01*
X137566666Y-72362380D01*
X137471428Y-72410000D01*
X137423809Y-72457619D01*
X137376190Y-72552857D01*
X137376190Y-72790952D01*
X137423809Y-72886190D01*
X137471428Y-72933809D01*
X137566666Y-72981428D01*
X137757142Y-72981428D01*
X137852380Y-72933809D01*
X137900000Y-72886190D01*
X137947619Y-72790952D01*
X136148571Y-71252380D02*
X136148571Y-70252380D01*
X136815238Y-70252380D02*
X137005714Y-70252380D01*
X137100952Y-70300000D01*
X137196190Y-70395238D01*
X137243809Y-70585714D01*
X137243809Y-70919047D01*
X137196190Y-71109523D01*
X137100952Y-71204761D01*
X137005714Y-71252380D01*
X136815238Y-71252380D01*
X136720000Y-71204761D01*
X136624761Y-71109523D01*
X136577142Y-70919047D01*
X136577142Y-70585714D01*
X136624761Y-70395238D01*
X136720000Y-70300000D01*
X136815238Y-70252380D01*
X138196190Y-71252380D02*
X137624761Y-71252380D01*
X137910476Y-71252380D02*
X137910476Y-70252380D01*
X137815238Y-70395238D01*
X137720000Y-70490476D01*
X137624761Y-70538095D01*
X138767619Y-70680952D02*
X138672380Y-70633333D01*
X138624761Y-70585714D01*
X138577142Y-70490476D01*
X138577142Y-70442857D01*
X138624761Y-70347619D01*
X138672380Y-70300000D01*
X138767619Y-70252380D01*
X138958095Y-70252380D01*
X139053333Y-70300000D01*
X139100952Y-70347619D01*
X139148571Y-70442857D01*
X139148571Y-70490476D01*
X139100952Y-70585714D01*
X139053333Y-70633333D01*
X138958095Y-70680952D01*
X138767619Y-70680952D01*
X138672380Y-70728571D01*
X138624761Y-70776190D01*
X138577142Y-70871428D01*
X138577142Y-71061904D01*
X138624761Y-71157142D01*
X138672380Y-71204761D01*
X138767619Y-71252380D01*
X138958095Y-71252380D01*
X139053333Y-71204761D01*
X139100952Y-71157142D01*
X139148571Y-71061904D01*
X139148571Y-70871428D01*
X139100952Y-70776190D01*
X139053333Y-70728571D01*
X138958095Y-70680952D01*
X140339047Y-71252380D02*
X140339047Y-70252380D01*
X141005714Y-70252380D02*
X141196190Y-70252380D01*
X141291428Y-70300000D01*
X141386666Y-70395238D01*
X141434285Y-70585714D01*
X141434285Y-70919047D01*
X141386666Y-71109523D01*
X141291428Y-71204761D01*
X141196190Y-71252380D01*
X141005714Y-71252380D01*
X140910476Y-71204761D01*
X140815238Y-71109523D01*
X140767619Y-70919047D01*
X140767619Y-70585714D01*
X140815238Y-70395238D01*
X140910476Y-70300000D01*
X141005714Y-70252380D01*
X142386666Y-71252380D02*
X141815238Y-71252380D01*
X142100952Y-71252380D02*
X142100952Y-70252380D01*
X142005714Y-70395238D01*
X141910476Y-70490476D01*
X141815238Y-70538095D01*
X142862857Y-71252380D02*
X143053333Y-71252380D01*
X143148571Y-71204761D01*
X143196190Y-71157142D01*
X143291428Y-71014285D01*
X143339047Y-70823809D01*
X143339047Y-70442857D01*
X143291428Y-70347619D01*
X143243809Y-70300000D01*
X143148571Y-70252380D01*
X142958095Y-70252380D01*
X142862857Y-70300000D01*
X142815238Y-70347619D01*
X142767619Y-70442857D01*
X142767619Y-70680952D01*
X142815238Y-70776190D01*
X142862857Y-70823809D01*
X142958095Y-70871428D01*
X143148571Y-70871428D01*
X143243809Y-70823809D01*
X143291428Y-70776190D01*
X143339047Y-70680952D01*
X137585238Y-68702380D02*
X137251904Y-68226190D01*
X137013809Y-68702380D02*
X137013809Y-67702380D01*
X137394761Y-67702380D01*
X137490000Y-67750000D01*
X137537619Y-67797619D01*
X137585238Y-67892857D01*
X137585238Y-68035714D01*
X137537619Y-68130952D01*
X137490000Y-68178571D01*
X137394761Y-68226190D01*
X137013809Y-68226190D01*
X137918571Y-67702380D02*
X138585238Y-68702380D01*
X138585238Y-67702380D02*
X137918571Y-68702380D01*
X138966190Y-68702380D02*
X138966190Y-67702380D01*
X139204285Y-67702380D01*
X139347142Y-67750000D01*
X139442380Y-67845238D01*
X139490000Y-67940476D01*
X139537619Y-68130952D01*
X139537619Y-68273809D01*
X139490000Y-68464285D01*
X139442380Y-68559523D01*
X139347142Y-68654761D01*
X139204285Y-68702380D01*
X138966190Y-68702380D01*
X140585238Y-67702380D02*
X141156666Y-67702380D01*
X140870952Y-68702380D02*
X140870952Y-67702380D01*
X141394761Y-67702380D02*
X142061428Y-68702380D01*
X142061428Y-67702380D02*
X141394761Y-68702380D01*
X142442380Y-68702380D02*
X142442380Y-67702380D01*
X142680476Y-67702380D01*
X142823333Y-67750000D01*
X142918571Y-67845238D01*
X142966190Y-67940476D01*
X143013809Y-68130952D01*
X143013809Y-68273809D01*
X142966190Y-68464285D01*
X142918571Y-68559523D01*
X142823333Y-68654761D01*
X142680476Y-68702380D01*
X142442380Y-68702380D01*
X140351904Y-65082380D02*
X140970952Y-65082380D01*
X140637619Y-65463333D01*
X140780476Y-65463333D01*
X140875714Y-65510952D01*
X140923333Y-65558571D01*
X140970952Y-65653809D01*
X140970952Y-65891904D01*
X140923333Y-65987142D01*
X140875714Y-66034761D01*
X140780476Y-66082380D01*
X140494761Y-66082380D01*
X140399523Y-66034761D01*
X140351904Y-65987142D01*
X141256666Y-65082380D02*
X141590000Y-66082380D01*
X141923333Y-65082380D01*
X142161428Y-65082380D02*
X142780476Y-65082380D01*
X142447142Y-65463333D01*
X142590000Y-65463333D01*
X142685238Y-65510952D01*
X142732857Y-65558571D01*
X142780476Y-65653809D01*
X142780476Y-65891904D01*
X142732857Y-65987142D01*
X142685238Y-66034761D01*
X142590000Y-66082380D01*
X142304285Y-66082380D01*
X142209047Y-66034761D01*
X142161428Y-65987142D01*
X140768095Y-62590000D02*
X140672857Y-62542380D01*
X140530000Y-62542380D01*
X140387142Y-62590000D01*
X140291904Y-62685238D01*
X140244285Y-62780476D01*
X140196666Y-62970952D01*
X140196666Y-63113809D01*
X140244285Y-63304285D01*
X140291904Y-63399523D01*
X140387142Y-63494761D01*
X140530000Y-63542380D01*
X140625238Y-63542380D01*
X140768095Y-63494761D01*
X140815714Y-63447142D01*
X140815714Y-63113809D01*
X140625238Y-63113809D01*
X141244285Y-63542380D02*
X141244285Y-62542380D01*
X141815714Y-63542380D01*
X141815714Y-62542380D01*
X142291904Y-63542380D02*
X142291904Y-62542380D01*
X142530000Y-62542380D01*
X142672857Y-62590000D01*
X142768095Y-62685238D01*
X142815714Y-62780476D01*
X142863333Y-62970952D01*
X142863333Y-63113809D01*
X142815714Y-63304285D01*
X142768095Y-63399523D01*
X142672857Y-63494761D01*
X142530000Y-63542380D01*
X142291904Y-63542380D01*
X106786190Y-62442380D02*
X107405238Y-62442380D01*
X107071904Y-62823333D01*
X107214761Y-62823333D01*
X107310000Y-62870952D01*
X107357619Y-62918571D01*
X107405238Y-63013809D01*
X107405238Y-63251904D01*
X107357619Y-63347142D01*
X107310000Y-63394761D01*
X107214761Y-63442380D01*
X106929047Y-63442380D01*
X106833809Y-63394761D01*
X106786190Y-63347142D01*
X107690952Y-62442380D02*
X108024285Y-63442380D01*
X108357619Y-62442380D01*
X108595714Y-62442380D02*
X109214761Y-62442380D01*
X108881428Y-62823333D01*
X109024285Y-62823333D01*
X109119523Y-62870952D01*
X109167142Y-62918571D01*
X109214761Y-63013809D01*
X109214761Y-63251904D01*
X109167142Y-63347142D01*
X109119523Y-63394761D01*
X109024285Y-63442380D01*
X108738571Y-63442380D01*
X108643333Y-63394761D01*
X108595714Y-63347142D01*
X110881428Y-62442380D02*
X110405238Y-62442380D01*
X110357619Y-62918571D01*
X110405238Y-62870952D01*
X110500476Y-62823333D01*
X110738571Y-62823333D01*
X110833809Y-62870952D01*
X110881428Y-62918571D01*
X110929047Y-63013809D01*
X110929047Y-63251904D01*
X110881428Y-63347142D01*
X110833809Y-63394761D01*
X110738571Y-63442380D01*
X110500476Y-63442380D01*
X110405238Y-63394761D01*
X110357619Y-63347142D01*
X111214761Y-62442380D02*
X111548095Y-63442380D01*
X111881428Y-62442380D01*
X106827142Y-65122380D02*
X107446190Y-65122380D01*
X107112857Y-65503333D01*
X107255714Y-65503333D01*
X107350952Y-65550952D01*
X107398571Y-65598571D01*
X107446190Y-65693809D01*
X107446190Y-65931904D01*
X107398571Y-66027142D01*
X107350952Y-66074761D01*
X107255714Y-66122380D01*
X106970000Y-66122380D01*
X106874761Y-66074761D01*
X106827142Y-66027142D01*
X107731904Y-65122380D02*
X108065238Y-66122380D01*
X108398571Y-65122380D01*
X108636666Y-65122380D02*
X109255714Y-65122380D01*
X108922380Y-65503333D01*
X109065238Y-65503333D01*
X109160476Y-65550952D01*
X109208095Y-65598571D01*
X109255714Y-65693809D01*
X109255714Y-65931904D01*
X109208095Y-66027142D01*
X109160476Y-66074761D01*
X109065238Y-66122380D01*
X108779523Y-66122380D01*
X108684285Y-66074761D01*
X108636666Y-66027142D01*
X110970000Y-65170000D02*
X110874761Y-65122380D01*
X110731904Y-65122380D01*
X110589047Y-65170000D01*
X110493809Y-65265238D01*
X110446190Y-65360476D01*
X110398571Y-65550952D01*
X110398571Y-65693809D01*
X110446190Y-65884285D01*
X110493809Y-65979523D01*
X110589047Y-66074761D01*
X110731904Y-66122380D01*
X110827142Y-66122380D01*
X110970000Y-66074761D01*
X111017619Y-66027142D01*
X111017619Y-65693809D01*
X110827142Y-65693809D01*
X111446190Y-66122380D02*
X111446190Y-65122380D01*
X112017619Y-66122380D01*
X112017619Y-65122380D01*
X112493809Y-66122380D02*
X112493809Y-65122380D01*
X112731904Y-65122380D01*
X112874761Y-65170000D01*
X112970000Y-65265238D01*
X113017619Y-65360476D01*
X113065238Y-65550952D01*
X113065238Y-65693809D01*
X113017619Y-65884285D01*
X112970000Y-65979523D01*
X112874761Y-66074761D01*
X112731904Y-66122380D01*
X112493809Y-66122380D01*
X107611904Y-68962380D02*
X108230952Y-68962380D01*
X107897619Y-69343333D01*
X108040476Y-69343333D01*
X108135714Y-69390952D01*
X108183333Y-69438571D01*
X108230952Y-69533809D01*
X108230952Y-69771904D01*
X108183333Y-69867142D01*
X108135714Y-69914761D01*
X108040476Y-69962380D01*
X107754761Y-69962380D01*
X107659523Y-69914761D01*
X107611904Y-69867142D01*
X108516666Y-68962380D02*
X108850000Y-69962380D01*
X109183333Y-68962380D01*
X109421428Y-68962380D02*
X110040476Y-68962380D01*
X109707142Y-69343333D01*
X109850000Y-69343333D01*
X109945238Y-69390952D01*
X109992857Y-69438571D01*
X110040476Y-69533809D01*
X110040476Y-69771904D01*
X109992857Y-69867142D01*
X109945238Y-69914761D01*
X109850000Y-69962380D01*
X109564285Y-69962380D01*
X109469047Y-69914761D01*
X109421428Y-69867142D01*
X106860952Y-73772380D02*
X106860952Y-72772380D01*
X107527619Y-72772380D02*
X107718095Y-72772380D01*
X107813333Y-72820000D01*
X107908571Y-72915238D01*
X107956190Y-73105714D01*
X107956190Y-73439047D01*
X107908571Y-73629523D01*
X107813333Y-73724761D01*
X107718095Y-73772380D01*
X107527619Y-73772380D01*
X107432380Y-73724761D01*
X107337142Y-73629523D01*
X107289523Y-73439047D01*
X107289523Y-73105714D01*
X107337142Y-72915238D01*
X107432380Y-72820000D01*
X107527619Y-72772380D01*
X108337142Y-72867619D02*
X108384761Y-72820000D01*
X108480000Y-72772380D01*
X108718095Y-72772380D01*
X108813333Y-72820000D01*
X108860952Y-72867619D01*
X108908571Y-72962857D01*
X108908571Y-73058095D01*
X108860952Y-73200952D01*
X108289523Y-73772380D01*
X108908571Y-73772380D01*
X110099047Y-73772380D02*
X110099047Y-72772380D01*
X110765714Y-72772380D02*
X110956190Y-72772380D01*
X111051428Y-72820000D01*
X111146666Y-72915238D01*
X111194285Y-73105714D01*
X111194285Y-73439047D01*
X111146666Y-73629523D01*
X111051428Y-73724761D01*
X110956190Y-73772380D01*
X110765714Y-73772380D01*
X110670476Y-73724761D01*
X110575238Y-73629523D01*
X110527619Y-73439047D01*
X110527619Y-73105714D01*
X110575238Y-72915238D01*
X110670476Y-72820000D01*
X110765714Y-72772380D01*
X111527619Y-72772380D02*
X112146666Y-72772380D01*
X111813333Y-73153333D01*
X111956190Y-73153333D01*
X112051428Y-73200952D01*
X112099047Y-73248571D01*
X112146666Y-73343809D01*
X112146666Y-73581904D01*
X112099047Y-73677142D01*
X112051428Y-73724761D01*
X111956190Y-73772380D01*
X111670476Y-73772380D01*
X111575238Y-73724761D01*
X111527619Y-73677142D01*
X106900952Y-76162380D02*
X106900952Y-75162380D01*
X107567619Y-75162380D02*
X107758095Y-75162380D01*
X107853333Y-75210000D01*
X107948571Y-75305238D01*
X107996190Y-75495714D01*
X107996190Y-75829047D01*
X107948571Y-76019523D01*
X107853333Y-76114761D01*
X107758095Y-76162380D01*
X107567619Y-76162380D01*
X107472380Y-76114761D01*
X107377142Y-76019523D01*
X107329523Y-75829047D01*
X107329523Y-75495714D01*
X107377142Y-75305238D01*
X107472380Y-75210000D01*
X107567619Y-75162380D01*
X108615238Y-75162380D02*
X108710476Y-75162380D01*
X108805714Y-75210000D01*
X108853333Y-75257619D01*
X108900952Y-75352857D01*
X108948571Y-75543333D01*
X108948571Y-75781428D01*
X108900952Y-75971904D01*
X108853333Y-76067142D01*
X108805714Y-76114761D01*
X108710476Y-76162380D01*
X108615238Y-76162380D01*
X108520000Y-76114761D01*
X108472380Y-76067142D01*
X108424761Y-75971904D01*
X108377142Y-75781428D01*
X108377142Y-75543333D01*
X108424761Y-75352857D01*
X108472380Y-75257619D01*
X108520000Y-75210000D01*
X108615238Y-75162380D01*
X110139047Y-76162380D02*
X110139047Y-75162380D01*
X110805714Y-75162380D02*
X110996190Y-75162380D01*
X111091428Y-75210000D01*
X111186666Y-75305238D01*
X111234285Y-75495714D01*
X111234285Y-75829047D01*
X111186666Y-76019523D01*
X111091428Y-76114761D01*
X110996190Y-76162380D01*
X110805714Y-76162380D01*
X110710476Y-76114761D01*
X110615238Y-76019523D01*
X110567619Y-75829047D01*
X110567619Y-75495714D01*
X110615238Y-75305238D01*
X110710476Y-75210000D01*
X110805714Y-75162380D01*
X112186666Y-76162380D02*
X111615238Y-76162380D01*
X111900952Y-76162380D02*
X111900952Y-75162380D01*
X111805714Y-75305238D01*
X111710476Y-75400476D01*
X111615238Y-75448095D01*
X107368095Y-81530000D02*
X107272857Y-81482380D01*
X107130000Y-81482380D01*
X106987142Y-81530000D01*
X106891904Y-81625238D01*
X106844285Y-81720476D01*
X106796666Y-81910952D01*
X106796666Y-82053809D01*
X106844285Y-82244285D01*
X106891904Y-82339523D01*
X106987142Y-82434761D01*
X107130000Y-82482380D01*
X107225238Y-82482380D01*
X107368095Y-82434761D01*
X107415714Y-82387142D01*
X107415714Y-82053809D01*
X107225238Y-82053809D01*
X107844285Y-82482380D02*
X107844285Y-81482380D01*
X108415714Y-82482380D01*
X108415714Y-81482380D01*
X108891904Y-82482380D02*
X108891904Y-81482380D01*
X109130000Y-81482380D01*
X109272857Y-81530000D01*
X109368095Y-81625238D01*
X109415714Y-81720476D01*
X109463333Y-81910952D01*
X109463333Y-82053809D01*
X109415714Y-82244285D01*
X109368095Y-82339523D01*
X109272857Y-82434761D01*
X109130000Y-82482380D01*
X108891904Y-82482380D01*
X105232857Y-77790000D02*
X105137619Y-77742380D01*
X104994761Y-77742380D01*
X104851904Y-77790000D01*
X104756666Y-77885238D01*
X104709047Y-77980476D01*
X104661428Y-78170952D01*
X104661428Y-78313809D01*
X104709047Y-78504285D01*
X104756666Y-78599523D01*
X104851904Y-78694761D01*
X104994761Y-78742380D01*
X105090000Y-78742380D01*
X105232857Y-78694761D01*
X105280476Y-78647142D01*
X105280476Y-78313809D01*
X105090000Y-78313809D01*
X105709047Y-78742380D02*
X105709047Y-77742380D01*
X106280476Y-78742380D01*
X106280476Y-77742380D01*
X106756666Y-78742380D02*
X106756666Y-77742380D01*
X106994761Y-77742380D01*
X107137619Y-77790000D01*
X107232857Y-77885238D01*
X107280476Y-77980476D01*
X107328095Y-78170952D01*
X107328095Y-78313809D01*
X107280476Y-78504285D01*
X107232857Y-78599523D01*
X107137619Y-78694761D01*
X106994761Y-78742380D01*
X106756666Y-78742380D01*
X108518571Y-78742380D02*
X108518571Y-77742380D01*
X109185238Y-77742380D02*
X109375714Y-77742380D01*
X109470952Y-77790000D01*
X109566190Y-77885238D01*
X109613809Y-78075714D01*
X109613809Y-78409047D01*
X109566190Y-78599523D01*
X109470952Y-78694761D01*
X109375714Y-78742380D01*
X109185238Y-78742380D01*
X109090000Y-78694761D01*
X108994761Y-78599523D01*
X108947142Y-78409047D01*
X108947142Y-78075714D01*
X108994761Y-77885238D01*
X109090000Y-77790000D01*
X109185238Y-77742380D01*
X110566190Y-78742380D02*
X109994761Y-78742380D01*
X110280476Y-78742380D02*
X110280476Y-77742380D01*
X110185238Y-77885238D01*
X110090000Y-77980476D01*
X109994761Y-78028095D01*
X111185238Y-77742380D02*
X111280476Y-77742380D01*
X111375714Y-77790000D01*
X111423333Y-77837619D01*
X111470952Y-77932857D01*
X111518571Y-78123333D01*
X111518571Y-78361428D01*
X111470952Y-78551904D01*
X111423333Y-78647142D01*
X111375714Y-78694761D01*
X111280476Y-78742380D01*
X111185238Y-78742380D01*
X111090000Y-78694761D01*
X111042380Y-78647142D01*
X110994761Y-78551904D01*
X110947142Y-78361428D01*
X110947142Y-78123333D01*
X110994761Y-77932857D01*
X111042380Y-77837619D01*
X111090000Y-77790000D01*
X111185238Y-77742380D01*
D11*
%TO.C,R14*%
X123226359Y-70270000D02*
X123533641Y-70270000D01*
X123226359Y-71030000D02*
X123533641Y-71030000D01*
%TO.C,R12*%
X135473641Y-52760000D02*
X135166359Y-52760000D01*
X135473641Y-52000000D02*
X135166359Y-52000000D01*
%TO.C,IO4*%
X125130000Y-68620000D02*
X125130000Y-71305000D01*
X125130000Y-71305000D02*
X127050000Y-71305000D01*
X127050000Y-71305000D02*
X127050000Y-68620000D01*
%TO.C,VCC*%
X139950000Y-55860000D02*
X139950000Y-53175000D01*
X139950000Y-53175000D02*
X138030000Y-53175000D01*
X138030000Y-53175000D02*
X138030000Y-55860000D01*
%TO.C,C7*%
X107541252Y-88810000D02*
X105218748Y-88810000D01*
X107541252Y-92230000D02*
X105218748Y-92230000D01*
%TO.C,C5*%
X117601252Y-85290000D02*
X115278748Y-85290000D01*
X117601252Y-88710000D02*
X115278748Y-88710000D01*
D12*
%TO.C,RESET*%
X113914274Y-79459992D02*
X115614296Y-79459992D01*
X112820042Y-79449832D02*
X112820042Y-76549914D01*
X116719958Y-79449832D02*
X112820042Y-79449832D01*
X116719958Y-76549914D02*
X116719958Y-79449832D01*
X112820042Y-76549914D02*
X116719958Y-76549914D01*
%TO.C,BOOT*%
X133384274Y-79459992D02*
X135084296Y-79459992D01*
X132290042Y-79449832D02*
X132290042Y-76549914D01*
X136189958Y-79449832D02*
X132290042Y-79449832D01*
X136189958Y-76549914D02*
X136189958Y-79449832D01*
X132290042Y-76549914D02*
X136189958Y-76549914D01*
D11*
%TO.C,J3*%
X143990000Y-87190000D02*
X149190000Y-87190000D01*
X143990000Y-64270000D02*
X143990000Y-87190000D01*
X149190000Y-61670000D02*
X149190000Y-87190000D01*
X143990000Y-64270000D02*
X146590000Y-64270000D01*
X146590000Y-64270000D02*
X146590000Y-61670000D01*
X146590000Y-61670000D02*
X149190000Y-61670000D01*
X143990000Y-63000000D02*
X143990000Y-61670000D01*
X143990000Y-61670000D02*
X145320000Y-61670000D01*
%TO.C,J2*%
X100810000Y-87190000D02*
X106010000Y-87190000D01*
X100810000Y-64270000D02*
X100810000Y-87190000D01*
X106010000Y-61670000D02*
X106010000Y-87190000D01*
X100810000Y-64270000D02*
X103410000Y-64270000D01*
X103410000Y-64270000D02*
X103410000Y-61670000D01*
X103410000Y-61670000D02*
X106010000Y-61670000D01*
X100810000Y-63000000D02*
X100810000Y-61670000D01*
X100810000Y-61670000D02*
X102140000Y-61670000D01*
%TO.C,U4*%
X110450000Y-98960000D02*
X110450000Y-92950000D01*
X117270000Y-96710000D02*
X117270000Y-92950000D01*
X110450000Y-92950000D02*
X111710000Y-92950000D01*
X117270000Y-92950000D02*
X116010000Y-92950000D01*
%TO.C,U2*%
X137120000Y-85520000D02*
X133670000Y-85520000D01*
X137120000Y-85520000D02*
X139070000Y-85520000D01*
X137120000Y-95640000D02*
X135170000Y-95640000D01*
X137120000Y-95640000D02*
X139070000Y-95640000D01*
D13*
%TO.C,U1*%
X131600012Y-61199989D02*
X131600012Y-44599997D01*
X118399988Y-61199989D02*
X118399988Y-44599997D01*
X131600012Y-44599997D02*
X118399988Y-44599997D01*
X118399988Y-50000011D02*
X131600012Y-50000011D01*
X118399988Y-61199989D02*
X131600012Y-61199989D01*
D11*
%TO.C,R13*%
X140977341Y-72149940D02*
X140760060Y-71932659D01*
X140439940Y-72687341D02*
X140222659Y-72470060D01*
%TO.C,R11*%
X114750000Y-64143641D02*
X114750000Y-63836359D01*
X113990000Y-64143641D02*
X113990000Y-63836359D01*
%TO.C,R10*%
X146030000Y-90126359D02*
X146030000Y-90433641D01*
X146790000Y-90126359D02*
X146790000Y-90433641D01*
%TO.C,R9*%
X142050000Y-93526359D02*
X142050000Y-93833641D01*
X142810000Y-93526359D02*
X142810000Y-93833641D01*
%TO.C,R8*%
X130413641Y-87290000D02*
X130106359Y-87290000D01*
X130413641Y-88050000D02*
X130106359Y-88050000D01*
%TO.C,R7*%
X130393641Y-86130000D02*
X130086359Y-86130000D01*
X130393641Y-86890000D02*
X130086359Y-86890000D01*
%TO.C,R6*%
X130086359Y-89150000D02*
X130393641Y-89150000D01*
X130086359Y-88390000D02*
X130393641Y-88390000D01*
%TO.C,R5*%
X126130000Y-86903641D02*
X126130000Y-86596359D01*
X125370000Y-86903641D02*
X125370000Y-86596359D01*
%TO.C,R4*%
X124630000Y-86903641D02*
X124630000Y-86596359D01*
X123870000Y-86903641D02*
X123870000Y-86596359D01*
%TO.C,R3*%
X130066359Y-90190000D02*
X130373641Y-90190000D01*
X130066359Y-89430000D02*
X130373641Y-89430000D01*
%TO.C,Q2*%
X144990000Y-89850000D02*
X144990000Y-91310000D01*
X141830000Y-89850000D02*
X141830000Y-92010000D01*
X141830000Y-89850000D02*
X142760000Y-89850000D01*
X144990000Y-89850000D02*
X144060000Y-89850000D01*
%TO.C,Q1*%
X141340000Y-81790000D02*
X141340000Y-83250000D01*
X138180000Y-81790000D02*
X138180000Y-83950000D01*
X138180000Y-81790000D02*
X139110000Y-81790000D01*
X141340000Y-81790000D02*
X140410000Y-81790000D01*
%TO.C,J1*%
X120300000Y-98670000D02*
X120300000Y-100570000D01*
X120300000Y-94770000D02*
X120300000Y-96770000D01*
X129700000Y-98670000D02*
X129700000Y-100570000D01*
X129700000Y-94770000D02*
X129700000Y-96770000D01*
X120300000Y-100570000D02*
X129700000Y-100570000D01*
%TO.C,C11*%
X115970000Y-62752164D02*
X115970000Y-62967836D01*
X116690000Y-62752164D02*
X116690000Y-62967836D01*
%TO.C,C10*%
X137097836Y-96560000D02*
X136882164Y-96560000D01*
X137097836Y-97280000D02*
X136882164Y-97280000D01*
%TO.C,C9*%
X114655000Y-53601252D02*
X114655000Y-53078748D01*
X113185000Y-53601252D02*
X113185000Y-53078748D01*
%TO.C,C8*%
X109828748Y-86815000D02*
X110351252Y-86815000D01*
X109828748Y-85345000D02*
X110351252Y-85345000D01*
%TO.C,C6*%
X116527836Y-83910000D02*
X116312164Y-83910000D01*
X116527836Y-84630000D02*
X116312164Y-84630000D01*
%TO.C,C4*%
X114512164Y-75440000D02*
X114727836Y-75440000D01*
X114512164Y-74720000D02*
X114727836Y-74720000D01*
%TO.C,C3*%
X134192164Y-81180000D02*
X134407836Y-81180000D01*
X134192164Y-80460000D02*
X134407836Y-80460000D01*
%TO.C,C2*%
X112560000Y-53457836D02*
X112560000Y-53242164D01*
X111840000Y-53457836D02*
X111840000Y-53242164D01*
%TO.C,C1*%
X115702164Y-64890000D02*
X115917836Y-64890000D01*
X115702164Y-64170000D02*
X115917836Y-64170000D01*
%TO.C,R14*%
D10*
X120287142Y-71042380D02*
X119953809Y-70566190D01*
X119715714Y-71042380D02*
X119715714Y-70042380D01*
X120096666Y-70042380D01*
X120191904Y-70090000D01*
X120239523Y-70137619D01*
X120287142Y-70232857D01*
X120287142Y-70375714D01*
X120239523Y-70470952D01*
X120191904Y-70518571D01*
X120096666Y-70566190D01*
X119715714Y-70566190D01*
X121239523Y-71042380D02*
X120668095Y-71042380D01*
X120953809Y-71042380D02*
X120953809Y-70042380D01*
X120858571Y-70185238D01*
X120763333Y-70280476D01*
X120668095Y-70328095D01*
X122096666Y-70375714D02*
X122096666Y-71042380D01*
X121858571Y-69994761D02*
X121620476Y-70709047D01*
X122239523Y-70709047D01*
%TO.C,R12*%
X134677142Y-54002380D02*
X134343809Y-53526190D01*
X134105714Y-54002380D02*
X134105714Y-53002380D01*
X134486666Y-53002380D01*
X134581904Y-53050000D01*
X134629523Y-53097619D01*
X134677142Y-53192857D01*
X134677142Y-53335714D01*
X134629523Y-53430952D01*
X134581904Y-53478571D01*
X134486666Y-53526190D01*
X134105714Y-53526190D01*
X135629523Y-54002380D02*
X135058095Y-54002380D01*
X135343809Y-54002380D02*
X135343809Y-53002380D01*
X135248571Y-53145238D01*
X135153333Y-53240476D01*
X135058095Y-53288095D01*
X136010476Y-53097619D02*
X136058095Y-53050000D01*
X136153333Y-53002380D01*
X136391428Y-53002380D01*
X136486666Y-53050000D01*
X136534285Y-53097619D01*
X136581904Y-53192857D01*
X136581904Y-53288095D01*
X136534285Y-53430952D01*
X135962857Y-54002380D01*
X136581904Y-54002380D01*
%TO.C,IO4*%
X127210000Y-71252380D02*
X127210000Y-70252380D01*
X127876666Y-70252380D02*
X128067142Y-70252380D01*
X128162380Y-70300000D01*
X128257619Y-70395238D01*
X128305238Y-70585714D01*
X128305238Y-70919047D01*
X128257619Y-71109523D01*
X128162380Y-71204761D01*
X128067142Y-71252380D01*
X127876666Y-71252380D01*
X127781428Y-71204761D01*
X127686190Y-71109523D01*
X127638571Y-70919047D01*
X127638571Y-70585714D01*
X127686190Y-70395238D01*
X127781428Y-70300000D01*
X127876666Y-70252380D01*
X129162380Y-70585714D02*
X129162380Y-71252380D01*
X128924285Y-70204761D02*
X128686190Y-70919047D01*
X129305238Y-70919047D01*
%TO.C,VCC*%
X140476666Y-54392380D02*
X140810000Y-55392380D01*
X141143333Y-54392380D01*
X142048095Y-55297142D02*
X142000476Y-55344761D01*
X141857619Y-55392380D01*
X141762380Y-55392380D01*
X141619523Y-55344761D01*
X141524285Y-55249523D01*
X141476666Y-55154285D01*
X141429047Y-54963809D01*
X141429047Y-54820952D01*
X141476666Y-54630476D01*
X141524285Y-54535238D01*
X141619523Y-54440000D01*
X141762380Y-54392380D01*
X141857619Y-54392380D01*
X142000476Y-54440000D01*
X142048095Y-54487619D01*
X143048095Y-55297142D02*
X143000476Y-55344761D01*
X142857619Y-55392380D01*
X142762380Y-55392380D01*
X142619523Y-55344761D01*
X142524285Y-55249523D01*
X142476666Y-55154285D01*
X142429047Y-54963809D01*
X142429047Y-54820952D01*
X142476666Y-54630476D01*
X142524285Y-54535238D01*
X142619523Y-54440000D01*
X142762380Y-54392380D01*
X142857619Y-54392380D01*
X143000476Y-54440000D01*
X143048095Y-54487619D01*
%TO.C,C7*%
X106243333Y-91037142D02*
X106195714Y-91084761D01*
X106052857Y-91132380D01*
X105957619Y-91132380D01*
X105814761Y-91084761D01*
X105719523Y-90989523D01*
X105671904Y-90894285D01*
X105624285Y-90703809D01*
X105624285Y-90560952D01*
X105671904Y-90370476D01*
X105719523Y-90275238D01*
X105814761Y-90180000D01*
X105957619Y-90132380D01*
X106052857Y-90132380D01*
X106195714Y-90180000D01*
X106243333Y-90227619D01*
X106576666Y-90132380D02*
X107243333Y-90132380D01*
X106814761Y-91132380D01*
%TO.C,C5*%
X116173333Y-87457142D02*
X116125714Y-87504761D01*
X115982857Y-87552380D01*
X115887619Y-87552380D01*
X115744761Y-87504761D01*
X115649523Y-87409523D01*
X115601904Y-87314285D01*
X115554285Y-87123809D01*
X115554285Y-86980952D01*
X115601904Y-86790476D01*
X115649523Y-86695238D01*
X115744761Y-86600000D01*
X115887619Y-86552380D01*
X115982857Y-86552380D01*
X116125714Y-86600000D01*
X116173333Y-86647619D01*
X117078095Y-86552380D02*
X116601904Y-86552380D01*
X116554285Y-87028571D01*
X116601904Y-86980952D01*
X116697142Y-86933333D01*
X116935238Y-86933333D01*
X117030476Y-86980952D01*
X117078095Y-87028571D01*
X117125714Y-87123809D01*
X117125714Y-87361904D01*
X117078095Y-87457142D01*
X117030476Y-87504761D01*
X116935238Y-87552380D01*
X116697142Y-87552380D01*
X116601904Y-87504761D01*
X116554285Y-87457142D01*
%TO.C,RESET*%
D14*
X113014345Y-81207071D02*
X112633345Y-80662785D01*
X112361202Y-81207071D02*
X112361202Y-80064071D01*
X112796631Y-80064071D01*
X112905488Y-80118500D01*
X112959917Y-80172928D01*
X113014345Y-80281785D01*
X113014345Y-80445071D01*
X112959917Y-80553928D01*
X112905488Y-80608357D01*
X112796631Y-80662785D01*
X112361202Y-80662785D01*
X113504202Y-80608357D02*
X113885202Y-80608357D01*
X114048488Y-81207071D02*
X113504202Y-81207071D01*
X113504202Y-80064071D01*
X114048488Y-80064071D01*
X114483917Y-81152642D02*
X114647202Y-81207071D01*
X114919345Y-81207071D01*
X115028202Y-81152642D01*
X115082631Y-81098214D01*
X115137060Y-80989357D01*
X115137060Y-80880500D01*
X115082631Y-80771642D01*
X115028202Y-80717214D01*
X114919345Y-80662785D01*
X114701631Y-80608357D01*
X114592774Y-80553928D01*
X114538345Y-80499500D01*
X114483917Y-80390642D01*
X114483917Y-80281785D01*
X114538345Y-80172928D01*
X114592774Y-80118500D01*
X114701631Y-80064071D01*
X114973774Y-80064071D01*
X115137060Y-80118500D01*
X115626917Y-80608357D02*
X116007917Y-80608357D01*
X116171202Y-81207071D02*
X115626917Y-81207071D01*
X115626917Y-80064071D01*
X116171202Y-80064071D01*
X116497774Y-80064071D02*
X117150917Y-80064071D01*
X116824345Y-81207071D02*
X116824345Y-80064071D01*
%TO.C,BOOT*%
X129192202Y-80408357D02*
X129355488Y-80462785D01*
X129409917Y-80517214D01*
X129464345Y-80626071D01*
X129464345Y-80789357D01*
X129409917Y-80898214D01*
X129355488Y-80952642D01*
X129246631Y-81007071D01*
X128811202Y-81007071D01*
X128811202Y-79864071D01*
X129192202Y-79864071D01*
X129301060Y-79918500D01*
X129355488Y-79972928D01*
X129409917Y-80081785D01*
X129409917Y-80190642D01*
X129355488Y-80299500D01*
X129301060Y-80353928D01*
X129192202Y-80408357D01*
X128811202Y-80408357D01*
X130171917Y-79864071D02*
X130389631Y-79864071D01*
X130498488Y-79918500D01*
X130607345Y-80027357D01*
X130661774Y-80245071D01*
X130661774Y-80626071D01*
X130607345Y-80843785D01*
X130498488Y-80952642D01*
X130389631Y-81007071D01*
X130171917Y-81007071D01*
X130063060Y-80952642D01*
X129954202Y-80843785D01*
X129899774Y-80626071D01*
X129899774Y-80245071D01*
X129954202Y-80027357D01*
X130063060Y-79918500D01*
X130171917Y-79864071D01*
X131369345Y-79864071D02*
X131587060Y-79864071D01*
X131695917Y-79918500D01*
X131804774Y-80027357D01*
X131859202Y-80245071D01*
X131859202Y-80626071D01*
X131804774Y-80843785D01*
X131695917Y-80952642D01*
X131587060Y-81007071D01*
X131369345Y-81007071D01*
X131260488Y-80952642D01*
X131151631Y-80843785D01*
X131097202Y-80626071D01*
X131097202Y-80245071D01*
X131151631Y-80027357D01*
X131260488Y-79918500D01*
X131369345Y-79864071D01*
X132185774Y-79864071D02*
X132838917Y-79864071D01*
X132512345Y-81007071D02*
X132512345Y-79864071D01*
%TO.C,J3*%
D10*
X146256666Y-60122380D02*
X146256666Y-60836666D01*
X146209047Y-60979523D01*
X146113809Y-61074761D01*
X145970952Y-61122380D01*
X145875714Y-61122380D01*
X146637619Y-60122380D02*
X147256666Y-60122380D01*
X146923333Y-60503333D01*
X147066190Y-60503333D01*
X147161428Y-60550952D01*
X147209047Y-60598571D01*
X147256666Y-60693809D01*
X147256666Y-60931904D01*
X147209047Y-61027142D01*
X147161428Y-61074761D01*
X147066190Y-61122380D01*
X146780476Y-61122380D01*
X146685238Y-61074761D01*
X146637619Y-61027142D01*
%TO.C,J2*%
X103076666Y-60122380D02*
X103076666Y-60836666D01*
X103029047Y-60979523D01*
X102933809Y-61074761D01*
X102790952Y-61122380D01*
X102695714Y-61122380D01*
X103505238Y-60217619D02*
X103552857Y-60170000D01*
X103648095Y-60122380D01*
X103886190Y-60122380D01*
X103981428Y-60170000D01*
X104029047Y-60217619D01*
X104076666Y-60312857D01*
X104076666Y-60408095D01*
X104029047Y-60550952D01*
X103457619Y-61122380D01*
X104076666Y-61122380D01*
%TO.C,H4*%
X146268095Y-97402380D02*
X146268095Y-96402380D01*
X146268095Y-96878571D02*
X146839523Y-96878571D01*
X146839523Y-97402380D02*
X146839523Y-96402380D01*
X147744285Y-96735714D02*
X147744285Y-97402380D01*
X147506190Y-96354761D02*
X147268095Y-97069047D01*
X147887142Y-97069047D01*
%TO.C,H3*%
X146218095Y-53712380D02*
X146218095Y-52712380D01*
X146218095Y-53188571D02*
X146789523Y-53188571D01*
X146789523Y-53712380D02*
X146789523Y-52712380D01*
X147170476Y-52712380D02*
X147789523Y-52712380D01*
X147456190Y-53093333D01*
X147599047Y-53093333D01*
X147694285Y-53140952D01*
X147741904Y-53188571D01*
X147789523Y-53283809D01*
X147789523Y-53521904D01*
X147741904Y-53617142D01*
X147694285Y-53664761D01*
X147599047Y-53712380D01*
X147313333Y-53712380D01*
X147218095Y-53664761D01*
X147170476Y-53617142D01*
%TO.C,H2*%
X102288095Y-97572380D02*
X102288095Y-96572380D01*
X102288095Y-97048571D02*
X102859523Y-97048571D01*
X102859523Y-97572380D02*
X102859523Y-96572380D01*
X103288095Y-96667619D02*
X103335714Y-96620000D01*
X103430952Y-96572380D01*
X103669047Y-96572380D01*
X103764285Y-96620000D01*
X103811904Y-96667619D01*
X103859523Y-96762857D01*
X103859523Y-96858095D01*
X103811904Y-97000952D01*
X103240476Y-97572380D01*
X103859523Y-97572380D01*
%TO.C,H1*%
X102208095Y-53422380D02*
X102208095Y-52422380D01*
X102208095Y-52898571D02*
X102779523Y-52898571D01*
X102779523Y-53422380D02*
X102779523Y-52422380D01*
X103779523Y-53422380D02*
X103208095Y-53422380D01*
X103493809Y-53422380D02*
X103493809Y-52422380D01*
X103398571Y-52565238D01*
X103303333Y-52660476D01*
X103208095Y-52708095D01*
%TO.C,U4*%
X108168095Y-94872380D02*
X108168095Y-95681904D01*
X108215714Y-95777142D01*
X108263333Y-95824761D01*
X108358571Y-95872380D01*
X108549047Y-95872380D01*
X108644285Y-95824761D01*
X108691904Y-95777142D01*
X108739523Y-95681904D01*
X108739523Y-94872380D01*
X109644285Y-95205714D02*
X109644285Y-95872380D01*
X109406190Y-94824761D02*
X109168095Y-95539047D01*
X109787142Y-95539047D01*
%TO.C,U2*%
X135508095Y-84132380D02*
X135508095Y-84941904D01*
X135555714Y-85037142D01*
X135603333Y-85084761D01*
X135698571Y-85132380D01*
X135889047Y-85132380D01*
X135984285Y-85084761D01*
X136031904Y-85037142D01*
X136079523Y-84941904D01*
X136079523Y-84132380D01*
X136508095Y-84227619D02*
X136555714Y-84180000D01*
X136650952Y-84132380D01*
X136889047Y-84132380D01*
X136984285Y-84180000D01*
X137031904Y-84227619D01*
X137079523Y-84322857D01*
X137079523Y-84418095D01*
X137031904Y-84560952D01*
X136460476Y-85132380D01*
X137079523Y-85132380D01*
%TO.C,U1*%
X128478095Y-54632380D02*
X128478095Y-55441904D01*
X128525714Y-55537142D01*
X128573333Y-55584761D01*
X128668571Y-55632380D01*
X128859047Y-55632380D01*
X128954285Y-55584761D01*
X129001904Y-55537142D01*
X129049523Y-55441904D01*
X129049523Y-54632380D01*
X130049523Y-55632380D02*
X129478095Y-55632380D01*
X129763809Y-55632380D02*
X129763809Y-54632380D01*
X129668571Y-54775238D01*
X129573333Y-54870476D01*
X129478095Y-54918095D01*
D15*
X119119089Y-47714654D02*
X120086708Y-47714654D01*
X118925565Y-48295226D02*
X119602899Y-46263226D01*
X120280232Y-48295226D01*
X120957565Y-48295226D02*
X120957565Y-46263226D01*
X122118708Y-48295226D01*
X122118708Y-46263226D01*
X122796042Y-46263226D02*
X123957184Y-46263226D01*
X123376613Y-48295226D02*
X123376613Y-46263226D01*
X124634518Y-47230845D02*
X125311851Y-47230845D01*
X125602137Y-48295226D02*
X124634518Y-48295226D01*
X124634518Y-46263226D01*
X125602137Y-46263226D01*
X126472994Y-48295226D02*
X126472994Y-46263226D01*
X127634137Y-48295226D01*
X127634137Y-46263226D01*
X128601756Y-48295226D02*
X128601756Y-46263226D01*
X129762899Y-48295226D01*
X129762899Y-46263226D01*
X130633756Y-47714654D02*
X131601375Y-47714654D01*
X130440232Y-48295226D02*
X131117565Y-46263226D01*
X131794899Y-48295226D01*
%TO.C,R13*%
D10*
X138998234Y-73002627D02*
X139099249Y-72430208D01*
X138594173Y-72598566D02*
X139301280Y-71891460D01*
X139570654Y-72160834D01*
X139604326Y-72261849D01*
X139604326Y-72329192D01*
X139570654Y-72430208D01*
X139469639Y-72531223D01*
X139368623Y-72564895D01*
X139301280Y-72564895D01*
X139200265Y-72531223D01*
X138930891Y-72261849D01*
X139671669Y-73676063D02*
X139267608Y-73272002D01*
X139469639Y-73474032D02*
X140176746Y-72766925D01*
X140008387Y-72800597D01*
X139873700Y-72800597D01*
X139772685Y-72766925D01*
X140614478Y-73204658D02*
X141052211Y-73642391D01*
X140547135Y-73676063D01*
X140648150Y-73777078D01*
X140681822Y-73878093D01*
X140681822Y-73945437D01*
X140648150Y-74046452D01*
X140479791Y-74214811D01*
X140378776Y-74248482D01*
X140311433Y-74248482D01*
X140210417Y-74214811D01*
X140008387Y-74012780D01*
X139974715Y-73911765D01*
X139974715Y-73844421D01*
%TO.C,R11*%
X112917142Y-62732380D02*
X112583809Y-62256190D01*
X112345714Y-62732380D02*
X112345714Y-61732380D01*
X112726666Y-61732380D01*
X112821904Y-61780000D01*
X112869523Y-61827619D01*
X112917142Y-61922857D01*
X112917142Y-62065714D01*
X112869523Y-62160952D01*
X112821904Y-62208571D01*
X112726666Y-62256190D01*
X112345714Y-62256190D01*
X113869523Y-62732380D02*
X113298095Y-62732380D01*
X113583809Y-62732380D02*
X113583809Y-61732380D01*
X113488571Y-61875238D01*
X113393333Y-61970476D01*
X113298095Y-62018095D01*
X114821904Y-62732380D02*
X114250476Y-62732380D01*
X114536190Y-62732380D02*
X114536190Y-61732380D01*
X114440952Y-61875238D01*
X114345714Y-61970476D01*
X114250476Y-62018095D01*
%TO.C,R10*%
X147567142Y-90752380D02*
X147233809Y-90276190D01*
X146995714Y-90752380D02*
X146995714Y-89752380D01*
X147376666Y-89752380D01*
X147471904Y-89800000D01*
X147519523Y-89847619D01*
X147567142Y-89942857D01*
X147567142Y-90085714D01*
X147519523Y-90180952D01*
X147471904Y-90228571D01*
X147376666Y-90276190D01*
X146995714Y-90276190D01*
X148519523Y-90752380D02*
X147948095Y-90752380D01*
X148233809Y-90752380D02*
X148233809Y-89752380D01*
X148138571Y-89895238D01*
X148043333Y-89990476D01*
X147948095Y-90038095D01*
X149138571Y-89752380D02*
X149233809Y-89752380D01*
X149329047Y-89800000D01*
X149376666Y-89847619D01*
X149424285Y-89942857D01*
X149471904Y-90133333D01*
X149471904Y-90371428D01*
X149424285Y-90561904D01*
X149376666Y-90657142D01*
X149329047Y-90704761D01*
X149233809Y-90752380D01*
X149138571Y-90752380D01*
X149043333Y-90704761D01*
X148995714Y-90657142D01*
X148948095Y-90561904D01*
X148900476Y-90371428D01*
X148900476Y-90133333D01*
X148948095Y-89942857D01*
X148995714Y-89847619D01*
X149043333Y-89800000D01*
X149138571Y-89752380D01*
%TO.C,R9*%
X143773333Y-94212380D02*
X143440000Y-93736190D01*
X143201904Y-94212380D02*
X143201904Y-93212380D01*
X143582857Y-93212380D01*
X143678095Y-93260000D01*
X143725714Y-93307619D01*
X143773333Y-93402857D01*
X143773333Y-93545714D01*
X143725714Y-93640952D01*
X143678095Y-93688571D01*
X143582857Y-93736190D01*
X143201904Y-93736190D01*
X144249523Y-94212380D02*
X144440000Y-94212380D01*
X144535238Y-94164761D01*
X144582857Y-94117142D01*
X144678095Y-93974285D01*
X144725714Y-93783809D01*
X144725714Y-93402857D01*
X144678095Y-93307619D01*
X144630476Y-93260000D01*
X144535238Y-93212380D01*
X144344761Y-93212380D01*
X144249523Y-93260000D01*
X144201904Y-93307619D01*
X144154285Y-93402857D01*
X144154285Y-93640952D01*
X144201904Y-93736190D01*
X144249523Y-93783809D01*
X144344761Y-93831428D01*
X144535238Y-93831428D01*
X144630476Y-93783809D01*
X144678095Y-93736190D01*
X144725714Y-93640952D01*
%TO.C,R8*%
X131953333Y-88132380D02*
X131620000Y-87656190D01*
X131381904Y-88132380D02*
X131381904Y-87132380D01*
X131762857Y-87132380D01*
X131858095Y-87180000D01*
X131905714Y-87227619D01*
X131953333Y-87322857D01*
X131953333Y-87465714D01*
X131905714Y-87560952D01*
X131858095Y-87608571D01*
X131762857Y-87656190D01*
X131381904Y-87656190D01*
X132524761Y-87560952D02*
X132429523Y-87513333D01*
X132381904Y-87465714D01*
X132334285Y-87370476D01*
X132334285Y-87322857D01*
X132381904Y-87227619D01*
X132429523Y-87180000D01*
X132524761Y-87132380D01*
X132715238Y-87132380D01*
X132810476Y-87180000D01*
X132858095Y-87227619D01*
X132905714Y-87322857D01*
X132905714Y-87370476D01*
X132858095Y-87465714D01*
X132810476Y-87513333D01*
X132715238Y-87560952D01*
X132524761Y-87560952D01*
X132429523Y-87608571D01*
X132381904Y-87656190D01*
X132334285Y-87751428D01*
X132334285Y-87941904D01*
X132381904Y-88037142D01*
X132429523Y-88084761D01*
X132524761Y-88132380D01*
X132715238Y-88132380D01*
X132810476Y-88084761D01*
X132858095Y-88037142D01*
X132905714Y-87941904D01*
X132905714Y-87751428D01*
X132858095Y-87656190D01*
X132810476Y-87608571D01*
X132715238Y-87560952D01*
%TO.C,R7*%
X131943333Y-87082380D02*
X131610000Y-86606190D01*
X131371904Y-87082380D02*
X131371904Y-86082380D01*
X131752857Y-86082380D01*
X131848095Y-86130000D01*
X131895714Y-86177619D01*
X131943333Y-86272857D01*
X131943333Y-86415714D01*
X131895714Y-86510952D01*
X131848095Y-86558571D01*
X131752857Y-86606190D01*
X131371904Y-86606190D01*
X132276666Y-86082380D02*
X132943333Y-86082380D01*
X132514761Y-87082380D01*
%TO.C,R6*%
X132013333Y-89222380D02*
X131680000Y-88746190D01*
X131441904Y-89222380D02*
X131441904Y-88222380D01*
X131822857Y-88222380D01*
X131918095Y-88270000D01*
X131965714Y-88317619D01*
X132013333Y-88412857D01*
X132013333Y-88555714D01*
X131965714Y-88650952D01*
X131918095Y-88698571D01*
X131822857Y-88746190D01*
X131441904Y-88746190D01*
X132870476Y-88222380D02*
X132680000Y-88222380D01*
X132584761Y-88270000D01*
X132537142Y-88317619D01*
X132441904Y-88460476D01*
X132394285Y-88650952D01*
X132394285Y-89031904D01*
X132441904Y-89127142D01*
X132489523Y-89174761D01*
X132584761Y-89222380D01*
X132775238Y-89222380D01*
X132870476Y-89174761D01*
X132918095Y-89127142D01*
X132965714Y-89031904D01*
X132965714Y-88793809D01*
X132918095Y-88698571D01*
X132870476Y-88650952D01*
X132775238Y-88603333D01*
X132584761Y-88603333D01*
X132489523Y-88650952D01*
X132441904Y-88698571D01*
X132394285Y-88793809D01*
%TO.C,R5*%
X126232380Y-85006666D02*
X125756190Y-85340000D01*
X126232380Y-85578095D02*
X125232380Y-85578095D01*
X125232380Y-85197142D01*
X125280000Y-85101904D01*
X125327619Y-85054285D01*
X125422857Y-85006666D01*
X125565714Y-85006666D01*
X125660952Y-85054285D01*
X125708571Y-85101904D01*
X125756190Y-85197142D01*
X125756190Y-85578095D01*
X125232380Y-84101904D02*
X125232380Y-84578095D01*
X125708571Y-84625714D01*
X125660952Y-84578095D01*
X125613333Y-84482857D01*
X125613333Y-84244761D01*
X125660952Y-84149523D01*
X125708571Y-84101904D01*
X125803809Y-84054285D01*
X126041904Y-84054285D01*
X126137142Y-84101904D01*
X126184761Y-84149523D01*
X126232380Y-84244761D01*
X126232380Y-84482857D01*
X126184761Y-84578095D01*
X126137142Y-84625714D01*
%TO.C,R4*%
X124742380Y-84926666D02*
X124266190Y-85260000D01*
X124742380Y-85498095D02*
X123742380Y-85498095D01*
X123742380Y-85117142D01*
X123790000Y-85021904D01*
X123837619Y-84974285D01*
X123932857Y-84926666D01*
X124075714Y-84926666D01*
X124170952Y-84974285D01*
X124218571Y-85021904D01*
X124266190Y-85117142D01*
X124266190Y-85498095D01*
X124075714Y-84069523D02*
X124742380Y-84069523D01*
X123694761Y-84307619D02*
X124409047Y-84545714D01*
X124409047Y-83926666D01*
%TO.C,R3*%
X131953333Y-90412380D02*
X131620000Y-89936190D01*
X131381904Y-90412380D02*
X131381904Y-89412380D01*
X131762857Y-89412380D01*
X131858095Y-89460000D01*
X131905714Y-89507619D01*
X131953333Y-89602857D01*
X131953333Y-89745714D01*
X131905714Y-89840952D01*
X131858095Y-89888571D01*
X131762857Y-89936190D01*
X131381904Y-89936190D01*
X132286666Y-89412380D02*
X132905714Y-89412380D01*
X132572380Y-89793333D01*
X132715238Y-89793333D01*
X132810476Y-89840952D01*
X132858095Y-89888571D01*
X132905714Y-89983809D01*
X132905714Y-90221904D01*
X132858095Y-90317142D01*
X132810476Y-90364761D01*
X132715238Y-90412380D01*
X132429523Y-90412380D01*
X132334285Y-90364761D01*
X132286666Y-90317142D01*
%TO.C,Q2*%
X144444761Y-88977619D02*
X144349523Y-88930000D01*
X144254285Y-88834761D01*
X144111428Y-88691904D01*
X144016190Y-88644285D01*
X143920952Y-88644285D01*
X143968571Y-88882380D02*
X143873333Y-88834761D01*
X143778095Y-88739523D01*
X143730476Y-88549047D01*
X143730476Y-88215714D01*
X143778095Y-88025238D01*
X143873333Y-87930000D01*
X143968571Y-87882380D01*
X144159047Y-87882380D01*
X144254285Y-87930000D01*
X144349523Y-88025238D01*
X144397142Y-88215714D01*
X144397142Y-88549047D01*
X144349523Y-88739523D01*
X144254285Y-88834761D01*
X144159047Y-88882380D01*
X143968571Y-88882380D01*
X144778095Y-87977619D02*
X144825714Y-87930000D01*
X144920952Y-87882380D01*
X145159047Y-87882380D01*
X145254285Y-87930000D01*
X145301904Y-87977619D01*
X145349523Y-88072857D01*
X145349523Y-88168095D01*
X145301904Y-88310952D01*
X144730476Y-88882380D01*
X145349523Y-88882380D01*
%TO.C,Q1*%
X136944761Y-83297619D02*
X136849523Y-83250000D01*
X136754285Y-83154761D01*
X136611428Y-83011904D01*
X136516190Y-82964285D01*
X136420952Y-82964285D01*
X136468571Y-83202380D02*
X136373333Y-83154761D01*
X136278095Y-83059523D01*
X136230476Y-82869047D01*
X136230476Y-82535714D01*
X136278095Y-82345238D01*
X136373333Y-82250000D01*
X136468571Y-82202380D01*
X136659047Y-82202380D01*
X136754285Y-82250000D01*
X136849523Y-82345238D01*
X136897142Y-82535714D01*
X136897142Y-82869047D01*
X136849523Y-83059523D01*
X136754285Y-83154761D01*
X136659047Y-83202380D01*
X136468571Y-83202380D01*
X137849523Y-83202380D02*
X137278095Y-83202380D01*
X137563809Y-83202380D02*
X137563809Y-82202380D01*
X137468571Y-82345238D01*
X137373333Y-82440476D01*
X137278095Y-82488095D01*
%TO.C,J1*%
X124286666Y-96662380D02*
X124286666Y-97376666D01*
X124239047Y-97519523D01*
X124143809Y-97614761D01*
X124000952Y-97662380D01*
X123905714Y-97662380D01*
X125286666Y-97662380D02*
X124715238Y-97662380D01*
X125000952Y-97662380D02*
X125000952Y-96662380D01*
X124905714Y-96805238D01*
X124810476Y-96900476D01*
X124715238Y-96948095D01*
%TO.C,C11*%
X117707142Y-63477142D02*
X117659523Y-63524761D01*
X117516666Y-63572380D01*
X117421428Y-63572380D01*
X117278571Y-63524761D01*
X117183333Y-63429523D01*
X117135714Y-63334285D01*
X117088095Y-63143809D01*
X117088095Y-63000952D01*
X117135714Y-62810476D01*
X117183333Y-62715238D01*
X117278571Y-62620000D01*
X117421428Y-62572380D01*
X117516666Y-62572380D01*
X117659523Y-62620000D01*
X117707142Y-62667619D01*
X118659523Y-63572380D02*
X118088095Y-63572380D01*
X118373809Y-63572380D02*
X118373809Y-62572380D01*
X118278571Y-62715238D01*
X118183333Y-62810476D01*
X118088095Y-62858095D01*
X119611904Y-63572380D02*
X119040476Y-63572380D01*
X119326190Y-63572380D02*
X119326190Y-62572380D01*
X119230952Y-62715238D01*
X119135714Y-62810476D01*
X119040476Y-62858095D01*
%TO.C,C10*%
X136347142Y-98437142D02*
X136299523Y-98484761D01*
X136156666Y-98532380D01*
X136061428Y-98532380D01*
X135918571Y-98484761D01*
X135823333Y-98389523D01*
X135775714Y-98294285D01*
X135728095Y-98103809D01*
X135728095Y-97960952D01*
X135775714Y-97770476D01*
X135823333Y-97675238D01*
X135918571Y-97580000D01*
X136061428Y-97532380D01*
X136156666Y-97532380D01*
X136299523Y-97580000D01*
X136347142Y-97627619D01*
X137299523Y-98532380D02*
X136728095Y-98532380D01*
X137013809Y-98532380D02*
X137013809Y-97532380D01*
X136918571Y-97675238D01*
X136823333Y-97770476D01*
X136728095Y-97818095D01*
X137918571Y-97532380D02*
X138013809Y-97532380D01*
X138109047Y-97580000D01*
X138156666Y-97627619D01*
X138204285Y-97722857D01*
X138251904Y-97913333D01*
X138251904Y-98151428D01*
X138204285Y-98341904D01*
X138156666Y-98437142D01*
X138109047Y-98484761D01*
X138013809Y-98532380D01*
X137918571Y-98532380D01*
X137823333Y-98484761D01*
X137775714Y-98437142D01*
X137728095Y-98341904D01*
X137680476Y-98151428D01*
X137680476Y-97913333D01*
X137728095Y-97722857D01*
X137775714Y-97627619D01*
X137823333Y-97580000D01*
X137918571Y-97532380D01*
%TO.C,C9*%
X113963333Y-56357142D02*
X113915714Y-56404761D01*
X113772857Y-56452380D01*
X113677619Y-56452380D01*
X113534761Y-56404761D01*
X113439523Y-56309523D01*
X113391904Y-56214285D01*
X113344285Y-56023809D01*
X113344285Y-55880952D01*
X113391904Y-55690476D01*
X113439523Y-55595238D01*
X113534761Y-55500000D01*
X113677619Y-55452380D01*
X113772857Y-55452380D01*
X113915714Y-55500000D01*
X113963333Y-55547619D01*
X114439523Y-56452380D02*
X114630000Y-56452380D01*
X114725238Y-56404761D01*
X114772857Y-56357142D01*
X114868095Y-56214285D01*
X114915714Y-56023809D01*
X114915714Y-55642857D01*
X114868095Y-55547619D01*
X114820476Y-55500000D01*
X114725238Y-55452380D01*
X114534761Y-55452380D01*
X114439523Y-55500000D01*
X114391904Y-55547619D01*
X114344285Y-55642857D01*
X114344285Y-55880952D01*
X114391904Y-55976190D01*
X114439523Y-56023809D01*
X114534761Y-56071428D01*
X114725238Y-56071428D01*
X114820476Y-56023809D01*
X114868095Y-55976190D01*
X114915714Y-55880952D01*
%TO.C,C8*%
X110043333Y-88177142D02*
X109995714Y-88224761D01*
X109852857Y-88272380D01*
X109757619Y-88272380D01*
X109614761Y-88224761D01*
X109519523Y-88129523D01*
X109471904Y-88034285D01*
X109424285Y-87843809D01*
X109424285Y-87700952D01*
X109471904Y-87510476D01*
X109519523Y-87415238D01*
X109614761Y-87320000D01*
X109757619Y-87272380D01*
X109852857Y-87272380D01*
X109995714Y-87320000D01*
X110043333Y-87367619D01*
X110614761Y-87700952D02*
X110519523Y-87653333D01*
X110471904Y-87605714D01*
X110424285Y-87510476D01*
X110424285Y-87462857D01*
X110471904Y-87367619D01*
X110519523Y-87320000D01*
X110614761Y-87272380D01*
X110805238Y-87272380D01*
X110900476Y-87320000D01*
X110948095Y-87367619D01*
X110995714Y-87462857D01*
X110995714Y-87510476D01*
X110948095Y-87605714D01*
X110900476Y-87653333D01*
X110805238Y-87700952D01*
X110614761Y-87700952D01*
X110519523Y-87748571D01*
X110471904Y-87796190D01*
X110424285Y-87891428D01*
X110424285Y-88081904D01*
X110471904Y-88177142D01*
X110519523Y-88224761D01*
X110614761Y-88272380D01*
X110805238Y-88272380D01*
X110900476Y-88224761D01*
X110948095Y-88177142D01*
X110995714Y-88081904D01*
X110995714Y-87891428D01*
X110948095Y-87796190D01*
X110900476Y-87748571D01*
X110805238Y-87700952D01*
%TO.C,C6*%
X114363333Y-84597142D02*
X114315714Y-84644761D01*
X114172857Y-84692380D01*
X114077619Y-84692380D01*
X113934761Y-84644761D01*
X113839523Y-84549523D01*
X113791904Y-84454285D01*
X113744285Y-84263809D01*
X113744285Y-84120952D01*
X113791904Y-83930476D01*
X113839523Y-83835238D01*
X113934761Y-83740000D01*
X114077619Y-83692380D01*
X114172857Y-83692380D01*
X114315714Y-83740000D01*
X114363333Y-83787619D01*
X115220476Y-83692380D02*
X115030000Y-83692380D01*
X114934761Y-83740000D01*
X114887142Y-83787619D01*
X114791904Y-83930476D01*
X114744285Y-84120952D01*
X114744285Y-84501904D01*
X114791904Y-84597142D01*
X114839523Y-84644761D01*
X114934761Y-84692380D01*
X115125238Y-84692380D01*
X115220476Y-84644761D01*
X115268095Y-84597142D01*
X115315714Y-84501904D01*
X115315714Y-84263809D01*
X115268095Y-84168571D01*
X115220476Y-84120952D01*
X115125238Y-84073333D01*
X114934761Y-84073333D01*
X114839523Y-84120952D01*
X114791904Y-84168571D01*
X114744285Y-84263809D01*
%TO.C,C4*%
X114453333Y-74277142D02*
X114405714Y-74324761D01*
X114262857Y-74372380D01*
X114167619Y-74372380D01*
X114024761Y-74324761D01*
X113929523Y-74229523D01*
X113881904Y-74134285D01*
X113834285Y-73943809D01*
X113834285Y-73800952D01*
X113881904Y-73610476D01*
X113929523Y-73515238D01*
X114024761Y-73420000D01*
X114167619Y-73372380D01*
X114262857Y-73372380D01*
X114405714Y-73420000D01*
X114453333Y-73467619D01*
X115310476Y-73705714D02*
X115310476Y-74372380D01*
X115072380Y-73324761D02*
X114834285Y-74039047D01*
X115453333Y-74039047D01*
%TO.C,C3*%
X134303333Y-82567142D02*
X134255714Y-82614761D01*
X134112857Y-82662380D01*
X134017619Y-82662380D01*
X133874761Y-82614761D01*
X133779523Y-82519523D01*
X133731904Y-82424285D01*
X133684285Y-82233809D01*
X133684285Y-82090952D01*
X133731904Y-81900476D01*
X133779523Y-81805238D01*
X133874761Y-81710000D01*
X134017619Y-81662380D01*
X134112857Y-81662380D01*
X134255714Y-81710000D01*
X134303333Y-81757619D01*
X134636666Y-81662380D02*
X135255714Y-81662380D01*
X134922380Y-82043333D01*
X135065238Y-82043333D01*
X135160476Y-82090952D01*
X135208095Y-82138571D01*
X135255714Y-82233809D01*
X135255714Y-82471904D01*
X135208095Y-82567142D01*
X135160476Y-82614761D01*
X135065238Y-82662380D01*
X134779523Y-82662380D01*
X134684285Y-82614761D01*
X134636666Y-82567142D01*
%TO.C,C2*%
X110403333Y-53737142D02*
X110355714Y-53784761D01*
X110212857Y-53832380D01*
X110117619Y-53832380D01*
X109974761Y-53784761D01*
X109879523Y-53689523D01*
X109831904Y-53594285D01*
X109784285Y-53403809D01*
X109784285Y-53260952D01*
X109831904Y-53070476D01*
X109879523Y-52975238D01*
X109974761Y-52880000D01*
X110117619Y-52832380D01*
X110212857Y-52832380D01*
X110355714Y-52880000D01*
X110403333Y-52927619D01*
X110784285Y-52927619D02*
X110831904Y-52880000D01*
X110927142Y-52832380D01*
X111165238Y-52832380D01*
X111260476Y-52880000D01*
X111308095Y-52927619D01*
X111355714Y-53022857D01*
X111355714Y-53118095D01*
X111308095Y-53260952D01*
X110736666Y-53832380D01*
X111355714Y-53832380D01*
%TO.C,C1*%
X115733333Y-66207142D02*
X115685714Y-66254761D01*
X115542857Y-66302380D01*
X115447619Y-66302380D01*
X115304761Y-66254761D01*
X115209523Y-66159523D01*
X115161904Y-66064285D01*
X115114285Y-65873809D01*
X115114285Y-65730952D01*
X115161904Y-65540476D01*
X115209523Y-65445238D01*
X115304761Y-65350000D01*
X115447619Y-65302380D01*
X115542857Y-65302380D01*
X115685714Y-65350000D01*
X115733333Y-65397619D01*
X116685714Y-66302380D02*
X116114285Y-66302380D01*
X116400000Y-66302380D02*
X116400000Y-65302380D01*
X116304761Y-65445238D01*
X116209523Y-65540476D01*
X116114285Y-65588095D01*
%TD*%
M02*
